<?xml version="1.0" encoding="UTF-8"?>
<svg width="137px" height="40px" viewBox="0 0 137 40" version="1.1" xmlns="http://www.w3.org/2000/svg" xmlns:xlink="http://www.w3.org/1999/xlink">
    <title>Group 37</title>
    <defs>
        <polygon id="path-1" points="0 39.8977358 136.321132 39.8977358 136.321132 0 0 0"></polygon>
    </defs>
    <g id="beautify" stroke="none" stroke-width="1" fill="none" fill-rule="evenodd">
        <g id="BABY-SAFETY-HOMEPAGE-DESKTOP" transform="translate(-522.000000, -5706.000000)">
            <g id="Group-11" transform="translate(0.000000, 4792.000000)">
                <g id="footer" transform="translate(0.000000, 337.000000)">
                    <g id="Group-5" transform="translate(337.000000, 569.000000)">
                        <g id="Group-37" transform="translate(185.000000, 8.000000)">
                            <path d="M23.8061509,39.4238113 C23.5684151,39.4238113 23.3450189,39.3313585 23.1770943,39.163434 L8.93520755,24.9211698 C8.58841509,24.5743774 8.58841509,24.0102264 8.93520755,23.6630566 L29.8638868,2.73437736 C30.0318113,2.56645283 30.2552075,2.474 30.4929434,2.474 C30.7306792,2.474 30.9536981,2.56645283 31.122,2.73437736 L45.3638868,16.9766415 C45.7106792,17.323434 45.7106792,17.8875849 45.3638868,18.2343774 L24.4352075,39.163434 C24.267283,39.3313585 24.0435094,39.4238113 23.8061509,39.4238113" id="Fill-1" fill="#FF80B4"></path>
                            <path d="M30.4928302,1.99992453 C30.1437736,1.99992453 29.7950943,2.13313208 29.5286792,2.39954717 L8.6,23.3282264 C8.06754717,23.8606792 8.06754717,24.7240755 8.6,25.2565283 L22.8418868,39.4984151 C23.1083019,39.7648302 23.4569811,39.8976604 23.8060377,39.8976604 C24.1550943,39.8976604 24.5037736,39.7648302 24.7701887,39.4984151 L45.6988679,18.5697358 C46.2316981,18.037283 46.2316981,17.1738868 45.6988679,16.641434 L31.4569811,2.39954717 C31.1909434,2.13313208 30.8418868,1.99992453 30.4928302,1.99992453 M30.4928302,2.94784906 C30.5569811,2.94784906 30.6807547,2.96369811 30.7867925,3.06935849 L45.0286792,17.3116226 C45.134717,17.417283 45.150566,17.5410566 45.150566,17.6052075 C45.150566,17.6697358 45.134717,17.7935094 45.0286792,17.8991698 L24.1,38.8282264 C23.9939623,38.9338868 23.870566,38.9497358 23.8060377,38.9497358 C23.7418868,38.9497358 23.6181132,38.9338868 23.5120755,38.8282264 L9.27018868,24.5863396 C9.10830189,24.4240755 9.10830189,24.1603019 9.27018868,23.9984151 L30.1988679,3.06935849 C30.3049057,2.96369811 30.4286792,2.94784906 30.4928302,2.94784906" id="Fill-3" fill="#000000"></path>
                            <path d="M33.8544151,5.97856604 C33.348,6.48498113 32.5264906,6.48498113 32.0200755,5.97856604 C31.5136604,5.47215094 31.5136604,4.65101887 32.0200755,4.14460377 C32.5264906,3.63781132 33.348,3.63781132 33.8544151,4.14460377 C34.3608302,4.65101887 34.3608302,5.47215094 33.8544151,5.97856604" id="Fill-5" fill="#000000"></path>
                            <path d="M43.575283,15.6996226 C43.0688679,16.2060377 42.2477358,16.2060377 41.7413208,15.6996226 C41.2345283,15.1932075 41.2345283,14.3716981 41.7413208,13.8656604 C42.2477358,13.3588679 43.0688679,13.3588679 43.575283,13.8656604 C44.0816981,14.3716981 44.0816981,15.1932075 43.575283,15.6996226" id="Fill-7" fill="#000000"></path>
                            <path d="M42.7308302,15.4665283 L41.8930943,14.6287925 L44.912717,11.6091698 C47.0225283,9.49935849 47.0225283,6.06728302 44.912717,3.95784906 L43.7213962,2.7665283 C41.6119623,0.656716981 38.1795094,0.656716981 36.0704528,2.7665283 L33.0504528,5.78615094 L32.212717,4.94841509 L35.2323396,1.92879245 C37.8036604,-0.642528302 41.9878113,-0.64290566 44.5595094,1.92879245 L45.7504528,3.12011321 C48.3221509,5.69143396 48.3221509,9.87558491 45.7504528,12.4469057 L42.7308302,15.4665283 Z" id="Fill-9" fill="#000000"></path>
                            <path d="M26.3393208,6.96988679 L24.3842264,8.92498113 L34.8857358,19.4264906 C35.4181887,19.9589434 35.4181887,20.8223396 34.8857358,21.3547925 L20.4947925,35.7457358 L23.8804528,39.1313962 L40.2261132,22.7853585 C40.758566,22.2529057 40.758566,21.3895094 40.2261132,20.8570566 L26.3393208,6.96988679 Z" id="Fill-11" fill="#E2609B"></path>
                            <path d="M23.6067925,39.2124906 C23.369434,39.2124906 23.1460377,39.1200377 22.9777358,38.9517358 L2.73433962,18.7083396 C2.38754717,18.3615472 2.38754717,17.7973962 2.73433962,17.4506038 L16.9766038,3.20833962 C17.1445283,3.04041509 17.3679245,2.94796226 17.605283,2.94796226 C17.8430189,2.94796226 18.0664151,3.04041509 18.2343396,3.20833962 L38.4781132,23.4517358 C38.8245283,23.7985283 38.8245283,24.3630566 38.4777358,24.7098491 L24.2358491,38.9517358 C24.0679245,39.1200377 23.8445283,39.2124906 23.6067925,39.2124906" id="Fill-13" fill="#83DFFF"></path>
                            <path d="M17.6053585,2.474 C17.2563019,2.474 16.9076226,2.60720755 16.6412075,2.87324528 L2.39932075,17.1151321 C1.86686792,17.6475849 1.86686792,18.5109811 2.39932075,19.043434 L22.642717,39.2868302 C22.9091321,39.5532453 23.2578113,39.6864528 23.6068679,39.6864528 C23.9559245,39.6864528 24.3046038,39.5532453 24.5710189,39.2868302 L38.8129057,25.0449434 C39.3453585,24.5124906 39.3453585,23.6490943 38.8129057,23.1166415 L18.5695094,2.87324528 C18.3034717,2.60720755 17.9544151,2.474 17.6053585,2.474 M17.6053585,3.42192453 C17.6695094,3.42192453 17.793283,3.43777358 17.8993208,3.54343396 L38.142717,23.7868302 C38.2487547,23.8928679 38.2646038,24.0166415 38.2646038,24.0807925 C38.2646038,24.1453208 38.2487547,24.268717 38.142717,24.3747547 L23.9008302,38.6166415 C23.7947925,38.7226792 23.6710189,38.7385283 23.6068679,38.7385283 C23.5423396,38.7385283 23.4189434,38.7226792 23.3129057,38.6166415 L3.06950943,18.3732453 C2.9634717,18.2675849 2.948,18.1438113 2.948,18.079283 C2.948,18.0151321 2.9634717,17.8913585 3.06950943,17.7856981 L17.3113962,3.54343396 C17.417434,3.43777358 17.5412075,3.42192453 17.6053585,3.42192453" id="Fill-15" fill="#000000"></path>
                            <path d="M5.97856604,14.7178868 C6.48498113,15.2243019 6.48498113,16.0458113 5.97856604,16.5522264 C5.47215094,17.0586415 4.65101887,17.0586415 4.14460377,16.5522264 C3.63781132,16.0458113 3.63781132,15.2243019 4.14460377,14.7178868 C4.65101887,14.2114717 5.47215094,14.2114717 5.97856604,14.7178868" id="Fill-17" fill="#000000"></path>
                            <path d="M15.6995849,4.9970566 C16.206,5.5034717 16.206,6.32460377 15.6995849,6.83101887 C15.1931698,7.33781132 14.3716604,7.33781132 13.8652453,6.83101887 C13.3588302,6.32460377 13.3588302,5.5034717 13.8652453,4.9970566 C14.3716604,4.49064151 15.1931698,4.49064151 15.6995849,4.9970566" id="Fill-19" fill="#000000"></path>
                            <path d="M4.94818868,16.3596226 L1.92856604,13.34 C-0.642754717,10.7686792 -0.642754717,6.5845283 1.92856604,4.01283019 L3.11988679,2.82188679 C5.69158491,0.250188679 9.87535849,0.250188679 12.4470566,2.82188679 L15.4666792,5.84150943 L14.628566,6.67924528 L11.6089434,3.65962264 C9.49950943,1.55018868 6.0670566,1.54981132 3.95762264,3.65962264 L2.76630189,4.85056604 C0.656867925,6.96037736 0.656867925,10.3924528 2.76630189,12.5018868 L5.78630189,15.5218868 L4.94818868,16.3596226 Z" id="Fill-21" fill="#000000"></path>
                            <mask id="mask-2" fill="white">
                                <use xlink:href="#path-1"></use>
                            </mask>
                            <g id="Clip-24"></g>
                            <polygon id="Fill-23" fill="#282828" mask="url(#mask-2)" points="60.8690566 16.909434 63.2222642 16.909434 63.2222642 5.33584906 60.8690566 5.33584906"></polygon>
                            <polygon id="Fill-25" fill="#282828" mask="url(#mask-2)" points="69.3742264 16.909434 69.3742264 5.33584906 71.727434 5.33584906 71.727434 15.0769811 76.9164906 15.0769811 76.9164906 16.909434"></polygon>
                            <path d="M82.2970943,9.90732075 C80.792566,9.90732075 79.8087925,11.0646792 79.8087925,12.7427925 C79.8087925,14.4405283 80.8118113,15.5786415 82.2970943,15.5786415 C83.7823774,15.5786415 84.7661509,14.4405283 84.7661509,12.7427925 C84.7661509,11.0646792 83.7823774,9.90732075 82.2970943,9.90732075 M82.2970943,17.2182642 C79.596717,17.2182642 77.6099245,15.2699623 77.6099245,12.7427925 C77.6099245,10.2352453 79.596717,8.26769811 82.2970943,8.26769811 C84.9782264,8.26769811 86.9650189,10.2352453 86.9650189,12.7427925 C86.9650189,15.2699623 84.9782264,17.2182642 82.2970943,17.2182642" id="Fill-26" fill="#282828" mask="url(#mask-2)"></path>
                            <polygon id="Fill-27" fill="#282828" mask="url(#mask-2)" points="92.5388302 16.909434 90.9184528 16.909434 87.2727925 8.57622642 89.4716604 8.57622642 91.7671321 14.054717 94.0433585 8.57622642 96.1652453 8.57622642"></polygon>
                            <path d="M100.832415,9.77241509 C99.8871321,9.77241509 99.0769434,10.3124151 98.8841132,11.6048679 L102.452415,11.6048679 C102.645623,10.6018491 101.989774,9.77241509 100.832415,9.77241509 M104.342981,12.800717 L98.7878868,12.800717 C98.7297736,14.0739245 99.3856226,15.520717 101.623358,15.520717 C102.568642,15.520717 103.687132,15.0961887 104.323736,14.536566 L104.323736,16.1569434 C103.532792,16.7743019 102.317698,17.140717 100.928642,17.140717 C98.3633585,17.140717 96.5693962,15.2697736 96.5693962,12.6848679 C96.5693962,10.0233585 98.6143019,8.34486792 100.774679,8.34486792 C102.896189,8.34486792 104.478075,9.67581132 104.478075,11.6433585 C104.478075,12.0097736 104.42034,12.511283 104.342981,12.800717" id="Fill-28" fill="#282828" mask="url(#mask-2)"></path>
                            <path d="M64.2832075,34.9996226 C62.3541509,34.9996226 60.9654717,34.2471698 60.1745283,33.5532075 L60.7145283,31.7011321 C61.4862264,32.4343396 62.7013208,33.2633962 64.2832075,33.2633962 C65.440566,33.2633962 66.3277358,32.6849057 66.3277358,31.6626415 C66.3277358,30.6981132 65.7877358,30.2350943 63.8975472,29.7335849 C61.4669811,29.1354717 60.5024528,27.8433962 60.5024528,26.1845283 C60.5024528,24.2939623 62.0069811,22.9245283 64.495283,22.9245283 C65.9228302,22.9245283 67.1956604,23.4645283 67.9673585,24.0626415 L67.4658491,25.7022642 C66.6556604,25.1622642 65.4983019,24.6992453 64.4760377,24.6992453 C63.3379245,24.6992453 62.6628302,25.2007547 62.6628302,26.0301887 C62.6628302,26.705283 63.0873585,27.2067925 64.6496226,27.6116981 C67.35,28.2867925 68.5073585,29.425283 68.5073585,31.4309434 C68.5073585,33.9196226 66.4628302,34.9996226 64.2832075,34.9996226" id="Fill-29" fill="#282828" mask="url(#mask-2)"></path>
                            <path d="M76.2221509,34.7681887 L76.2221509,30.158 C76.2221509,28.5376226 75.6629057,27.9976226 74.6406415,27.9976226 C73.5795094,27.9976226 72.4221509,28.9621509 72.4221509,30.1195094 L72.4221509,34.7681887 L70.1844151,34.7681887 L70.1844151,23.1946038 L72.4221509,23.1946038 L72.4221509,27.8240377 C73.0395094,26.9172453 74.2161132,26.2036604 75.4119623,26.2036604 C77.6304528,26.2036604 78.4598868,27.7470566 78.4598868,29.8108302 L78.4598868,34.7681887 L76.2221509,34.7681887 Z" id="Fill-30" fill="#282828" mask="url(#mask-2)"></path>
                            <path d="M84.7854717,27.7660377 C83.2809434,27.7660377 82.2971698,28.9233962 82.2971698,30.6018868 C82.2971698,32.2992453 83.3001887,33.4373585 84.7854717,33.4373585 C86.2707547,33.4373585 87.2545283,32.2992453 87.2545283,30.6018868 C87.2545283,28.9233962 86.2707547,27.7660377 84.7854717,27.7660377 M84.7854717,35.0769811 C82.0850943,35.0769811 80.0983019,33.1286792 80.0983019,30.6018868 C80.0983019,28.0939623 82.0850943,26.1264151 84.7854717,26.1264151 C87.4666038,26.1264151 89.4533962,28.0939623 89.4533962,30.6018868 C89.4533962,33.1286792 87.4666038,35.0769811 84.7854717,35.0769811" id="Fill-31" fill="#282828" mask="url(#mask-2)"></path>
                            <path d="M95.6249434,27.8626038 C94.3132453,27.8626038 93.2524906,28.8848679 93.2524906,30.6018491 C93.2524906,32.3184528 94.3132453,33.340717 95.6249434,33.340717 C96.9366415,33.340717 97.9977736,32.3184528 97.9977736,30.6018491 C97.9977736,28.8848679 96.9366415,27.8626038 95.6249434,27.8626038 M96.319283,34.9995849 C95.2004151,34.9995849 94.0623019,34.5369434 93.348717,33.6301509 L93.348717,38.5297736 L91.1113585,38.5297736 L91.1113585,26.4350566 L93.1366415,26.4350566 L93.2136226,27.766 C93.9083396,26.7437358 95.1426792,26.2037358 96.319283,26.2037358 C98.5762642,26.2037358 100.235132,28.0939245 100.235132,30.6018491 C100.235132,33.1093962 98.5762642,34.9995849 96.319283,34.9995849" id="Fill-32" fill="#282828" mask="url(#mask-2)"></path>
                            <path d="M106.464415,27.8626038 C105.152717,27.8626038 104.091962,28.8848679 104.091962,30.6018491 C104.091962,32.3184528 105.152717,33.340717 106.464415,33.340717 C107.776113,33.340717 108.837245,32.3184528 108.837245,30.6018491 C108.837245,28.8848679 107.776113,27.8626038 106.464415,27.8626038 M107.158755,34.9995849 C106.039887,34.9995849 104.901774,34.5369434 104.188189,33.6301509 L104.188189,38.5297736 L101.95083,38.5297736 L101.95083,26.4350566 L103.976113,26.4350566 L104.053094,27.766 C104.747811,26.7437358 105.982151,26.2037358 107.158755,26.2037358 C109.415736,26.2037358 111.074604,28.0939245 111.074604,30.6018491 C111.074604,33.1093962 109.415736,34.9995849 107.158755,34.9995849" id="Fill-33" fill="#282828" mask="url(#mask-2)"></path>
                            <path d="M112.790189,34.7683019 L115.027925,34.7683019 L115.027925,26.4350943 L112.790189,26.4350943 L112.790189,34.7683019 Z M112.790189,25.0271698 L115.027925,25.0271698 L115.027925,23.194717 L112.790189,23.194717 L112.790189,25.0271698 Z" id="Fill-34" fill="#282828" mask="url(#mask-2)"></path>
                            <path d="M123.263698,34.7681887 L123.263698,30.158 C123.263698,28.5376226 122.704453,27.9976226 121.682189,27.9976226 C120.621057,27.9976226 119.463698,28.9621509 119.463698,30.1195094 L119.463698,34.7681887 L117.225962,34.7681887 L117.225962,26.4349811 L119.270868,26.4349811 L119.367094,27.9783774 C119.926717,26.9172453 121.180302,26.2036604 122.453509,26.2036604 C124.672,26.2036604 125.501434,27.7470566 125.501434,29.8108302 L125.501434,34.7681887 L123.263698,34.7681887 Z" id="Fill-35" fill="#282828" mask="url(#mask-2)"></path>
                            <path d="M131.807509,27.8626038 C130.495811,27.8626038 129.435057,28.8848679 129.435057,30.6018491 C129.435057,32.3184528 130.495811,33.340717 131.807509,33.340717 C133.119208,33.340717 134.18034,32.3184528 134.18034,30.6018491 C134.18034,28.8848679 133.119208,27.8626038 131.807509,27.8626038 M131.595434,38.7033585 C130.341472,38.7033585 128.894679,38.2595849 127.930528,37.7195849 L127.930528,36.0026038 C129.184113,36.7743019 130.187509,37.0829811 131.556566,37.0829811 C132.945623,37.0829811 134.083736,36.2727925 134.083736,34.1701509 L134.083736,33.6301509 C133.370151,34.5369434 132.232038,34.9995849 131.11317,34.9995849 C128.856189,34.9995849 127.197321,33.1093962 127.197321,30.6018491 C127.197321,28.0939245 128.856189,26.2037358 131.11317,26.2037358 C132.289774,26.2037358 133.524491,26.7437358 134.21883,27.766 L134.295811,26.4350566 L136.321094,26.4350566 L136.321094,33.9388302 C136.321094,37.9124151 133.717321,38.7033585 131.595434,38.7033585" id="Fill-36" fill="#282828" mask="url(#mask-2)"></path>
                        </g>
                    </g>
                </g>
            </g>
        </g>
    </g>
</svg>
