<?xml version="1.0" encoding="utf-8"?>
<svg width="178px" height="47px" viewBox="0 0 178 47" version="1.1" xmlns="http://www.w3.org/2000/svg">
  <title>Group 53</title>
  <defs>
    <polygon id="path-1" points="0.465346535 0.232673267 0.698019802 0.232673267 0.698019802 0.465346535 0.465346535 0.465346535"/>
    <polygon id="path-3" points="0.465346535 46.3172901 176.89404 46.3172901 176.89404 -4.65346535e-05 0.465346535 -4.65346535e-05"/>
  </defs>
  <g id="desktop" stroke="none" stroke-width="1" fill="none" fill-rule="evenodd">
    <g id="MENU_desktop-Copy" transform="translate(-445.000000, -721.000000)">
      <g id="Group-53" transform="translate(445.000000, 721.000000)">
        <path d="M49.0820069,12.9029891 C49.9666307,13.4441871 51.0178485,13.7150188 52.235195,13.7150188 C52.9797495,13.7150188 53.6251851,13.6107812 54.1719673,13.4018406 C54.7182842,13.1933653 55.1724624,12.8583158 55.5331059,12.3957614 L55.6345515,13.4274347 L57.7146505,13.4274347 L57.7146505,6.59521683 L51.9992644,6.59521683 L51.9992644,8.89542475 L55.2455218,8.89542475 L55.2455218,8.94614752 C55.2455218,9.69023663 55.0030762,10.2733158 54.5186505,10.6963158 C54.0337594,11.1193158 53.3459772,11.3305832 52.455304,11.3305832 C51.4408485,11.3305832 50.6348683,10.9950683 50.0373634,10.3240386 C49.4398584,9.65347426 49.1411059,8.67531584 49.1411059,7.39002871 C49.1411059,6.13871188 49.4477693,5.18614752 50.0624921,4.53233564 C50.6772149,3.87852376 51.4915713,3.55138515 52.5060267,3.55138515 C53.1151653,3.55138515 53.6814921,3.66958317 54.2059376,3.90644455 C54.7299178,4.14330594 55.335799,4.56025644 56.0235812,5.15776139 L57.7486208,3.36524653 C56.9137891,2.55368218 56.0938485,1.97851386 55.2883337,1.64020693 C54.4818881,1.30236535 53.5544525,1.13297921 52.5060267,1.13297921 C51.2435416,1.13297921 50.1471851,1.40381089 49.2169574,1.94500891 C48.2867297,2.48574158 47.5770762,3.23308812 47.0861356,4.18565248 C46.5956604,5.13821683 46.3508881,6.21223663 46.3508881,7.40724653 C46.3508881,8.62459307 46.5844921,9.70978119 47.0526307,10.6628109 C47.520304,11.6153752 48.1969178,12.3617911 49.0820069,12.9029891" id="Fill-1" style="fill: rgb(255, 255, 255);"/>
        <path d="M62.4834287,13.7148327 C63.666805,13.7148327 64.5179238,13.3090505 65.0367851,12.4970208 L65.0367851,13.4272485 L67.3537455,13.4272485 L67.3537455,4.63359505 L64.8171416,4.63359505 L64.8171416,9.82546634 C64.8171416,10.3894663 64.6789337,10.8087436 64.4025178,11.0851594 C64.126102,11.3615752 63.7342802,11.4993178 63.2275178,11.4993178 C62.3587158,11.4993178 61.9250129,11.0544465 61.9250129,10.1637733 L61.9250129,4.63359505 L59.3888743,4.63359505 L59.3888743,10.8399218 C59.3888743,11.753397 59.6424881,12.4607238 60.1492505,12.9623673 C60.6564782,13.4635455 61.4345376,13.7148327 62.4834287,13.7148327" id="Fill-3" style="fill: rgb(255, 255, 255);"/>
        <path d="M71.7331218,7.23790693 C72.105399,6.78698614 72.5898248,6.56129307 73.187795,6.56129307 C73.7513297,6.56129307 74.2222604,6.78698614 74.5996564,7.23790693 C74.9775178,7.68882772 75.1659832,8.29238218 75.1659832,9.04717426 C75.1659832,9.79172871 74.9803099,10.3948178 74.608498,10.8569069 C74.2362208,11.3194614 73.7569139,11.5502733 73.1705772,11.5502733 C72.561904,11.5502733 72.0770129,11.3217881 71.7163693,10.8652832 C71.3552604,10.4087782 71.1756366,9.80289703 71.1756366,9.04717426 C71.1756366,8.29238218 71.3613099,7.68882772 71.7331218,7.23790693 M70.507399,13.1315208 C71.0993198,13.5089168 71.7670921,13.6978475 72.5111812,13.6978475 C73.7289931,13.6978475 74.6475871,13.2525109 75.2678941,12.3618376 L75.2678941,13.4274812 L77.6178941,13.4274812 L77.6178941,4.63336238 L75.0817554,4.63336238 L75.0817554,5.4286396 C74.4730822,4.72922376 73.6219634,4.37974851 72.5279337,4.37974851 C71.7726762,4.37974851 71.0993198,4.56867921 70.507399,4.94654059 C69.9154782,5.32440198 69.4533891,5.8656 69.1206663,6.57013465 C68.7879436,7.27466931 68.6218149,8.10019406 68.6218149,9.04717426 C68.6218149,9.98345149 68.7879436,10.8033921 69.1206663,11.5079267 C69.4533891,12.2124614 69.9154782,12.7541248 70.507399,13.1315208" id="Fill-5" style="fill: rgb(255, 255, 255);"/>
        <path d="M81.643095,5.88505149 L81.643095,4.63373465 L79.2921644,4.63373465 L79.2921644,13.4273881 L81.8287683,13.4273881 L81.8287683,9.2671901 C81.8287683,8.51193267 81.992105,7.9172198 82.3192436,7.48305149 C82.6463822,7.04934851 83.0912535,6.83203168 83.6552535,6.83203168 C83.9149168,6.83203168 84.297897,6.89392277 84.8051248,7.0181703 L85.2788475,4.78590297 C84.6701743,4.58301188 84.1908673,4.48156634 83.8418574,4.48156634 C82.8492733,4.48156634 82.1168178,4.9492396 81.643095,5.88505149" id="Fill-7" style="fill: rgb(255, 255, 255);"/>
        <path d="M91.4171871,10.8568604 C91.0449099,11.3194149 90.5660683,11.5502267 89.9797317,11.5502267 C89.3710584,11.5502267 88.8866327,11.3222069 88.5255238,10.8652366 C88.1648802,10.4087317 87.9843257,9.8028505 87.9843257,9.04712772 C87.9843257,8.29233564 88.1704644,7.68878119 88.5422762,7.2378604 C88.9145535,6.7869396 89.3989792,6.56171188 89.9964842,6.56171188 C90.5604842,6.56171188 91.0309495,6.7869396 91.4088109,7.2378604 C91.7866723,7.68878119 91.9751376,8.29233564 91.9751376,9.04712772 C91.9751376,9.79168218 91.7894644,10.3947713 91.4171871,10.8568604 L91.4171871,10.8568604 Z M91.8909099,5.42859307 C91.2817713,4.72964257 90.4311178,4.38016733 89.3370881,4.38016733 C88.5818307,4.38016733 87.9084743,4.56863267 87.3160881,4.94649406 C86.7246327,5.32435545 86.2620782,5.86555347 85.9298208,6.57008812 C85.597098,7.27462277 85.4309693,8.10014752 85.4309693,9.04712772 C85.4309693,9.98340495 85.597098,10.8033455 85.9298208,11.5078802 C86.2620782,12.2128802 86.7246327,12.7540782 87.3160881,13.1314743 C87.9084743,13.5088703 88.5767119,13.697801 89.3203356,13.697801 C90.5376822,13.697801 91.4567416,13.2524644 92.0770485,12.3617911 L92.0770485,13.4274347 L94.4275139,13.4274347 L94.4275139,4.63331584 L91.8909099,4.63331584 L91.8909099,5.42859307 Z" id="Fill-9" style="fill: rgb(255, 255, 255);"/>
        <path d="M101.056282,4.32925842 C100.481579,4.32925842 99.9710941,4.44233762 99.5262228,4.66756535 C99.0804208,4.89279307 98.7225693,5.19759505 98.452203,5.58057525 L98.452203,4.63359505 L96.1017376,4.63359505 L96.1017376,13.4272485 L98.6383416,13.4272485 L98.6383416,8.16790198 C98.6383416,7.66067426 98.7788762,7.26047624 99.0608762,6.96730792 C99.3424109,6.6741396 99.7202723,6.52755545 100.19353,6.52755545 C100.667252,6.52755545 101.031153,6.66576337 101.284767,6.94217921 C101.538381,7.2181297 101.665421,7.60995149 101.665421,8.11717921 L101.665421,13.4272485 L104.202025,13.4272485 L104.202025,7.4070604 C104.202025,6.47124851 103.925144,5.72436733 103.373243,5.16641683 C102.820876,4.60846634 102.048401,4.32925842 101.056282,4.32925842" id="Fill-11" style="fill: rgb(255, 255, 255);"/>
        <path d="M109.917876,11.431703 C109.647045,11.431703 109.441827,11.375396 109.300827,11.2627822 C109.159361,11.1501683 109.089094,10.9412277 109.089094,10.6368911 L109.089094,6.52741584 L111.068213,6.52741584 L111.068213,4.63345545 L109.089094,4.63345545 L109.089094,2.06288119 L106.552955,2.06288119 L106.552955,4.63345545 L105.013589,4.63345545 L105.013589,6.52741584 L106.552955,6.52741584 L106.552955,11.093396 C106.552955,11.9840693 106.755381,12.6327624 107.161163,13.0385446 C107.566946,13.4443267 108.243559,13.6472178 109.191005,13.6472178 C109.810847,13.6472178 110.481411,13.5401881 111.203163,13.3256634 L110.915579,11.2962871 C110.498163,11.3870297 110.165441,11.431703 109.917876,11.431703" id="Fill-13" style="fill: rgb(255, 255, 255);"/>
        <path d="M114.230056,7.98208911 C114.353839,7.47486139 114.579066,7.06861386 114.906205,6.76427723 C115.232878,6.45994059 115.661462,6.30777228 116.191492,6.30777228 C116.73269,6.30777228 117.155225,6.45435644 117.459561,6.74752475 C117.764363,7.04069307 117.944452,7.45205941 118.001225,7.98208911 L114.230056,7.98208911 Z M120.419165,8.77690099 C120.419165,7.379 120.058056,6.28822772 119.337235,5.50458416 C118.615482,4.72094059 117.578225,4.32911881 116.225462,4.32911881 C115.300819,4.32911881 114.497631,4.53480198 113.815433,4.94663366 C113.1337,5.358 112.614839,5.922 112.259779,6.63770297 C111.90472,7.35387129 111.726957,8.16264356 111.726957,9.06448515 C111.726957,10.000297 111.91868,10.8174455 112.30166,11.516396 C112.685571,12.2153465 113.231888,12.7570099 113.942472,13.1395248 C114.652591,13.5229703 115.486957,13.7146931 116.445106,13.7146931 C117.189195,13.7146931 117.879769,13.5881188 118.516829,13.3340396 C119.153423,13.0808911 119.78769,12.6495149 120.419165,12.0408416 L119.032433,10.4512178 C118.547542,10.857 118.125007,11.1441188 117.764363,11.313505 C117.403254,11.4824257 116.986304,11.5671188 116.513047,11.5671188 C115.869938,11.5671188 115.351542,11.4065743 114.956928,11.0850198 C114.562314,10.7639307 114.30265,10.3213861 114.179334,9.75785149 L120.38566,9.75785149 C120.407532,9.50982178 120.419165,9.18268317 120.419165,8.77690099 L120.419165,8.77690099 Z" id="Fill-15" style="fill: rgb(255, 255, 255);"/>
        <path d="M123.885532,7.98208911 C124.009779,7.47486139 124.235007,7.06861386 124.562146,6.76427723 C124.888819,6.45994059 125.317403,6.30777228 125.847433,6.30777228 C126.388631,6.30777228 126.811165,6.45435644 127.115502,6.74752475 C127.420304,7.04069307 127.599928,7.45205941 127.6567,7.98208911 L123.885532,7.98208911 Z M130.075106,8.77690099 C130.075106,7.379 129.713997,6.28822772 128.99271,5.50458416 C128.270957,4.72094059 127.234165,4.32911881 125.881403,4.32911881 C124.956759,4.32911881 124.153571,4.53480198 123.471373,4.94663366 C122.789641,5.358 122.270779,5.922 121.91572,6.63770297 C121.56066,7.35387129 121.382898,8.16264356 121.382898,9.06448515 C121.382898,10.000297 121.574621,10.8174455 121.957601,11.516396 C122.341512,12.2153465 122.887829,12.7570099 123.598413,13.1395248 C124.308532,13.5229703 125.142898,13.7146931 126.101047,13.7146931 C126.84467,13.7146931 127.53571,13.5881188 128.172769,13.3340396 C128.809363,13.0808911 129.443165,12.6495149 130.075106,12.0408416 L128.688373,10.4512178 C128.203482,10.857 127.780948,11.1441188 127.420304,11.313505 C127.059195,11.4824257 126.642245,11.5671188 126.168522,11.5671188 C125.525878,11.5671188 125.007482,11.4065743 124.612868,11.0850198 C124.218254,10.7639307 123.958591,10.3213861 123.835274,9.75785149 L130.041601,9.75785149 C130.063472,9.50982178 130.075106,9.18268317 130.075106,8.77690099 L130.075106,8.77690099 Z" id="Fill-17" style="fill: rgb(255, 255, 255);"/>
        <path d="M137.058841,10.8568604 C136.686563,11.3194149 136.207722,11.5502267 135.621385,11.5502267 C135.013177,11.5502267 134.528286,11.3222069 134.167177,10.8652366 C133.806534,10.4087317 133.625979,9.8028505 133.625979,9.04712772 C133.625979,8.29233564 133.812118,7.68878119 134.18393,7.2378604 C134.556207,6.7869396 135.040633,6.56171188 135.638138,6.56171188 C136.202138,6.56171188 136.672603,6.7869396 137.050464,7.2378604 C137.428326,7.68878119 137.616791,8.29233564 137.616791,9.04712772 C137.616791,9.79168218 137.431118,10.3947713 137.058841,10.8568604 L137.058841,10.8568604 Z M137.533029,1.42056337 L137.533029,5.42859307 C136.92389,4.72964257 136.072306,4.38016733 134.978742,4.38016733 C134.223484,4.38016733 133.550128,4.56863267 132.958207,4.94649406 C132.366286,5.32435545 131.903732,5.86555347 131.571474,6.57008812 C131.238751,7.27462277 131.072623,8.10014752 131.072623,9.04712772 C131.072623,9.98340495 131.238751,10.8033455 131.571474,11.5078802 C131.903732,12.2128802 132.366286,12.7540782 132.958207,13.1314743 C133.550128,13.5088703 134.218365,13.697801 134.961989,13.697801 C136.179336,13.697801 137.098395,13.2524644 137.718702,12.3617911 L137.718702,13.4274347 L140.069167,13.4274347 L140.069167,1.42056337 L137.533029,1.42056337 Z" id="Fill-19" style="fill: rgb(255, 255, 255);"/>
        <g id="Group-23" transform="translate(0.000000, 45.851944)">
          <mask id="mask-2" fill="white">
            <polygon points="0.465346535 0.232673267 0.698019802 0.232673267 0.698019802 0.465346535 0.465346535 0.465346535" transform="matrix(1, 0, 0, 1, 0, 0)"/>
          </mask>
          <g id="Clip-22"/>
          <path d="" id="Fill-21" mask="url(#mask-2)" style="fill: rgb(255, 255, 255);"/>
        </g>
        <path d="M52.8788624,26.2339574 L52.3795455,24.8267495 C51.642902,22.7782941 51.1384663,21.3208287 50.8662386,20.4529574 C50.7047634,20.9978782 50.4953574,21.6409871 50.2380208,22.3822842 C49.9806842,23.1240465 49.8019911,23.6461653 49.7010109,23.9491059 L49.3827139,24.8416406 L48.8838624,26.2339574 L52.8788624,26.2339574 Z M53.2874366,27.4145416 L48.4752881,27.4145416 L47.4915455,30.1535713 L46.0838723,30.1535713 L49.9732386,19.4087198 L51.8043772,19.4087198 L55.7086347,30.1535713 L54.2711792,30.1535713 L53.2874366,27.4145416 Z" id="Fill-24" style="fill: rgb(255, 255, 255);"/>
        <mask id="mask-4" fill="white">
          <polygon points="0.465346535 46.3172901 176.89404 46.3172901 176.89404 -4.65346535e-05 0.465346535 -4.65346535e-05" transform="matrix(1, 0, 0, 1, 0, 0)"/>
        </mask>
        <g id="Clip-27"/>
        <polygon id="Fill-26" mask="url(#mask-4)" points="56.9342178 30.1534782 58.2357921 30.1534782 58.2357921 19.4086267 56.9342178 19.4086267" style="fill: rgb(255, 255, 255);"/>
        <polygon id="Fill-28" mask="url(#mask-4)" points="60.2786634 30.1534782 61.5802376 30.1534782 61.5802376 19.4086267 60.2786634 19.4086267" style="fill: rgb(255, 255, 255);"/>
        <path d="M71.037801,30.032395 C70.5636129,30.2036426 70.0545238,30.2897317 69.509603,30.2897317 C68.8232168,30.2897317 68.3318109,30.1333752 68.0339891,29.8206624 C67.7361673,29.5079495 67.5877218,29.0435337 67.5877218,28.4283455 L67.5877218,23.6915832 L66.195405,23.6915832 L66.195405,22.7078406 L67.5877218,22.7078406 L67.5877218,20.2107911 L68.889296,20.2107911 L68.889296,22.7078406 L70.9019198,22.7078406 L70.9019198,23.6915832 L68.889296,23.6915832 L68.889296,28.2771079 C68.889296,28.6098307 68.9572366,28.8443653 69.0931178,28.9807119 C69.2294644,29.1165931 69.4542267,29.184999 69.7669396,29.184999 C70.0391673,29.184999 70.3970188,29.124504 70.8409594,29.0035139 L71.037801,30.032395 Z" id="Fill-29" mask="url(#mask-4)" style="fill: rgb(255, 255, 255);"/>
        <path d="M73.4895257,24.3725713 C73.065595,24.8970168 72.8538624,25.583403 72.8538624,26.4303337 C72.8538624,27.278195 73.065595,27.9641158 73.4895257,28.4890267 C73.9129911,29.0134723 74.4830406,29.2759277 75.1996743,29.2759277 C75.9158426,29.2759277 76.4882188,29.0134723 76.916803,28.4890267 C77.3458525,27.9641158 77.5603772,27.278195 77.5603772,26.4303337 C77.5603772,25.583403 77.3458525,24.8970168 76.916803,24.3725713 C76.4882188,23.8481257 75.9158426,23.5856703 75.1996743,23.5856703 C74.4830406,23.5856703 73.9129911,23.8481257 73.4895257,24.3725713 M77.1136446,22.9956109 C77.6739218,23.3283337 78.1104168,23.7922842 78.4231297,24.3879277 C78.7353772,24.9831059 78.8917337,25.6639079 78.8917337,26.4303337 C78.8917337,27.1976901 78.7353772,27.8784921 78.4231297,28.4736703 C78.1104168,29.0688485 77.6739218,29.532799 77.1136446,29.8659871 C76.5538327,30.1987099 75.9158426,30.365304 75.1996743,30.365304 C74.4830406,30.365304 73.8478426,30.1987099 73.2926842,29.8659871 C72.7379911,29.532799 72.3038228,29.0688485 71.9911099,28.4736703 C71.678397,27.8784921 71.5220406,27.1976901 71.5220406,26.4303337 C71.5220406,25.6639079 71.678397,24.9831059 71.9911099,24.3879277 C72.3038228,23.7922842 72.7379911,23.3283337 73.2926842,22.9956109 C73.8478426,22.6624228 74.4830406,22.4958287 75.1996743,22.4958287 C75.9158426,22.4958287 76.5538327,22.6624228 77.1136446,22.9956109" id="Fill-30" mask="url(#mask-4)" style="fill: rgb(255, 255, 255);"/>
        <path d="M85.1413376,28.2089812 C85.5447931,27.7096644 85.7467535,27.0660901 85.7467535,26.2796545 C85.7467535,25.4922881 85.5447931,24.8491792 85.1413376,24.3498624 C84.7378822,23.8505455 84.2083178,23.6006545 83.5526446,23.6006545 C82.8867337,23.6006545 82.3618228,23.8477535 81.9788426,24.3424168 C81.595397,24.8366149 81.4036743,25.4825158 81.4036743,26.2796545 C81.4036743,27.0763277 81.595397,27.7222287 81.9788426,28.2164267 C82.3618228,28.7110901 82.8867337,28.9577238 83.5526446,28.9577238 C84.2083178,28.9577238 84.7378822,28.708298 85.1413376,28.2089812 L85.1413376,28.2089812 Z M87.0027238,22.7081198 L87.0027238,29.9870703 C87.0027238,30.9554564 86.6974564,31.7121099 86.0869218,32.2570307 C85.4768525,32.8019515 84.6573772,33.0741792 83.6280307,33.0741792 C82.417199,33.0741792 81.2924564,32.7056248 80.2533376,31.9694465 L80.9043574,31.0164168 C81.4283376,31.338902 81.8932188,31.5785554 82.2966743,31.7349119 C82.7001297,31.8912683 83.1384861,31.9694465 83.6131396,31.9694465 C84.2385653,31.9694465 84.7453277,31.8005257 85.1334267,31.4626842 C85.5219911,31.1243772 85.7165059,30.5971396 85.7165059,29.8809713 L85.7165059,28.8520901 C85.2018327,29.6594663 84.4098129,30.0629218 83.3409119,30.0629218 C82.7052485,30.0629218 82.1398525,29.9014465 81.6456545,29.578496 C81.1514564,29.2555455 80.7656842,28.8064861 80.4883376,28.2313178 C80.2105257,27.6566149 80.0718525,27.0060604 80.0718525,26.2796545 C80.0718525,25.5527832 80.2105257,24.9022287 80.4883376,24.3270604 C80.7656842,23.7518921 81.1514564,23.303298 81.6456545,22.9803475 C82.1398525,22.657397 82.7052485,22.4959218 83.3409119,22.4959218 C84.4605356,22.4959218 85.2776842,22.9300901 85.7918921,23.797496 L85.7918921,22.7081198 L87.0027238,22.7081198 Z" id="Fill-31" mask="url(#mask-4)" style="fill: rgb(255, 255, 255);"/>
        <path d="M90.5591812,24.1001574 C90.1757356,24.4733653 89.9332901,25.003395 89.8323099,25.6893158 L94.1307158,25.6893158 C94.100003,25.0331772 93.9036267,24.5115238 93.5401911,24.1229594 C93.1772208,23.734395 92.677904,23.5403455 92.0422406,23.5403455 C91.4368248,23.5403455 90.9421614,23.7269495 90.5591812,24.1001574 L90.5591812,24.1001574 Z M95.4322901,28.8215634 C94.8966762,29.3869594 94.3801416,29.785296 93.8808248,30.0170386 C93.3810426,30.2492465 92.8142505,30.3651178 92.1781218,30.3651178 C91.4317059,30.3651178 90.7811515,30.2036426 90.2259931,29.8811574 C89.6713,29.5582069 89.2450426,29.1044941 88.9472208,28.5190881 C88.649399,27.9341475 88.5009535,27.2528802 88.5009535,26.4762168 C88.5009535,25.6995535 88.6470723,25.0108406 88.9402406,24.4105436 C89.2320129,23.8102465 89.6457059,23.3411772 90.1808545,23.0028703 C90.7155376,22.6650287 91.3409634,22.4961079 92.0571317,22.4961079 C93.1162604,22.4961079 93.9417851,22.8167317 94.5313792,23.4570485 C95.121904,24.0978307 95.4164683,24.9726822 95.4164683,26.0825337 C95.4164683,26.2844941 95.406696,26.4762168 95.3866861,26.657702 L89.7871713,26.657702 C89.8276564,27.4143554 90.0491614,28.0402465 90.4530822,28.5344446 C90.8565376,29.0286426 91.4368248,29.2757416 92.1934782,29.2757416 C92.6574287,29.2757416 93.0608842,29.184999 93.4038446,29.0035139 C93.7472703,28.8215634 94.1656168,28.4990782 94.6602802,28.0351277 L95.4322901,28.8215634 Z" id="Fill-32" mask="url(#mask-4)" style="fill: rgb(255, 255, 255);"/>
        <path d="M100.98541,30.032395 C100.511222,30.2036426 100.002133,30.2897317 99.4572119,30.2897317 C98.7708257,30.2897317 98.2794198,30.1333752 97.981598,29.8206624 C97.6837762,29.5079495 97.5353307,29.0435337 97.5353307,28.4283455 L97.5353307,23.6915832 L96.1430139,23.6915832 L96.1430139,22.7078406 L97.5353307,22.7078406 L97.5353307,20.2107911 L98.836905,20.2107911 L98.836905,22.7078406 L100.849529,22.7078406 L100.849529,23.6915832 L98.836905,23.6915832 L98.836905,28.2771079 C98.836905,28.6098307 98.9048455,28.8443653 99.0407267,28.9807119 C99.1770733,29.1165931 99.4018356,29.184999 99.7145485,29.184999 C99.9867762,29.184999 100.345093,29.124504 100.789034,29.0035139 L100.98541,30.032395 Z" id="Fill-33" mask="url(#mask-4)" style="fill: rgb(255, 255, 255);"/>
        <path d="M107.742474,23.2226069 C108.201306,23.7070327 108.430722,24.317102 108.430722,25.0537455 L108.430722,30.1534782 L107.129613,30.1534782 L107.129613,25.4623198 C107.129613,24.856904 106.983029,24.3952802 106.690326,24.0774485 C106.397623,23.7596168 105.974157,23.6004683 105.419464,23.6004683 C104.884316,23.6004683 104.430603,23.7847455 104.057395,24.1533 C103.684187,24.5213891 103.497583,24.9830129 103.497583,25.5377059 L103.497583,30.1534782 L102.196009,30.1534782 L102.196009,19.4086267 L103.497583,19.4086267 L103.497583,23.5553297 C103.739563,23.202597 104.057395,22.9378149 104.451078,22.7609832 C104.844296,22.5846168 105.283583,22.4957356 105.767544,22.4957356 C106.625177,22.4957356 107.283177,22.7381812 107.742474,23.2226069" id="Fill-34" mask="url(#mask-4)" style="fill: rgb(255, 255, 255);"/>
        <path d="M111.971962,24.1001574 C111.588517,24.4733653 111.346071,25.003395 111.245556,25.6893158 L115.543497,25.6893158 C115.51325,25.0331772 115.316408,24.5115238 114.953438,24.1229594 C114.590002,23.734395 114.090685,23.5403455 113.455487,23.5403455 C112.850071,23.5403455 112.355408,23.7269495 111.971962,24.1001574 L111.971962,24.1001574 Z M116.845071,28.8215634 C116.309923,29.3869594 115.793388,29.785296 115.294071,30.0170386 C114.794289,30.2492465 114.227032,30.3651178 113.590903,30.3651178 C112.844487,30.3651178 112.193933,30.2036426 111.63924,29.8811574 C111.084547,29.5582069 110.658289,29.1044941 110.360467,28.5190881 C110.062646,27.9341475 109.9142,27.2528802 109.9142,26.4762168 C109.9142,25.6995535 110.060319,25.0108406 110.353022,24.4105436 C110.645259,23.8102465 111.058952,23.3411772 111.594101,23.0028703 C112.128319,22.6650287 112.75421,22.4961079 113.470378,22.4961079 C114.529507,22.4961079 115.354566,22.8167317 115.944626,23.4570485 C116.534685,24.0978307 116.829715,24.9726822 116.829715,26.0825337 C116.829715,26.2844941 116.819477,26.4762168 116.799467,26.657702 L111.200418,26.657702 C111.240438,27.4143554 111.462408,28.0402465 111.865863,28.5344446 C112.269784,29.0286426 112.850071,29.2757416 113.606725,29.2757416 C114.07021,29.2757416 114.474131,29.184999 114.817091,29.0035139 C115.160051,28.8215634 115.578863,28.4990782 116.073061,28.0351277 L116.845071,28.8215634 Z" id="Fill-35" mask="url(#mask-4)" style="fill: rgb(255, 255, 255);"/>
        <path d="M122.625839,22.8440941 L122.383393,23.9339356 C122.020423,23.8329554 121.697472,23.782698 121.414542,23.782698 C120.900334,23.782698 120.481987,23.9944307 120.159037,24.417896 C119.836086,24.8418267 119.674611,25.4221139 119.674611,26.1582921 L119.674611,30.1537574 L118.373037,30.1537574 L118.373037,22.7082129 L119.598759,22.7082129 L119.598759,23.8427277 C119.770472,23.4699851 120.015245,23.1744901 120.333076,22.9576386 C120.650908,22.7407871 121.021324,22.6323614 121.445254,22.6323614 C121.808225,22.6323614 122.201908,22.7030941 122.625839,22.8440941" id="Fill-36" mask="url(#mask-4)" style="fill: rgb(255, 255, 255);"/>
        <path d="M132.204066,28.4584535 C132.59775,27.9442455 132.794591,27.268097 132.794591,26.4304733 C132.794591,25.5830772 132.59775,24.9022752 132.204066,24.387602 C131.810849,23.8729287 131.291056,23.6160574 130.645621,23.6160574 C129.9597,23.6160574 129.402215,23.8682752 128.973631,24.3727109 C128.544581,24.8771465 128.330056,25.5630673 128.330056,26.4304733 C128.330056,27.2983446 128.544581,27.9819386 128.973631,28.4812554 C129.402215,28.9805723 129.9597,29.2304634 130.645621,29.2304634 C131.291056,29.2304634 131.810849,28.9731267 132.204066,28.4584535 M132.5447,23.0027307 C133.044482,23.3308 133.432581,23.7896317 133.709928,24.3801564 C133.987274,24.9702158 134.126413,25.6538099 134.126413,26.4304733 C134.126413,27.207602 133.984482,27.891196 133.702482,28.4812554 C133.419551,29.0713149 133.02866,29.5306119 132.529344,29.8582158 C132.030027,30.1858198 131.467888,30.3500871 130.841997,30.3500871 C129.672116,30.3500871 128.824254,29.9061465 128.299809,29.0182653 L128.299809,30.1537109 L127.074551,30.1537109 L127.074551,19.4088594 L128.37566,19.4088594 L128.37566,23.7519386 C128.930353,22.9250178 129.752621,22.5113248 130.841997,22.5113248 C131.47766,22.5113248 132.045383,22.6751267 132.5447,23.0027307" id="Fill-37" mask="url(#mask-4)" style="fill: rgb(255, 255, 255);"/>
        <path d="M137.349263,24.1001574 C136.965818,24.4733653 136.723372,25.003395 136.622857,25.6893158 L140.920798,25.6893158 C140.89055,25.0331772 140.693709,24.5115238 140.330273,24.1229594 C139.967303,23.734395 139.467986,23.5403455 138.832788,23.5403455 C138.226907,23.5403455 137.732709,23.7269495 137.349263,24.1001574 L137.349263,24.1001574 Z M142.222372,28.8215634 C141.687224,29.3869594 141.170689,29.785296 140.671372,30.0170386 C140.17159,30.2492465 139.604333,30.3651178 138.968204,30.3651178 C138.221788,30.3651178 137.571234,30.2036426 137.016541,29.8811574 C136.461382,29.5582069 136.035125,29.1044941 135.737768,28.5190881 C135.439947,27.9341475 135.291036,27.2528802 135.291036,26.4762168 C135.291036,25.6995535 135.43762,25.0108406 135.730323,24.4105436 C136.02256,23.8102465 136.436253,23.3411772 136.971402,23.0028703 C137.50562,22.6650287 138.131046,22.4961079 138.847679,22.4961079 C139.906808,22.4961079 140.731867,22.8167317 141.321927,23.4570485 C141.911986,24.0978307 142.207016,24.9726822 142.207016,26.0825337 C142.207016,26.2844941 142.196778,26.4762168 142.176768,26.657702 L136.577719,26.657702 C136.617739,27.4143554 136.839709,28.0402465 137.243164,28.5344446 C137.647085,29.0286426 138.226907,29.2757416 138.984026,29.2757416 C139.447511,29.2757416 139.851432,29.184999 140.194392,29.0035139 C140.537352,28.8215634 140.955699,28.4990782 141.450362,28.0351277 L142.222372,28.8215634 Z" id="Fill-38" mask="url(#mask-4)" style="fill: rgb(255, 255, 255);"/>
        <path d="M147.775911,30.032395 C147.301723,30.2036426 146.792634,30.2897317 146.247713,30.2897317 C145.561327,30.2897317 145.069921,30.1333752 144.772099,29.8206624 C144.474277,29.5079495 144.325832,29.0435337 144.325832,28.4283455 L144.325832,23.6915832 L142.933515,23.6915832 L142.933515,22.7078406 L144.325832,22.7078406 L144.325832,20.2107911 L145.627406,20.2107911 L145.627406,22.7078406 L147.64003,22.7078406 L147.64003,23.6915832 L145.627406,23.6915832 L145.627406,28.2771079 C145.627406,28.6098307 145.695347,28.8443653 145.831228,28.9807119 C145.967574,29.1165931 146.192337,29.184999 146.50505,29.184999 C146.777277,29.184999 147.135594,29.124504 147.579535,29.0035139 L147.775911,30.032395 Z" id="Fill-39" mask="url(#mask-4)" style="fill: rgb(255, 255, 255);"/>
        <path d="M153.117856,30.032395 C152.643203,30.2036426 152.134114,30.2897317 151.589658,30.2897317 C150.903272,30.2897317 150.411401,30.1333752 150.114045,29.8206624 C149.816223,29.5079495 149.667312,29.0435337 149.667312,28.4283455 L149.667312,23.6915832 L148.27546,23.6915832 L148.27546,22.7078406 L149.667312,22.7078406 L149.667312,20.2107911 L150.968886,20.2107911 L150.968886,22.7078406 L152.98151,22.7078406 L152.98151,23.6915832 L150.968886,23.6915832 L150.968886,28.2771079 C150.968886,28.6098307 151.036827,28.8443653 151.173173,28.9807119 C151.30952,29.1165931 151.533817,29.184999 151.846995,29.184999 C152.119223,29.184999 152.477074,29.124504 152.921015,29.0035139 L153.117856,30.032395 Z" id="Fill-40" mask="url(#mask-4)" style="fill: rgb(255, 255, 255);"/>
        <path d="M155.659998,24.1001574 C155.276552,24.4733653 155.034107,25.003395 154.933592,25.6893158 L159.231533,25.6893158 C159.20082,25.0331772 159.004444,24.5115238 158.641008,24.1229594 C158.278038,23.734395 157.778721,23.5403455 157.143523,23.5403455 C156.537642,23.5403455 156.042978,23.7269495 155.659998,24.1001574 L155.659998,24.1001574 Z M160.533107,28.8215634 C159.997958,29.3869594 159.480958,29.785296 158.982107,30.0170386 C158.482325,30.2492465 157.915067,30.3651178 157.278939,30.3651178 C156.532523,30.3651178 155.881968,30.2036426 155.32681,29.8811574 C154.772117,29.5582069 154.345859,29.1044941 154.048503,28.5190881 C153.750216,27.9341475 153.60177,27.2528802 153.60177,26.4762168 C153.60177,25.6995535 153.748354,25.0108406 154.041057,24.4105436 C154.333295,23.8102465 154.746523,23.3411772 155.282137,23.0028703 C155.816354,22.6650287 156.44178,22.4961079 157.158414,22.4961079 C158.217543,22.4961079 159.042602,22.8167317 159.632196,23.4570485 C160.222721,24.0978307 160.517285,24.9726822 160.517285,26.0825337 C160.517285,26.2844941 160.507513,26.4762168 160.487503,26.657702 L154.888453,26.657702 C154.928473,27.4143554 155.150444,28.0402465 155.553899,28.5344446 C155.95782,29.0286426 156.537642,29.2757416 157.29476,29.2757416 C157.758246,29.2757416 158.161701,29.184999 158.504661,29.0035139 C158.848087,28.8215634 159.266434,28.4990782 159.761097,28.0351277 L160.533107,28.8215634 Z" id="Fill-41" mask="url(#mask-4)" style="fill: rgb(255, 255, 255);"/>
        <path d="M166.313874,22.8440941 L166.071429,23.9339356 C165.708458,23.8329554 165.385508,23.782698 165.102577,23.782698 C164.588835,23.782698 164.170023,23.9944307 163.847072,24.417896 C163.524122,24.8418267 163.362647,25.4221139 163.362647,26.1582921 L163.362647,30.1537574 L162.061072,30.1537574 L162.061072,22.7082129 L163.28726,22.7082129 L163.28726,23.8427277 C163.458508,23.4699851 163.70328,23.1744901 164.021112,22.9576386 C164.338944,22.7407871 164.709825,22.6323614 165.13329,22.6323614 C165.49626,22.6323614 165.889944,22.7030941 166.313874,22.8440941" id="Fill-42" mask="url(#mask-4)" style="fill: rgb(255, 255, 255);"/>
        <path d="M25.7133277,11.4210465 C25.7133277,15.338799 22.5373376,18.5152545 18.6191198,18.5152545 C14.7013673,18.5152545 11.5253772,15.338799 11.5253772,11.4210465 C11.5253772,7.50329406 14.7013673,4.32683861 18.6191198,4.32683861 C22.5373376,4.32683861 25.7133277,7.50329406 25.7133277,11.4210465 M7.94081287,18.9368584 C9.29497129,20.2812446 10.9767337,21.2738287 12.8567337,21.7433634 L24.3815059,21.7438287 L24.3815059,39.9937891 L12.8567337,39.9937891 L12.8567337,21.7438287 C4.57635743,21.7438287 0.465486139,25.8239871 0.465486139,31.9898287 C0.465486139,40.6764525 9.14792178,46.3173832 18.6758921,46.3173832 C28.2243376,46.3173832 38.3288723,38.838799 38.3288723,24.6769079 L38.3288723,4.65346535e-05 L15.9973574,4.65346535e-05 C6.1380604,4.65346535e-05 0.942931683,11.991096 7.94081287,18.9368584" id="Fill-43" mask="url(#mask-4)" style="fill: rgb(255, 255, 255);"/>
        <polygon id="Fill-44" mask="url(#mask-4)" points="144.171802 13.4275277 146.911297 13.4275277 146.911297 1.42065644 144.171802 1.42065644" style="fill: rgb(255, 255, 255);"/>
        <path d="M151.307798,5.88505149 L151.307798,4.63373465 L148.957333,4.63373465 L148.957333,13.4273881 L151.493937,13.4273881 L151.493937,9.2671901 C151.493937,8.51193267 151.657273,7.9172198 151.984412,7.48305149 C152.311085,7.04934851 152.756422,6.83203168 153.319956,6.83203168 C153.57962,6.83203168 153.9626,6.89392277 154.470293,7.0181703 L154.94355,4.78590297 C154.335343,4.58301188 153.85557,4.48156634 153.50656,4.48156634 C152.514442,4.48156634 151.781521,4.9492396 151.307798,5.88505149" id="Fill-45" mask="url(#mask-4)" style="fill: rgb(255, 255, 255);"/>
        <polygon id="Fill-46" mask="url(#mask-4)" points="155.823149 13.4275277 158.359752 13.4275277 158.359752 4.63387426 155.823149 4.63387426" style="fill: rgb(255, 255, 255);"/>
        <path d="M166.130295,8.55693168 C165.63982,8.33170396 164.972048,8.12322871 164.126048,7.93104059 C163.697463,7.84122871 163.328444,7.75653564 163.018523,7.67742673 C162.708137,7.59878317 162.496869,7.51688218 162.384255,7.43265446 C162.271642,7.34796139 162.215335,7.22697129 162.215335,7.06875347 C162.215335,6.85469406 162.330741,6.68577327 162.562018,6.56152574 C162.79283,6.43774356 163.106008,6.37538713 163.500622,6.37538713 C163.962711,6.37538713 164.394087,6.44565446 164.794285,6.58665446 C165.194018,6.7281198 165.636562,6.9901099 166.121453,7.37355545 L167.457929,5.74949604 C166.837622,5.23156535 166.225691,4.86487228 165.622602,4.65034752 C165.019513,4.43675347 164.334988,4.32925842 163.568097,4.32925842 C162.790038,4.32925842 162.116216,4.46188218 161.547097,4.72666436 C160.977978,4.99144653 160.54381,5.34976337 160.245523,5.80068416 C159.946305,6.25160495 159.797394,6.7420802 159.797394,7.27164455 C159.797394,7.75653564 159.896048,8.16231782 160.092889,8.48945644 C160.290196,8.81659505 160.622919,9.09580297 161.091057,9.32661485 C161.558731,9.55742673 162.209285,9.76869406 163.044117,9.96088218 L163.568097,10.0790802 C164.131632,10.1916941 164.526246,10.2987238 164.751939,10.4001693 C164.977166,10.5016149 165.090246,10.671001 165.090246,10.9078624 C165.090246,11.1442584 164.965998,11.330397 164.718434,11.4658129 C164.470404,11.6012287 164.154434,11.668704 163.770988,11.668704 C163.240958,11.668704 162.762117,11.5840109 162.333998,11.4150901 C161.904949,11.245704 161.380968,10.9134465 160.761127,10.4173871 L159.323671,12.0237634 C160.022622,12.6440703 160.715523,13.0810307 161.40377,13.3341792 C162.091087,13.5882584 162.851929,13.7148327 163.68676,13.7148327 C164.498325,13.7148327 165.194018,13.5882584 165.77477,13.3341792 C166.355523,13.0810307 166.798067,12.7315554 167.102404,12.2857535 C167.406741,11.8408822 167.558909,11.3359812 167.558909,10.7724465 C167.558909,10.2200802 167.443038,9.76869406 167.212226,9.41968416 C166.981414,9.07020891 166.62077,8.78262475 166.130295,8.55693168" id="Fill-47" mask="url(#mask-4)" style="fill: rgb(255, 255, 255);"/>
        <path d="M173.74853,4.32925842 C172.745243,4.32925842 171.938797,4.6731495 171.330589,5.36093168 L171.330589,1.42037723 L168.793985,1.42037723 L168.793985,13.4272485 L171.330589,13.4272485 L171.330589,8.20187228 C171.330589,7.69417921 171.473916,7.28839703 171.761035,6.98452574 C172.049084,6.67972376 172.423688,6.52802079 172.885777,6.52802079 C173.3595,6.52802079 173.722936,6.66855545 173.97655,6.95055545 C174.230163,7.23255545 174.357203,7.63275347 174.357203,8.1511495 L174.357203,13.4272485 L176.893807,13.4272485 L176.893807,7.4070604 C176.893807,6.47124851 176.617391,5.72436733 176.06549,5.16641683 C175.512658,4.60846634 174.740183,4.32925842 173.74853,4.32925842" id="Fill-48" mask="url(#mask-4)" style="fill: rgb(255, 255, 255);"/>
        <path d="M158.490701,2.13319505 C158.490701,2.90613564 157.864345,3.53249208 157.091404,3.53249208 C156.318463,3.53249208 155.692107,2.90613564 155.692107,2.13319505 C155.692107,1.36025446 156.318463,0.73389802 157.091404,0.73389802 C157.864345,0.73389802 158.490701,1.36025446 158.490701,2.13319505" id="Fill-49" mask="url(#mask-4)" style="fill: rgb(255, 255, 255);"/>
        <path d="" id="Fill-50" mask="url(#mask-4)" style="fill: rgb(255, 255, 255);"/>
        <path d="" id="Fill-51" mask="url(#mask-4)" style="fill: rgb(255, 255, 255);"/>
        <path d="" id="Fill-52" mask="url(#mask-4)" style="fill: rgb(255, 255, 255);"/>
      </g>
    </g>
  </g>
</svg>
