<?xml version="1.0" encoding="utf-8"?>
<svg width="57px" height="61px" viewBox="0 0 57 61" version="1.1" xmlns="http://www.w3.org/2000/svg">
  <title>Group 32</title>
  <defs>
    <polygon id="path-1" points="0.146083832 0.0990898204 38.8343713 0.0990898204 38.8343713 47.4250778 0.146083832 47.4250778"/>
    <polygon id="path-3" points="0 0.319041916 6.80256287 0.319041916 6.80256287 7.82867066 0 7.82867066"/>
    <polygon id="path-5" points="0 59.6809581 56.0798802 59.6809581 56.0798802 0.359281437 0 0.359281437"/>
  </defs>
  <g id="desktop" stroke="none" stroke-width="1" fill="none" fill-rule="evenodd">
    <g id="Homepage" transform="translate(-27.000000, -526.000000)">
      <g id="Group-32" transform="translate(27.000000, 526.000000)">
        <g id="Group-3" transform="translate(17.245509, 12.255808)">
          <mask id="mask-2" fill="white">
            <polygon points="0.146083832 0.0990898204 38.8343713 0.0990898204 38.8343713 47.4250778 0.146083832 47.4250778" transform="matrix(1, 0, 0, 1, 0, 0)"/>
          </mask>
          <g id="Clip-2"/>
          <path d="M25.9439281,11.7689102 C25.9439281,15.7723832 22.6988982,19.0174132 18.6954251,19.0174132 C14.6923114,19.0174132 11.4465629,15.7723832 11.4465629,11.7689102 C11.4465629,7.76543713 14.6923114,4.52040719 18.6954251,4.52040719 C22.6988982,4.52040719 25.9439281,7.76543713 25.9439281,11.7689102 M7.78440719,19.4485509 C9.16835928,20.8217246 10.8868024,21.8363353 12.807521,22.3156168 L24.5833293,22.3163353 L24.5833293,40.9641198 L12.807521,40.9641198 L12.807521,22.3163353 C4.3468024,22.3163353 0.146083832,26.4854371 0.146083832,32.7857964 C0.146083832,41.661485 9.01817964,47.4250778 18.7532695,47.4250778 C28.5095569,47.4250778 38.8345868,39.7838802 38.8345868,25.3138204 L38.8345868,0.0990898204 L16.0166228,0.0990898204 C5.94201198,0.0990898204 0.634347305,12.3513054 7.78440719,19.4485509" id="Fill-1" mask="url(#mask-2)" style="fill: rgb(255, 255, 255);"/>
        </g>
        <g id="Group-6" transform="translate(0.000000, 0.040240)">
          <mask id="mask-4" fill="white">
            <polygon points="0 0.319041916 6.80256287 0.319041916 6.80256287 7.82867066 0 7.82867066" transform="matrix(1, 0, 0, 1, 0, 0)"/>
          </mask>
          <g id="Clip-5"/>
          <path d="M1.62998802,7.344 C2.15813174,7.66699401 2.78579641,7.82867066 3.51226347,7.82867066 C3.95669461,7.82867066 4.34184431,7.76651497 4.66807186,7.64184431 C4.9942994,7.51717365 5.2651976,7.31741317 5.48076647,7.04148503 L5.54112575,7.65693413 L6.7828024,7.65693413 L6.7828024,3.57908982 L3.37106587,3.57908982 L3.37106587,4.95190419 L5.30902994,4.95190419 L5.30902994,4.98244311 C5.30902994,5.42651497 5.16423952,5.77465868 4.87501796,6.02687425 C4.58579641,6.2794491 4.17513772,6.40555689 3.6434012,6.40555689 C3.03801198,6.40555689 2.55693413,6.20543713 2.20016766,5.80483832 C1.84376048,5.4045988 1.66555689,4.82076647 1.66555689,4.0537006 C1.66555689,3.30675449 1.84843114,2.73837126 2.21561677,2.34783234 C2.58208383,1.95765269 3.06819162,1.76220359 3.67394012,1.76220359 C4.03717365,1.76220359 4.37561677,1.83334132 4.6885509,1.97453892 C5.00112575,2.11573653 5.36292216,2.36471856 5.77322156,2.72148503 L6.80256287,1.65154491 C6.30495808,1.16687425 5.81525749,0.823760479 5.33453892,0.621844311 C4.8531018,0.420287425 4.29980838,0.31897006 3.67394012,0.31897006 C2.92016766,0.31897006 2.26627545,0.480646707 1.71082635,0.803640719 C1.15573653,1.12663473 0.731784431,1.57250299 0.439329341,2.14088623 C0.146155689,2.70962874 -7.18562874e-05,3.35058683 -7.18562874e-05,4.06376048 C-7.18562874e-05,4.79058683 0.139688623,5.43801198 0.418850299,6.00675449 C0.698011976,6.57549701 1.10148503,7.02136527 1.62998802,7.344" id="Fill-4" mask="url(#mask-4)" style="fill: rgb(255, 255, 255);"/>
        </g>
        <path d="M9.62888623,7.86898204 C10.3352335,7.86898204 10.8432575,7.62682635 11.1529581,7.14215569 L11.1529581,7.69724551 L12.5354731,7.69724551 L12.5354731,2.44886228 L11.0218204,2.44886228 L11.0218204,5.54766467 C11.0218204,5.8839521 10.9388263,6.13437126 10.7742754,6.29928144 C10.6093653,6.46419162 10.3754731,6.54646707 10.0725988,6.54646707 C9.55451497,6.54646707 9.29547305,6.28095808 9.29547305,5.74922156 L9.29547305,2.44886228 L7.78146108,2.44886228 L7.78146108,6.15305389 C7.78146108,6.69808383 7.93307784,7.1205988 8.2359521,7.41988024 C8.53882635,7.71916168 9.00301796,7.86898204 9.62888623,7.86898204" id="Fill-7" style="fill: rgb(255, 255, 255);"/>
        <path d="M15.1496766,4.00300599 C15.3717126,3.73390419 15.6609341,3.59917365 16.0177006,3.59917365 C16.3543473,3.59917365 16.6349461,3.73390419 16.8605749,4.00300599 C17.0862036,4.27246707 17.1986587,4.63210778 17.1986587,5.08300599 C17.1986587,5.52743713 17.0876407,5.88707784 16.8656048,6.16300599 C16.6432096,6.43893413 16.3572216,6.5768982 16.0076407,6.5768982 C15.6444072,6.5768982 15.3548263,6.44073054 15.1396168,6.16803593 C14.9240479,5.8957006 14.8166228,5.53390419 14.8166228,5.08300599 C14.8166228,4.63210778 14.9276407,4.27246707 15.1496766,4.00300599 M14.4181796,7.52073054 C14.770994,7.746 15.1701557,7.85881437 15.6142275,7.85881437 C16.3406946,7.85881437 16.8889581,7.59294611 17.2593772,7.06156886 L17.2593772,7.69713772 L18.662012,7.69713772 L18.662012,2.44875449 L17.148,2.44875449 L17.148,2.92300599 C16.7847665,2.50588024 16.2767425,2.29713772 15.6239281,2.29713772 C15.1730299,2.29713772 14.770994,2.4099521 14.4181796,2.63522156 C14.0646467,2.8608503 13.7887186,3.18384431 13.5900359,3.60456287 C13.3917126,4.02528144 13.2925509,4.51785629 13.2925509,5.08300599 C13.2925509,5.64168862 13.3917126,6.13102994 13.5900359,6.5517485 C13.7887186,6.97246707 14.0646467,7.29546108 14.4181796,7.52073054" id="Fill-9" style="fill: rgb(255, 255, 255);"/>
        <path d="M21.064491,3.19566467 L21.064491,2.44871856 L19.661497,2.44871856 L19.661497,7.6971018 L21.175509,7.6971018 L21.175509,5.21446707 C21.175509,4.76356886 21.2728743,4.4085988 21.4679641,4.1491976 C21.6630539,3.89051497 21.9289222,3.76081437 22.2655689,3.76081437 C22.4200599,3.76081437 22.6489222,3.79782036 22.9517964,3.87183234 L23.2345509,2.53961677 C22.8709581,2.41853892 22.5849701,2.35782036 22.3762275,2.35782036 C21.784491,2.35782036 21.3468862,2.63698204 21.064491,3.19566467" id="Fill-11" style="fill: rgb(255, 255, 255);"/>
        <path d="M26.8982874,6.16307784 C26.6762515,6.43900599 26.3902635,6.57697006 26.0403234,6.57697006 C25.6770898,6.57697006 25.387509,6.4408024 25.1722994,6.16810778 C24.9570898,5.89541317 24.8493054,5.53397605 24.8493054,5.08307784 C24.8493054,4.63217964 24.9603234,4.27217964 25.1823593,4.00307784 C25.4043952,3.73397605 25.6932575,3.59924551 26.0503832,3.59924551 C26.3866707,3.59924551 26.6676287,3.73397605 26.8932575,4.00307784 C27.1185269,4.27217964 27.2313413,4.63217964 27.2313413,5.08307784 C27.2313413,5.5271497 27.1203234,5.8871497 26.8982874,6.16307784 L26.8982874,6.16307784 Z M27.1806826,2.92307784 C26.8174491,2.5059521 26.3094251,2.29720958 25.6566108,2.29720958 C25.2060719,2.29720958 24.8040359,2.41002395 24.4508623,2.63529341 C24.0973293,2.86092216 23.8214012,3.18391617 23.6230778,3.60427545 C23.4243952,4.02499401 23.3252335,4.51756886 23.3252335,5.08307784 C23.3252335,5.64176048 23.4243952,6.1311018 23.6230778,6.55182036 C23.8214012,6.97217964 24.0973293,7.29517365 24.4508623,7.52044311 C24.8040359,7.74607186 25.202479,7.85888623 25.6469102,7.85888623 C26.3733772,7.85888623 26.9216407,7.59301796 27.2920599,7.06128144 L27.2920599,7.69720958 L28.6946946,7.69720958 L28.6946946,2.44882635 L27.1806826,2.44882635 L27.1806826,2.92307784 Z" id="Fill-13" style="fill: rgb(255, 255, 255);"/>
        <path d="M32.6513174,2.26713772 C32.3082036,2.26713772 32.0035329,2.33432335 31.738024,2.46905389 C31.4721557,2.60378443 31.2583832,2.78522156 31.0970659,3.01408383 L31.0970659,2.44857485 L29.6940719,2.44857485 L29.6940719,7.69731737 L31.2077246,7.69731737 L31.2077246,4.55827545 C31.2077246,4.2554012 31.2921557,4.01683832 31.4606587,3.84150898 C31.6284431,3.6668982 31.8537126,3.57923353 32.1364671,3.57923353 C32.4192216,3.57923353 32.6362275,3.66150898 32.7878443,3.82641916 C32.9391018,3.99132934 33.0149102,4.22522156 33.0149102,4.52773653 L33.0149102,7.69731737 L34.5289222,7.69731737 L34.5289222,4.10414371 C34.5289222,3.54546108 34.3636527,3.09959281 34.0341916,2.76653892 C33.7043713,2.43348503 33.2430539,2.26713772 32.6513174,2.26713772" id="Fill-15" style="fill: rgb(255, 255, 255);"/>
        <path d="M37.9402275,6.50622754 C37.7789102,6.50622754 37.6560359,6.47281437 37.5719641,6.40526946 C37.4875329,6.33808383 37.4458563,6.21341317 37.4458563,6.03197605 L37.4458563,3.57916168 L38.6268144,3.57916168 L38.6268144,2.44886228 L37.4458563,2.44886228 L37.4458563,0.914371257 L35.9318443,0.914371257 L35.9318443,2.44886228 L35.013521,2.44886228 L35.013521,3.57916168 L35.9318443,3.57916168 L35.9318443,6.30431138 C35.9318443,6.8360479 36.0529222,7.22299401 36.2950778,7.4651497 C36.5375928,7.70730539 36.9414251,7.82838323 37.5062156,7.82838323 C37.8762754,7.82838323 38.2768743,7.76443114 38.7076527,7.63652695 L38.5359162,6.42538922 C38.2869341,6.47928144 38.0882515,6.50622754 37.9402275,6.50622754" id="Fill-17" style="fill: rgb(255, 255, 255);"/>
        <path d="M40.5141198,4.44718563 C40.5877725,4.14431138 40.722503,3.90215569 40.9175928,3.72071856 C41.1126826,3.53892216 41.368491,3.44802395 41.685018,3.44802395 C42.0076527,3.44802395 42.2598683,3.53532934 42.4416647,3.7102994 C42.6234611,3.88562874 42.7312455,4.13101796 42.765018,4.44718563 L40.5141198,4.44718563 Z M44.2078922,4.92143713 C44.2078922,4.08754491 43.9926826,3.43652695 43.5619042,2.96838323 C43.131485,2.50095808 42.5124431,2.26706587 41.7047784,2.26706587 C41.1532814,2.26706587 40.6736407,2.38994012 40.2669341,2.63532934 C39.8598683,2.88107784 39.5501677,3.21772455 39.3381916,3.64491018 C39.1262156,4.07209581 39.0202275,4.55497006 39.0202275,5.09317365 C39.0202275,5.65185629 39.134479,6.1394012 39.3633413,6.55688623 C39.5922036,6.97401198 39.9187904,7.29700599 40.3423832,7.52550898 C40.7663353,7.75437126 41.2642994,7.86898204 41.8362754,7.86898204 C42.2803473,7.86898204 42.6924431,7.79317365 43.0725629,7.64191617 C43.4526826,7.4902994 43.831006,7.23305389 44.2078922,6.86946108 L43.3808263,5.92095808 C43.0912455,6.16311377 42.8390299,6.33449102 42.6234611,6.43580838 C42.4078922,6.53640719 42.1592695,6.58706587 41.876515,6.58706587 C41.4931617,6.58706587 41.1834611,6.49113772 40.9481317,6.29928144 C40.7124431,6.10742515 40.5575928,5.84371257 40.4835808,5.50706587 L44.1881317,5.50706587 C44.2014251,5.35904192 44.2078922,5.1639521 44.2078922,4.92143713 L44.2078922,4.92143713 Z" id="Fill-19" style="fill: rgb(255, 255, 255);"/>
        <path d="M46.276994,4.44718563 C46.351006,4.14431138 46.4857365,3.90215569 46.6808263,3.72071856 C46.8759162,3.53892216 47.1317246,3.44802395 47.4478922,3.44802395 C47.7708862,3.44802395 48.0231018,3.53532934 48.2048982,3.7102994 C48.3866946,3.88562874 48.4941198,4.13101796 48.5282515,4.44718563 L46.276994,4.44718563 Z M49.9711257,4.92143713 C49.9711257,4.08754491 49.7559162,3.43652695 49.3251377,2.96838323 C48.8943593,2.50095808 48.2756766,2.26706587 47.468012,2.26706587 C46.9161557,2.26706587 46.4368743,2.38994012 46.0301677,2.63532934 C45.6227425,2.88107784 45.3130419,3.21772455 45.1014251,3.64491018 C44.8894491,4.07209581 44.7834611,4.55497006 44.7834611,5.09317365 C44.7834611,5.65185629 44.8977126,6.1394012 45.1265749,6.55688623 C45.3554371,6.97401198 45.6816647,7.29700599 46.1056168,7.52550898 C46.5295689,7.75437126 47.0275329,7.86898204 47.599509,7.86898204 C48.0435808,7.86898204 48.4553174,7.79317365 48.8357964,7.64191617 C49.2159162,7.4902994 49.5942395,7.23305389 49.9711257,6.86946108 L49.1437006,5.92095808 C48.854479,6.16311377 48.6019042,6.33449102 48.3866946,6.43580838 C48.1711257,6.53640719 47.9221437,6.58706587 47.6397485,6.58706587 C47.2563952,6.58706587 46.9466946,6.49113772 46.7113653,6.29928144 C46.4756766,6.10742515 46.3208263,5.84371257 46.2468144,5.50706587 L49.9513653,5.50706587 C49.9646587,5.35904192 49.9711257,5.1639521 49.9711257,4.92143713 L49.9711257,4.92143713 Z" id="Fill-21" style="fill: rgb(255, 255, 255);"/>
        <path d="M54.1397964,6.16307784 C53.9177605,6.43900599 53.6314132,6.57697006 53.2814731,6.57697006 C52.9185988,6.57697006 52.629018,6.4408024 52.4134491,6.16810778 C52.1982395,5.89541317 52.0908144,5.53397605 52.0908144,5.08307784 C52.0908144,4.63217964 52.2014731,4.27217964 52.4238683,4.00307784 C52.6459042,3.73397605 52.9347665,3.59924551 53.2918922,3.59924551 C53.6281796,3.59924551 53.9091377,3.73397605 54.1344072,4.00307784 C54.3600359,4.27217964 54.4728503,4.63217964 54.4728503,5.08307784 C54.4728503,5.5271497 54.3618323,5.8871497 54.1397964,6.16307784 L54.1397964,6.16307784 Z M54.4221916,0.530982036 L54.4221916,2.92307784 C54.0585988,2.5059521 53.5509341,2.29720958 52.8981198,2.29720958 C52.4472216,2.29720958 52.0455449,2.41002395 51.6923713,2.63529341 C51.3388383,2.86092216 51.0629102,3.18391617 50.8645868,3.60427545 C50.6659042,4.02499401 50.5667425,4.51756886 50.5667425,5.08307784 C50.5667425,5.64176048 50.6659042,6.1311018 50.8645868,6.55182036 C51.0629102,6.97217964 51.3388383,7.29517365 51.6923713,7.52044311 C52.0455449,7.74607186 52.443988,7.85888623 52.8884192,7.85888623 C53.6148862,7.85888623 54.1631497,7.59301796 54.5335689,7.06128144 L54.5335689,7.69720958 L55.9362036,7.69720958 L55.9362036,0.530982036 L54.4221916,0.530982036 Z" id="Fill-23" style="fill: rgb(255, 255, 255);"/>
        <mask id="mask-6" fill="white">
          <polygon points="0 59.6809581 56.0798802 59.6809581 56.0798802 0.359281437 0 0.359281437" transform="matrix(1, 0, 0, 1, 0, 0)"/>
        </mask>
        <g id="Clip-26"/>
        <polygon id="Fill-25" mask="url(#mask-6)" points="0.646347305 17.6802395 2.28143713 17.6802395 2.28143713 10.514012 0.646347305 10.514012" style="fill: rgb(255, 255, 255);"/>
        <path d="M4.90559281,13.1787305 L4.90559281,12.4317844 L3.50295808,12.4317844 L3.50295808,17.6801677 L5.01697006,17.6801677 L5.01697006,15.1975329 C5.01697006,14.7466347 5.11433533,14.3916647 5.30942515,14.1322635 C5.50451497,13.8735808 5.77038323,13.7438802 6.10702994,13.7438802 C6.26152096,13.7438802 6.49038323,13.7808862 6.79325749,13.8548982 L7.07601198,12.5226826 C6.71241916,12.4016048 6.42607186,12.3408862 6.21768862,12.3408862 C5.6259521,12.3408862 5.18834731,12.6200479 4.90559281,13.1787305" id="Fill-27" mask="url(#mask-6)" style="fill: rgb(255, 255, 255);"/>
        <polygon id="Fill-28" mask="url(#mask-6)" points="7.6005988 17.6802395 9.11461078 17.6802395 9.11461078 12.4318563 7.6005988 12.4318563" style="fill: rgb(255, 255, 255);"/>
        <path d="M13.7525749,14.7733653 C13.4601198,14.6386347 13.0609581,14.5143234 12.5565269,14.3997126 C12.3007186,14.3461796 12.080479,14.295521 11.8954491,14.2484551 C11.7100599,14.2017485 11.5839521,14.1525269 11.5167665,14.1022275 C11.4495808,14.0515689 11.4158084,13.9793533 11.4158084,13.8852216 C11.4158084,13.7573174 11.4847904,13.6567186 11.6227545,13.5823473 C11.7607186,13.5083353 11.9475449,13.4713293 12.1832335,13.4713293 C12.4588024,13.4713293 12.7160479,13.5133653 12.9549701,13.5974371 C13.1938922,13.6818683 13.4583234,13.8381557 13.7471856,14.067018 L14.5447904,13.0976766 C14.1747305,12.7883353 13.8097006,12.5698922 13.4497006,12.4416287 C13.0897006,12.3140838 12.6808383,12.2501317 12.2231138,12.2501317 C11.7589222,12.2501317 11.3568862,12.3291737 11.0173653,12.4872575 C10.6771257,12.6453413 10.4184431,12.8591138 10.2402395,13.1282156 C10.0620359,13.3973174 9.97257485,13.6901317 9.97257485,14.0062994 C9.97257485,14.295521 10.031497,14.5380359 10.1493413,14.7331257 C10.2668263,14.9282156 10.465509,15.0949222 10.7446707,15.2325269 C11.0238323,15.370491 11.4122156,15.4969581 11.9105389,15.6112096 L12.2231138,15.6816287 C12.5597605,15.7491737 12.7950898,15.8131257 12.9298204,15.8738443 C13.0645509,15.9338443 13.1317365,16.0351617 13.1317365,16.1763593 C13.1317365,16.3175569 13.0573653,16.4285749 12.9097006,16.5094132 C12.7616766,16.5902515 12.5734132,16.630491 12.3445509,16.630491 C12.028024,16.630491 11.7420359,16.5801916 11.4865868,16.4792335 C11.2304192,16.3782754 10.9178443,16.1799521 10.5477844,15.8835449 L9.68982036,16.8424671 C10.1073054,17.2128862 10.5208383,17.4733653 10.9311377,17.624982 C11.3417964,17.7762395 11.7962874,17.8520479 12.2938922,17.8520479 C12.7785629,17.8520479 13.1938922,17.7762395 13.5405988,17.624982 C13.8869461,17.4733653 14.151018,17.264982 14.3328144,16.9987545 C14.5146108,16.7332455 14.605509,16.4321677 14.605509,16.095521 C14.605509,15.7660599 14.5365269,15.4969581 14.3985629,15.2882156 C14.2605988,15.0798323 14.0450299,14.9080958 13.7525749,14.7733653" id="Fill-29" mask="url(#mask-6)" style="fill: rgb(255, 255, 255);"/>
        <path d="M18.2993533,12.249988 C17.7004311,12.249988 17.2193533,12.455497 16.8561198,12.8657964 L16.8561198,10.5139401 L15.3424671,10.5139401 L15.3424671,17.6801677 L16.8561198,17.6801677 L16.8561198,14.5616048 C16.8561198,14.2587305 16.941988,14.0165749 17.1133653,13.8347784 C17.2851018,13.652982 17.5089341,13.5620838 17.784503,13.5620838 C18.0672575,13.5620838 18.2842635,13.646515 18.4358802,13.8142994 C18.5871377,13.9828024 18.6629461,14.2217246 18.6629461,14.5310659 L18.6629461,17.6801677 L20.1769581,17.6801677 L20.1769581,14.086994 C20.1769581,13.5286707 20.0120479,13.0828024 19.6825868,12.7497485 C19.3527665,12.4166946 18.8914491,12.249988 18.2993533,12.249988" id="Fill-30" mask="url(#mask-6)" style="fill: rgb(255, 255, 255);"/>
        <path d="M9.19279042,10.9393653 C9.19279042,11.4006826 8.81913772,11.7743353 8.35782036,11.7743353 C7.89650299,11.7743353 7.5228503,11.4006826 7.5228503,10.9393653 C7.5228503,10.4780479 7.89650299,10.1040359 8.35782036,10.1040359 C8.81913772,10.1040359 9.19279042,10.4780479 9.19279042,10.9393653" id="Fill-31" mask="url(#mask-6)" style="fill: rgb(255, 255, 255);"/>
      </g>
    </g>
  </g>
</svg>
