<?xml version="1.0" encoding="UTF-8"?>
<svg width="282px" height="70px" viewBox="0 0 282 70" version="1.1" xmlns="http://www.w3.org/2000/svg" xmlns:xlink="http://www.w3.org/1999/xlink">
    <title>Group 31</title>
    <defs>
        <polygon id="path-1" points="0 69.2222222 281.970966 69.2222222 281.970966 0.0319725959 0 0.0319725959"></polygon>
        <path d="M34.632086,0.0319725959 C15.5051835,0.0319725959 0,15.5206776 0,34.6269422 L0,34.6269422 C0,53.7335172 15.5051835,69.2222222 34.632086,69.2222222 L34.632086,69.2222222 C41.8425851,69.2222222 48.5375603,67.0189068 54.082162,63.2520384 L54.082162,63.2520384 C53.6719802,62.9261041 53.2518545,62.6085511 52.8087339,62.3102436 L52.8087339,62.3102436 C54.4628231,61.1918236 55.9488,60.1870149 57.4344661,59.1825167 L57.4344661,59.1825167 C56.7741355,59.0800802 56.3098843,59.2979905 55.8375537,59.4966552 L55.8375537,59.4966552 C51.4318281,61.3501345 46.8890645,62.2950334 42.0992595,61.4972706 L42.0992595,61.4972706 C39.6925488,61.0965267 38.866281,59.9383737 39.1503008,57.5214938 L39.1503008,57.5214938 C39.2817455,56.4033842 39.591557,55.2275376 39.3762116,54.1680962 L39.3762116,54.1680962 C39.142843,53.0183244 38.6114711,51.7614599 37.8113058,50.9376223 L37.8113058,50.9376223 C36.8632264,49.9610613 35.5444298,49.3902108 36.9962248,47.8673219 L36.9962248,47.8673219 C37.0919339,47.7670583 37.0297851,47.4060473 36.9238215,47.2427698 L36.9238215,47.2427698 C36.2022744,46.1327309 36.4788364,45.3616637 37.4775669,44.5049223 L37.4775669,44.5049223 C38.8690777,43.3123134 38.6630545,42.006714 37.1152397,41.0540548 L37.1152397,41.0540548 C36.5080463,40.6806273 35.8731967,40.3522098 35.2532628,39.99958 L35.2532628,39.99958 C33.9531107,39.2607957 33.6647405,38.3385571 34.6591207,37.1028007 L34.6591207,37.1028007 C36.0382017,35.3890075 37.3498512,33.6205815 38.7394975,31.9161006 L38.7394975,31.9161006 C40.5878017,29.6488401 40.8721322,27.1779482 40.2142876,24.3690159 L40.2142876,24.3690159 C39.8472992,22.8023587 39.815914,21.0628012 40.058605,19.4663443 L40.058605,19.4663443 C40.6869289,15.3390857 42.4305124,11.617848 44.9605884,8.31225411 L44.9605884,8.31225411 C46.3511669,6.49509317 47.8520595,4.85145341 49.4430678,3.35184554 L49.4430678,3.35184554 C44.9521983,1.22551271 39.9321322,0.0319725959 34.632086,0.0319725959 Z" id="path-3"></path>
        <linearGradient x1="0%" y1="50.0000575%" x2="100.000493%" y2="50.0000575%" id="linearGradient-5">
            <stop stop-color="#B6F2EB" offset="0%"></stop>
            <stop stop-color="#00A89C" offset="100%"></stop>
        </linearGradient>
    </defs>
    <g id="Beauty-SKIN-CARE" stroke="none" stroke-width="1" fill="none" fill-rule="evenodd">
        <g id="MENU" transform="translate(-337.000000, -40.000000)">
            <g id="Group-31" transform="translate(337.000000, 40.000000)">
                <g id="Group-27">
                    <path d="M89.5724662,20.4908642 C89.5724662,18.3524253 89.4912329,16.615351 86.6505384,16.615351 C83.6878396,16.615351 83.6473774,18.4194746 83.6473774,20.4908642 C83.6473774,22.6960421 83.8095352,24.4669514 86.6910007,24.4669514 C89.4912329,24.4669514 89.5724662,22.6628279 89.5724662,20.4908642 M81.6585516,27.0731836 L80.4005165,29.010785 L76.1393205,29.010785 L76.1393205,5.38893448 L83.6878396,5.38893448 L83.6878396,13.0735324 C85.2300368,12.2049953 86.9343917,11.6369385 89.5724662,11.6369385 C95.8224881,11.6369385 97.2834519,16.4815628 97.2834519,20.4908642 C97.2834519,24.5004761 95.3761682,29.34479 88.0710401,29.34479 C84.8646414,29.34479 82.7952,28.2425115 81.6585516,27.0731836" id="Fill-1" fill="#5A6770"></path>
                    <path d="M113.231309,18.6198776 C112.987918,16.4146997 112.216665,15.6129015 110.025219,15.6129015 C107.995931,15.6129015 106.981596,16.3144361 106.737896,18.6198776 L113.231309,18.6198776 Z M99.5952342,20.4575258 C99.5952342,16.2809115 101.299898,11.6368143 110.431076,11.6368143 C121.145223,11.6368143 120.576899,18.6198776 120.576899,21.7941666 L106.737896,21.7941666 C106.900362,24.1663469 107.955469,25.3021501 110.187685,25.3021501 C112.257436,25.3021501 113.109613,24.4668273 113.231309,23.3310241 L120.739366,23.3642383 C120.495975,26.7722687 117.573738,29.3449762 110.471539,29.3449762 C101.177894,29.3449762 99.5952342,24.6341402 99.5952342,20.4575258 L99.5952342,20.4575258 Z" id="Fill-3" fill="#5A6770"></path>
                    <path d="M136.160225,21.5935152 L133.075831,21.8607813 C131.168547,22.0945227 130.559761,22.9298456 130.559761,23.6984295 C130.559761,24.7674938 131.290243,25.3690753 133.075831,25.3690753 C134.820957,25.3690753 136.160225,24.1662228 136.160225,21.5935152 M122.767542,24.3667499 C122.767542,20.5576652 126.541956,19.154596 136.200687,18.6197534 C136.200687,16.247573 135.713905,15.4792995 133.522151,15.4792995 C131.493172,15.4792995 130.924847,16.3478366 130.924847,17.9517434 L123.417099,17.9517434 C123.417099,14.7442402 125.48685,11.6366901 133.319531,11.6366901 C142.410247,11.6366901 143.83044,15.2452477 143.83044,19.4215516 L143.83044,29.0108471 L139.609706,29.0108471 L138.270747,26.671881 C136.606545,28.4763149 134.293404,29.3448521 130.884385,29.3448521 C126.379489,29.3448521 122.767542,27.8415192 122.767542,24.3667499" id="Fill-5" fill="#5A6770"></path>
                    <path d="M147.238748,21.8942439 L147.238748,11.9709434 L154.827729,11.9709434 L154.827729,21.6269778 C154.827729,23.8988946 155.436825,24.4002125 157.262875,24.4002125 C159.129697,24.4002125 159.819716,23.8988946 159.819716,21.6269778 L159.819716,11.9709434 L167.449469,11.9709434 L167.449469,29.010785 L163.228735,29.010785 L161.9707,26.9726096 C160.631432,28.3759893 158.480448,29.34479 155.517749,29.34479 C148.172159,29.34479 147.238748,26.1040725 147.238748,21.8942439" id="Fill-7" fill="#5A6770"></path>
                    <path d="M173.738995,23.8988946 L173.738995,16.9825703 L170.329977,16.9825703 L170.329977,13.2408453 L173.738995,11.9042045 L173.738995,7.62763702 L181.328286,7.62763702 L181.328286,11.9709434 L186.03611,11.9709434 L186.03611,16.9825703 L181.490443,16.9825703 L181.490443,22.6628279 C181.490443,23.9324193 182.017996,24.4002125 183.966051,24.4002125 C184.534375,24.4002125 185.224395,24.3666878 186.03611,24.2999489 L186.03611,29.2448368 C184.940233,29.3115757 183.925589,29.34479 182.992178,29.34479 C175.971212,29.34479 173.738995,27.64093 173.738995,23.8988946" id="Fill-9" fill="#5A6770"></path>
                    <path d="M188.63224,30.5812603 L195.896906,30.5812603 C195.896906,31.7505881 196.302764,32.3521696 198.575134,32.3521696 C201.091513,32.3521696 201.416137,31.0490535 201.416137,29.3784078 L201.416137,27.5072349 C200.56396,28.4428213 198.899758,29.1778806 196.627388,29.1778806 C189.281489,29.1778806 188.794398,25.8033749 188.794398,21.459758 L188.794398,11.9710366 L196.343226,11.9710366 L196.343226,21.192492 C196.343226,23.6984606 196.91155,24.1662538 198.778063,24.1662538 C200.726117,24.1662538 201.375675,23.6984606 201.375675,21.192492 L201.416137,11.9710366 L209.005119,11.9710366 L209.005119,28.8438756 C209.005119,32.2851203 207.584926,36.1274192 198.859296,36.1274192 C190.620757,36.1274192 188.63224,34.289771 188.63224,30.5812603" id="Fill-11" fill="#5A6770"></path>
                    <path d="M74.9624261,59.6888943 L82.3892497,59.6888943 C82.3892497,61.3260154 83.1605027,62.2280772 85.3111774,62.2280772 C86.8938368,62.2280772 87.7867853,61.7267593 87.7867853,60.7579586 C87.7867853,57.58398 75.2870504,59.6888943 75.2870504,53.5076292 C75.2870504,50.7011803 77.7221961,48.2287364 85.0677864,48.2287364 C92.3321435,48.2287364 94.7265181,50.0328599 94.7265181,53.9754225 L87.5433943,53.9754225 C87.5433943,52.6055675 86.8533746,51.8705082 85.1082486,51.8705082 C83.3226605,51.8705082 82.713874,52.4050403 82.713874,53.2071489 C82.713874,55.9468589 95.2540712,54.1092107 95.2540712,60.2234265 C95.2540712,63.0969247 92.4133768,65.9365879 85.3924107,65.9365879 C78.452678,65.9365879 74.9624261,64.0322007 74.9624261,59.6888943" id="Fill-13" fill="#5A6770"></path>
                    <polygon id="Fill-15" fill="#5A6770" points="97.8503244 41.9807634 105.358381 41.9807634 105.358381 54.8439906 109.254491 48.5627724 118.87276 48.5627724 111.648865 56.6816389 119.278618 65.602614 109.741582 65.602614 105.358381 58.8536025 105.358381 65.602614 97.8503244 65.602614"></polygon>
                    <mask id="mask-2" fill="white">
                        <use xlink:href="#path-1"></use>
                    </mask>
                    <g id="Clip-18"></g>
                    <path d="M120.169991,65.6028002 L127.840206,65.6028002 L127.840206,48.5629586 L120.169991,48.5629586 L120.169991,65.6028002 Z M119.277352,43.3508047 C119.277352,40.5105207 121.265869,40.2100404 123.984867,40.2100404 C126.744637,40.2100404 128.692692,40.5105207 128.692692,43.3508047 C128.692692,46.0902043 126.744637,46.5247833 123.984867,46.5247833 C121.265869,46.5247833 119.277352,46.1572536 119.277352,43.3508047 L119.277352,43.3508047 Z" id="Fill-17" fill="#5A6770" mask="url(#mask-2)"></path>
                    <path d="M131.330025,48.5628034 L135.591221,48.5628034 L136.849565,50.6341931 C138.188834,49.2643381 140.461204,48.228488 143.383441,48.228488 C150.688569,48.228488 151.540746,51.5697795 151.540746,55.846347 L151.540746,65.602645 L143.951456,65.602645 L143.951456,56.0803989 C143.951456,53.7749574 143.423903,53.2739499 141.516619,53.2739499 C139.649798,53.2739499 138.959778,53.8416963 138.959778,56.0803989 L138.959778,65.602645 L131.330025,65.602645 L131.330025,48.5628034 Z" id="Fill-19" fill="#5A6770" mask="url(#mask-2)"></path>
                    <path d="M154.340237,57.1161558 C154.340237,52.9063272 156.085363,48.2287053 164.688988,48.2287053 C171.101168,48.2287053 175.159744,50.9348907 175.159744,56.0135668 L167.854616,56.0135668 C167.854616,53.7081254 166.190723,53.2071179 164.770222,53.2071179 C162.660009,53.2071179 161.401665,54.3429211 161.401665,57.0494168 C161.401665,59.7556022 162.619238,60.9252405 164.770222,60.9252405 C166.231186,60.9252405 167.814154,60.323659 167.814154,58.2854836 L175.159744,58.2854836 C175.159744,63.3641597 171.060706,65.9368673 164.810684,65.9368673 C156.044592,65.9368673 154.340237,61.2927701 154.340237,57.1161558" id="Fill-20" fill="#5A6770" mask="url(#mask-2)"></path>
                    <path d="M190.661188,58.1853442 L187.576794,58.4526103 C185.66951,58.6863517 185.060724,59.5216745 185.060724,60.2902585 C185.060724,61.3593228 185.791206,61.9609042 187.576794,61.9609042 C189.32192,61.9609042 190.661188,60.7580517 190.661188,58.1853442 M177.268505,60.9585789 C177.268505,57.1494942 181.042919,55.7464249 190.701651,55.2115824 C190.701651,52.839402 190.214869,52.0711285 188.023114,52.0711285 C185.994135,52.0711285 185.425811,52.9396656 185.425811,54.5435724 L177.918062,54.5435724 C177.918062,51.3360692 179.987813,48.2285191 187.820494,48.2285191 C196.91121,48.2285191 198.331403,51.8370766 198.331403,56.0133806 L198.331403,65.602676 L194.110669,65.602676 L192.77171,63.2637099 C191.107508,65.0681439 188.794367,65.936681 185.385348,65.936681 C180.880452,65.936681 177.268505,64.4333482 177.268505,60.9585789" id="Fill-21" fill="#5A6770" mask="url(#mask-2)"></path>
                    <path d="M201.901962,48.5628034 L206.163158,48.5628034 L207.421502,50.6341931 C208.719999,49.2311238 210.58682,48.0614856 214.645396,48.2620127 L214.645396,53.7417431 C210.140501,53.3406888 209.531714,54.0086988 209.531714,56.1806624 L209.531714,65.602645 L201.901962,65.602645 L201.901962,48.5628034 Z" id="Fill-22" fill="#5A6770" mask="url(#mask-2)"></path>
                    <path d="M229.173802,55.2117065 C228.930102,53.0065286 228.159158,52.2047304 225.967403,52.2047304 C223.938424,52.2047304 222.92378,52.9062651 222.680389,55.2117065 L229.173802,55.2117065 Z M215.537727,57.0493548 C215.537727,52.8727404 217.242082,48.2286432 226.37357,48.2286432 C237.087407,48.2286432 236.519392,55.2117065 236.519392,58.3859955 L222.680389,58.3859955 C222.842855,60.7581759 223.897962,61.8939791 226.130179,61.8939791 C228.19962,61.8939791 229.051797,61.0586562 229.173802,59.922853 L236.681859,59.9560673 C236.438159,63.3640977 233.516231,65.9368052 226.413723,65.9368052 C217.120387,65.9368052 215.537727,61.2259691 215.537727,57.0493548 L215.537727,57.0493548 Z" id="Fill-23" fill="#5A6770" mask="url(#mask-2)"></path>
                    <path d="M238.506921,62.8295655 C238.506921,60.4905994 240.495438,59.7555401 243.214437,59.7555401 C245.892973,59.7555401 247.881799,60.5241241 247.881799,62.8295655 C247.881799,65.1014823 245.974515,65.9368052 243.214437,65.9368052 C240.495438,65.9368052 238.506921,65.135007 238.506921,62.8295655" id="Fill-24" fill="#5A6770" mask="url(#mask-2)"></path>
                    <path d="M250.356697,65.6028002 L258.026911,65.6028002 L258.026911,48.5629586 L250.356697,48.5629586 L250.356697,65.6028002 Z M249.463748,43.3508047 C249.463748,40.5105207 251.452265,40.2100404 254.171264,40.2100404 C256.931343,40.2100404 258.879089,40.5105207 258.879089,43.3508047 C258.879089,46.0902043 256.931343,46.5247833 254.171264,46.5247833 C251.452265,46.5247833 249.463748,46.1572536 249.463748,43.3508047 L249.463748,43.3508047 Z" id="Fill-25" fill="#5A6770" mask="url(#mask-2)"></path>
                    <path d="M274.463033,55.2117065 C274.219333,53.0065286 273.448389,52.2047304 271.256634,52.2047304 C269.227655,52.2047304 268.213011,52.9062651 267.96962,55.2117065 L274.463033,55.2117065 Z M260.826958,57.0493548 C260.826958,52.8727404 262.531313,48.2286432 271.6628,48.2286432 C282.376638,48.2286432 281.808623,55.2117065 281.808623,58.3859955 L267.96962,58.3859955 C268.131777,60.7581759 269.187193,61.8939791 271.419409,61.8939791 C273.488851,61.8939791 274.341028,61.0586562 274.463033,59.922853 L281.97109,59.9560673 C281.727699,63.3640977 278.805462,65.9368052 271.702954,65.9368052 C262.409618,65.9368052 260.826958,61.2259691 260.826958,57.0493548 L260.826958,57.0493548 Z" id="Fill-26" fill="#5A6770" mask="url(#mask-2)"></path>
                </g>
                <g id="Group-30">
                    <mask id="mask-4" fill="white">
                        <use xlink:href="#path-3"></use>
                    </mask>
                    <g id="Clip-29"></g>
                    <path d="M34.632086,0.0319725959 C15.5051835,0.0319725959 0,15.5206776 0,34.6269422 L0,34.6269422 C0,53.7335172 15.5051835,69.2222222 34.632086,69.2222222 L34.632086,69.2222222 C41.8425851,69.2222222 48.5375603,67.0189068 54.082162,63.2520384 L54.082162,63.2520384 C53.6719802,62.9261041 53.2518545,62.6085511 52.8087339,62.3102436 L52.8087339,62.3102436 C54.4628231,61.1918236 55.9488,60.1870149 57.4344661,59.1825167 L57.4344661,59.1825167 C56.7741355,59.0800802 56.3098843,59.2979905 55.8375537,59.4966552 L55.8375537,59.4966552 C51.4318281,61.3501345 46.8890645,62.2950334 42.0992595,61.4972706 L42.0992595,61.4972706 C39.6925488,61.0965267 38.866281,59.9383737 39.1503008,57.5214938 L39.1503008,57.5214938 C39.2817455,56.4033842 39.591557,55.2275376 39.3762116,54.1680962 L39.3762116,54.1680962 C39.142843,53.0183244 38.6114711,51.7614599 37.8113058,50.9376223 L37.8113058,50.9376223 C36.8632264,49.9610613 35.5444298,49.3902108 36.9962248,47.8673219 L36.9962248,47.8673219 C37.0919339,47.7670583 37.0297851,47.4060473 36.9238215,47.2427698 L36.9238215,47.2427698 C36.2022744,46.1327309 36.4788364,45.3616637 37.4775669,44.5049223 L37.4775669,44.5049223 C38.8690777,43.3123134 38.6630545,42.006714 37.1152397,41.0540548 L37.1152397,41.0540548 C36.5080463,40.6806273 35.8731967,40.3522098 35.2532628,39.99958 L35.2532628,39.99958 C33.9531107,39.2607957 33.6647405,38.3385571 34.6591207,37.1028007 L34.6591207,37.1028007 C36.0382017,35.3890075 37.3498512,33.6205815 38.7394975,31.9161006 L38.7394975,31.9161006 C40.5878017,29.6488401 40.8721322,27.1779482 40.2142876,24.3690159 L40.2142876,24.3690159 C39.8472992,22.8023587 39.815914,21.0628012 40.058605,19.4663443 L40.058605,19.4663443 C40.6869289,15.3390857 42.4305124,11.617848 44.9605884,8.31225411 L44.9605884,8.31225411 C46.3511669,6.49509317 47.8520595,4.85145341 49.4430678,3.35184554 L49.4430678,3.35184554 C44.9521983,1.22551271 39.9321322,0.0319725959 34.632086,0.0319725959 Z" id="Fill-28" fill="url(#linearGradient-5)" mask="url(#mask-4)"></path>
                </g>
            </g>
        </g>
    </g>
</svg>
