<?xml version="1.0" encoding="utf-8"?>
<!-- Generator: Adobe Illustrator 16.0.0, SVG Export Plug-In . SVG Version: 6.00 Build 0)  -->
<!DOCTYPE svg PUBLIC "-//W3C//DTD SVG 1.1//EN" "http://www.w3.org/Graphics/SVG/1.1/DTD/svg11.dtd">
<svg version="1.1" id="Layer_1" xmlns="http://www.w3.org/2000/svg" xmlns:xlink="http://www.w3.org/1999/xlink" x="0px" y="0px"
	 width="20px" height="20px" viewBox="0 0 20 20" enable-background="new 0 0 20 20" xml:space="preserve">
<path d="M10,9.469c-2.492,0-4.52-2.027-4.52-4.52S7.508,0.43,10,0.43s4.52,2.027,4.52,4.52S12.492,9.469,10,9.469z M10,2.023
	c-1.613,0-2.926,1.313-2.926,2.926S8.387,7.875,10,7.875s2.926-1.313,2.926-2.926S11.613,2.023,10,2.023z"/>
<path d="M18.773,19.57H1.227c-0.441,0-0.797-0.355-0.797-0.797c0-2.605,1.016-5.047,2.855-6.875c1.188-1.18,2.863-1.855,4.594-1.855
	h4.242c1.734,0,3.406,0.676,4.594,1.855c1.84,1.828,2.855,4.27,2.855,6.875C19.57,19.215,19.215,19.57,18.773,19.57z M2.063,17.977
	h15.875c-0.18-1.875-1-3.609-2.348-4.945c-0.891-0.883-2.156-1.391-3.469-1.391H7.879c-1.316,0-2.578,0.508-3.469,1.391
	C3.063,14.367,2.242,16.102,2.063,17.977z"/>
</svg>
