<?xml version="1.0" encoding="UTF-8"?>
<svg width="22px" height="26px" viewBox="0 0 22 26" version="1.1" xmlns="http://www.w3.org/2000/svg" xmlns:xlink="http://www.w3.org/1999/xlink">
    <title>Combined Shape</title>
    <g id="desktop" stroke-width="1" fill-rule="evenodd">
        <g id="MENU_desktop-Copy" transform="translate(-1531.000000, -22.000000)" fill-rule="nonzero" stroke-width="0.5">
            <g id="Group-8" transform="translate(1532.000000, 19.000000)">
                <g id="user-copy" transform="translate(0.000000, 3.000000)">
                    <path d="M19.6112632,5.9104124 L15.5460876,5.9104124 L15.5460876,5.80711503 C15.5460876,2.88058142 13.1655062,0.5 10.2389726,0.5 C7.31277772,0.5 4.93185764,2.88058142 4.93185764,5.80711503 L4.93185764,5.9104124 L0.8670207,5.9104124 C0.388127279,5.9104124 2.45137244e-13,6.29853959 2.45137244e-13,6.7774331 L2.45137244e-13,22.0651078 C2.45137244e-13,23.9590061 1.54065521,25.5 3.43455355,25.5 L17.0437304,25.5 C18.9376288,25.5 20.4782839,23.9590061 20.4782839,22.0651078 L20.4782839,6.7774331 C20.4782839,6.29853959 20.0901566,5.9104124 19.6112632,5.9104124 L19.6112632,5.9104124 Z M6.66589904,5.80711503 C6.66589904,3.83667498 8.26887127,2.23370274 10.2389726,2.23370274 C12.2094126,2.23370274 13.8123849,3.83667498 13.8123849,5.80711503 L13.8123849,5.9104124 L6.66589904,5.9104124 L6.66589904,5.80711503 Z M18.7442425,22.0651078 C18.7442425,23.0029127 17.9815352,23.7659586 17.0433917,23.7659586 L3.43455355,23.7659586 C2.49674876,23.7659586 1.73370274,23.0029127 1.73370274,22.0651078 L1.73370274,7.6444538 L4.93185764,7.6444538 L4.93185764,11.0336242 C4.93185764,11.5125176 5.31998491,11.9006449 5.79887834,11.9006449 C6.27777176,11.9006449 6.66589904,11.5125176 6.66589904,11.0336242 L6.66589904,7.6444538 L13.8123849,7.6444538 L13.8123849,11.0336242 C13.8123849,11.5125176 14.2005121,11.9006449 14.6794056,11.9006449 C15.1579604,11.9006449 15.5460876,11.5125176 15.5460876,11.0336242 L15.5460876,7.6444538 L18.7442425,7.6444538 L18.7442425,22.0651078 Z" id="Combined-Shape"></path>
                </g>
            </g>
        </g>
    </g>
</svg>
