<?xml version="1.0" encoding="UTF-8"?>
<svg width="40px" height="40px" viewBox="0 0 40 40" version="1.1" xmlns="http://www.w3.org/2000/svg" xmlns:xlink="http://www.w3.org/1999/xlink">
    <title>Icon Color</title>
    <g id="desktop" stroke="none" stroke-width="1" fill="none" fill-rule="evenodd">
        <g id="MENU_desktop-Copy" transform="translate(-772.000000, -3599.000000)" fill="#92278F">
            <g id="Group-17" transform="translate(-4.000000, 3138.000000)">
                <g id="Group-23" transform="translate(736.000000, 431.000000)">
                    <path d="M57.650182,30 L62.3477865,30 C65.6983197,30.0075829 66.4676198,30.0370912 68.2453965,30.118206 C70.3742821,30.2153056 71.8282348,30.553447 73.1004532,31.0479163 C74.4157035,31.5589791 75.5311177,32.2428838 76.6431178,33.3548047 C77.7550387,34.4668049 78.4389435,35.5822191 78.9500857,36.8974693 C79.4444755,38.1696878 79.782617,39.6236404 79.8797164,41.7525261 C79.9738097,43.8147469 79.9984611,44.5199619 80,49.4714058 L80,50.5265884 C79.9984611,55.4779605 79.9738097,56.1831756 79.8797164,58.2453965 C79.782617,60.3742821 79.4444755,61.8282348 78.9500857,63.1004532 C78.4389435,64.4157035 77.7550387,65.5311177 76.6431178,66.6431178 C75.5311177,67.7550387 74.4157035,68.4389435 73.1004532,68.9500857 C71.8282348,69.4444755 70.3742821,69.782617 68.2453965,69.8797164 C66.1831756,69.9738097 65.4779605,69.9984611 60.5265884,70 L59.4714058,70 C54.5199619,69.9984611 53.8147469,69.9738097 51.7525261,69.8797164 C49.6236404,69.782617 48.1696878,69.4444755 46.8974693,68.9500857 C45.5822191,68.4389435 44.4668049,67.7550387 43.3548047,66.6431178 C42.2428838,65.5311177 41.5589791,64.4157035 41.0479163,63.1004532 C40.553447,61.8282348 40.2153056,60.3742821 40.118206,58.2453965 C40.0370912,56.4676198 40.0075829,55.6983197 40,52.3477865 L40,47.650182 C40.0075829,44.2996029 40.0370912,43.5303027 40.118206,41.7525261 C40.2153056,39.6236404 40.553447,38.1696878 41.0479163,36.8974693 C41.5589791,35.5822191 42.2428838,34.4668049 43.3548047,33.3548047 C44.4668049,32.2428838 45.5822191,31.5589791 46.8974693,31.0479163 C48.1696878,30.553447 49.6236404,30.2153056 51.7525261,30.118206 C53.5303027,30.0370912 54.2996029,30.0075829 57.650182,30 L62.3477865,30 L57.650182,30 Z M61.4806392,33.4482759 L58.5187455,33.4482759 C54.4661289,33.4524868 53.7572697,33.4779124 51.8412236,33.5653333 C49.8727313,33.6550943 48.803693,33.9840045 48.0922564,34.2605007 C47.1498453,34.6267579 46.4772785,35.0642629 45.7708108,35.7708108 C45.0642629,36.4772785 44.6267579,37.1498453 44.2605007,38.0922564 C43.9840045,38.803693 43.6550943,39.8727313 43.5653333,41.8412236 C43.4779124,43.7572697 43.4524868,44.4661289 43.4482759,48.5187455 L43.4482759,51.4806392 C43.4524868,55.5331973 43.4779124,56.2420564 43.5653333,58.1581027 C43.6550943,60.1265949 43.9840045,61.1956331 44.2605007,61.9070697 C44.6267579,62.8494808 45.0643431,63.5220477 45.7708108,64.2285153 C46.4772785,64.9350631 47.1498453,65.3725683 48.0922564,65.7388255 C48.803693,66.0153216 49.8727313,66.3442318 51.8412236,66.4339928 C53.9699233,66.5311271 54.6083489,66.5517241 59.9997031,66.5517241 C65.3909772,66.5517241 66.029483,66.5311271 68.1581027,66.4339928 C70.1265949,66.3442318 71.1956331,66.0153216 71.9070697,65.7388255 C72.8494808,65.3725683 73.5220477,64.9350631 74.2285153,64.2285153 C74.9350631,63.5220477 75.3725683,62.8494808 75.7388255,61.9070697 C76.0153216,61.1956331 76.3442318,60.1265949 76.4339928,58.1581027 C76.5311271,56.0291625 76.5517241,55.3905766 76.5517241,49.9997031 C76.5517241,44.6087496 76.5311271,43.9701637 76.4339928,41.8412236 C76.3442318,39.8727313 76.0153216,38.803693 75.7388255,38.0922564 C75.3725683,37.1498453 74.9350631,36.4772785 74.2285153,35.7708108 C73.5220477,35.0642629 72.8494808,34.6267579 71.9070697,34.2605007 C71.1956331,33.9840045 70.1265949,33.6550943 68.1581027,33.5653333 C66.2420564,33.4779124 65.5331973,33.4524868 61.4806392,33.4482759 Z M59.6552111,39.6551724 C65.1780554,39.6551724 69.6551724,44.1322894 69.6551724,49.6552111 C69.6551724,55.1780554 65.1780554,59.6551724 59.6552111,59.6551724 C54.1322894,59.6551724 49.6551724,55.1780554 49.6551724,49.6552111 C49.6551724,44.1322894 54.1322894,39.6551724 59.6552111,39.6551724 Z M59.6552114,43.1034483 C56.0367382,43.1034483 53.1034483,46.0367382 53.1034483,49.6552114 C53.1034483,53.2736067 56.0367382,56.2068966 59.6552114,56.2068966 C63.2736067,56.2068966 66.2068966,53.2736067 66.2068966,49.6552114 C66.2068966,46.0367382 63.2736067,43.1034483 59.6552114,43.1034483 Z M70.6896153,36.8965517 C72.0227287,36.8965517 73.1034483,37.9772712 73.1034483,39.3103848 C73.1034483,40.6434983 72.0227287,41.7241379 70.6896153,41.7241379 C69.3565816,41.7241379 68.2758621,40.6434983 68.2758621,39.3103848 C68.2758621,37.9772712 69.3565816,36.8965517 70.6896153,36.8965517 Z" id="Icon-Color"></path>
                </g>
            </g>
        </g>
    </g>
</svg>
