<?xml version="1.0" encoding="UTF-8"?>
<svg width="41px" height="33px" viewBox="0 0 41 33" version="1.1" xmlns="http://www.w3.org/2000/svg" xmlns:xlink="http://www.w3.org/1999/xlink">
    <title>Group 16</title>
    <g id="desktop" stroke="none" stroke-width="1" fill="none" fill-rule="evenodd">
        <g id="MENU_desktop-Copy" transform="translate(-705.000000, -730.000000)">
            <g id="Group-16" transform="translate(705.000000, 730.000000)">
                <polygon id="Fill-3" fill="#FFFFFF" points="25 9 25 27 27.4995699 27 32.0973847 27 40 27 40 16.9008181 32.0973847 16.9008181 32.0973847 9"></polygon>
                <g id="Group-15">
                    <path d="M12.89245,27.9230769 C12.89245,30.0693462 11.1358562,31.8107308 8.96798125,31.8107308 C6.8013875,31.8107308 5.04479375,30.0693462 5.04479375,27.9230769 C5.04479375,25.7768077 6.8013875,24.0354231 8.96798125,24.0354231 C11.1358562,24.0354231 12.89245,25.7768077 12.89245,27.9230769" id="Fill-4" fill="#FFFFFF"></path>
                    <path d="M35.95495,27.9230769 C35.95495,30.0693462 34.1983563,31.8107308 32.0304813,31.8107308 C29.8638875,31.8107308 28.1072938,30.0693462 28.1072938,27.9230769 C28.1072938,25.7768077 29.8638875,24.0354231 32.0304813,24.0354231 C34.1983563,24.0354231 35.95495,25.7768077 35.95495,27.9230769" id="Fill-6" fill="#FFFFFF"></path>
                    <path d="M38.4373719,25.3846154 L36.4527156,25.3846154 C36.4373406,25.3579615 36.4181219,25.3351154 36.4027469,25.3084615 C36.3169031,25.1701154 36.2272156,25.0368462 36.1285594,24.9048462 C36.0529656,24.8033077 35.9684031,24.7081154 35.8851219,24.6116538 C35.7377781,24.4441154 35.5814656,24.2867308 35.4149031,24.1395 C35.2944656,24.0341538 35.1727469,23.9300769 35.0446219,23.8361538 C34.9395594,23.76 34.8319344,23.6889231 34.7217469,23.6203846 C34.5551844,23.5175769 34.3822156,23.4261923 34.2054031,23.3436923 C34.1080281,23.2967308 34.0132156,23.2497692 33.9119969,23.2116923 C33.6788094,23.1190385 33.4366531,23.0454231 33.1893719,22.9883077 C33.1048094,22.9692692 33.0189656,22.9515 32.9331219,22.9362692 C32.6384344,22.8829615 32.3373406,22.8461538 32.0311219,22.8461538 C31.7249031,22.8461538 31.4250906,22.8829615 31.1304031,22.9362692 C31.0432781,22.9515 30.9587156,22.9692692 30.8741531,22.9883077 C30.6255906,23.0454231 30.3847156,23.1190385 30.1502469,23.2116923 C30.0503094,23.2497692 29.9542156,23.2967308 29.8568406,23.3436923 C29.6800281,23.4261923 29.5070594,23.5175769 29.3417781,23.6203846 C29.2303094,23.6889231 29.1226844,23.76 29.0176219,23.8361538 C28.8894969,23.9300769 28.7677781,24.0341538 28.6486219,24.1395 C28.4807781,24.2867308 28.3257469,24.4441154 28.1784031,24.6116538 C28.0951219,24.7081154 28.0105594,24.8033077 27.9336844,24.9048462 C27.8363094,25.0368462 27.7453406,25.1701154 27.6607781,25.3084615 C27.6441219,25.3351154 27.6261844,25.3579615 27.6095281,25.3846154 L25.6248719,25.3846154 L25.6248719,10.1538462 L30.7498719,10.1538462 L30.7498719,16.5 C30.7498719,17.2006154 31.3225906,17.7692308 32.0311219,17.7692308 L38.4373719,17.7692308 L38.4373719,25.3846154 Z M32.0311219,30.4615385 C30.6179031,30.4615385 29.4686219,29.3230385 29.4686219,27.9230769 C29.4686219,27.6324231 29.5288406,27.3595385 29.6185281,27.1006154 C29.6210906,27.093 29.6274969,27.0866538 29.6300594,27.0790385 C29.8965594,26.3378077 30.4884969,25.7806154 31.2034344,25.5318462 C31.2431531,25.5191538 31.2815906,25.509 31.3187469,25.4975769 C31.5480906,25.4290385 31.7864031,25.3846154 32.0311219,25.3846154 C32.2771219,25.3846154 32.5141531,25.4290385 32.7434969,25.4963077 C32.7819344,25.509 32.8203719,25.5191538 32.8588094,25.5318462 C33.5750281,25.7806154 34.1656844,26.3378077 34.4321844,27.0790385 C34.4347469,27.0866538 34.4411531,27.093 34.4437156,27.1006154 C34.5346844,27.3595385 34.5936219,27.6324231 34.5936219,27.9230769 C34.5936219,29.3230385 33.4443406,30.4615385 32.0311219,30.4615385 L32.0311219,30.4615385 Z M33.3123719,10.1538462 L35.0830594,10.1538462 L37.6455594,15.2307692 L33.3123719,15.2307692 L33.3123719,10.1538462 Z M23.0623719,25.3846154 L13.3902156,25.3846154 C13.3748406,25.3579615 13.3556219,25.3351154 13.3402469,25.3084615 C13.2544031,25.1701154 13.1647156,25.0368462 13.0660594,24.9048462 C12.9904656,24.8033077 12.9059031,24.7081154 12.8226219,24.6116538 C12.6752781,24.4441154 12.5189656,24.2867308 12.3524031,24.1395 C12.2319656,24.0341538 12.1102469,23.9300769 11.9821219,23.8361538 C11.8770594,23.76 11.7694344,23.6889231 11.6592469,23.6203846 C11.4926844,23.5175769 11.3197156,23.4261923 11.1429031,23.3436923 C11.0455281,23.2967308 10.9507156,23.2497692 10.8494969,23.2116923 C10.6163094,23.1190385 10.3741531,23.0454231 10.1268719,22.9883077 C10.0423094,22.9692692 9.95646563,22.9515 9.87062188,22.9362692 C9.57593437,22.8829615 9.27484063,22.8461538 8.96862188,22.8461538 C8.66240312,22.8461538 8.36259063,22.8829615 8.06790313,22.9362692 C7.98077812,22.9515 7.89621563,22.9692692 7.81165312,22.9883077 C7.56309062,23.0454231 7.32221563,23.1190385 7.08774688,23.2116923 C6.98780938,23.2497692 6.89171562,23.2967308 6.79434063,23.3436923 C6.61752812,23.4261923 6.44455938,23.5175769 6.27927812,23.6203846 C6.16780938,23.6889231 6.06018438,23.76 5.95512187,23.8361538 C5.82699687,23.9300769 5.70527812,24.0341538 5.58612187,24.1395 C5.41827812,24.2867308 5.26324688,24.4441154 5.11590312,24.6116538 C5.03262188,24.7081154 4.94805937,24.8033077 4.87118437,24.9048462 C4.77380937,25.0368462 4.68284063,25.1701154 4.59827812,25.3084615 C4.58162188,25.3351154 4.56368438,25.3579615 4.54702812,25.3846154 L2.56237188,25.3846154 L2.56237188,2.53846154 L23.0623719,2.53846154 L23.0623719,25.3846154 Z M8.96862188,30.4615385 C7.55540312,30.4615385 6.40612188,29.3230385 6.40612188,27.9230769 C6.40612188,27.6324231 6.46634063,27.3595385 6.55602813,27.1006154 C6.55859062,27.093 6.56499687,27.0866538 6.56755938,27.0790385 C6.83405937,26.3378077 7.42599687,25.7806154 8.14093437,25.5318462 C8.18065312,25.5191538 8.21909062,25.509 8.25624687,25.4975769 C8.48559063,25.4290385 8.72390313,25.3846154 8.96862188,25.3846154 C9.21462188,25.3846154 9.45165312,25.4290385 9.68099688,25.4963077 C9.71943437,25.509 9.75787187,25.5191538 9.79630938,25.5318462 C10.5125281,25.7806154 11.1031844,26.3378077 11.3696844,27.0790385 C11.3722469,27.0866538 11.3786531,27.093 11.3812156,27.1006154 C11.4721844,27.3595385 11.5311219,27.6324231 11.5311219,27.9230769 C11.5311219,29.3230385 10.3818406,30.4615385 8.96862188,30.4615385 L8.96862188,30.4615385 Z M40.8730281,15.9669231 C40.8679031,15.9567692 40.8704656,15.9440769 40.8653406,15.9326538 L37.0215906,8.31726923 C36.8037781,7.887 36.3604656,7.61538462 35.8748719,7.61538462 L25.6248719,7.61538462 L25.6248719,1.26923077 C25.6248719,0.568615385 25.0521531,0 24.3436219,0 L1.28112188,0 C0.572590625,0 -0.000128125,0.568615385 -0.000128125,1.26923077 L-0.000128125,26.6538462 C-0.000128125,27.3544615 0.572590625,27.9230769 1.28112188,27.9230769 L3.84362188,27.9230769 C3.84362188,30.723 6.14218438,33 8.96862188,33 C11.7950594,33 14.0936219,30.723 14.0936219,27.9230769 L26.9061219,27.9230769 C26.9061219,30.723 29.2046844,33 32.0311219,33 C34.8575594,33 37.1561219,30.723 37.1561219,27.9230769 L39.7186219,27.9230769 C40.4271531,27.9230769 40.9998719,27.3544615 40.9998719,26.6538462 L40.9998719,16.5 C40.9998719,16.3083462 40.9499031,16.1306538 40.8730281,15.9669231 L40.8730281,15.9669231 Z" id="Fill-8" fill="#000000"></path>
                    <path d="M6.40612188,12.6923077 L19.2186219,12.6923077 C19.9271531,12.6923077 20.4998719,12.1236923 20.4998719,11.4230769 C20.4998719,10.7224615 19.9271531,10.1538462 19.2186219,10.1538462 L6.40612188,10.1538462 C5.69759063,10.1538462 5.12487188,10.7224615 5.12487188,11.4230769 C5.12487188,12.1236923 5.69759063,12.6923077 6.40612188,12.6923077" id="Fill-11" fill="#000000"></path>
                    <path d="M6.40612188,7.61538462 L19.2186219,7.61538462 C19.9271531,7.61538462 20.4998719,7.04676923 20.4998719,6.34615385 C20.4998719,5.64553846 19.9271531,5.07692308 19.2186219,5.07692308 L6.40612188,5.07692308 C5.69759063,5.07692308 5.12487188,5.64553846 5.12487188,6.34615385 C5.12487188,7.04676923 5.69759063,7.61538462 6.40612188,7.61538462" id="Fill-13" fill="#000000"></path>
                </g>
            </g>
        </g>
    </g>
</svg>
