<?xml version="1.0" encoding="UTF-8"?>
<svg width="62px" height="62px" viewBox="0 0 62 62" version="1.1" xmlns="http://www.w3.org/2000/svg" xmlns:xlink="http://www.w3.org/1999/xlink">
    <title>Group 16</title>
    <g id="beautify" stroke="none" stroke-width="1" fill="none" fill-rule="evenodd">
        <g id="BABY-SAFETY-HOMEPAGE-DESKTOP" transform="translate(-1402.000000, -848.000000)" fill="#000000" fill-rule="nonzero">
            <g id="Group-14" transform="translate(1402.000000, 848.000000)">
                <g id="001-certification" transform="translate(19.000000, 22.000000)" stroke="#000000" stroke-width="2">
                    <path d="M8.76252651,16.1334367 C6.70174973,16.1334367 4.85054348,15.2888854 3.52326352,13.9516792 C2.19598356,12.614473 1.35770148,10.7142326 1.35770148,8.6732337 C1.35770148,6.59704513 2.19598356,4.73199438 3.52326352,3.39478818 C4.8854719,2.02239235 6.73667815,1.2130307 8.76252651,1.2130307 C8.97209703,1.2130307 9.14673913,1.03708252 9.14673913,0.8259447 C9.14673913,0.614806879 8.97209703,0.438858696 8.76252651,0.438858696 C6.49217922,0.438858696 4.46633086,1.35378925 2.9644088,2.86694363 C1.49741516,4.34490838 0.554347826,6.42109694 0.554347826,8.70842333 C0.554347826,10.9957497 1.46248674,13.0367487 2.9644088,14.549903 C4.46633086,15.9574885 6.52710764,16.9076087 8.76252651,16.9076087 C8.97209703,16.9076087 9.14673913,16.7316605 9.14673913,16.5205227 C9.14673913,16.3093849 8.97209703,16.1334367 8.76252651,16.1334367 Z" id="Path"></path>
                    <path d="M20.9350809,16.1334367 C18.8743041,16.1334367 17.0230978,15.2888854 15.6958179,13.9516792 C14.4383948,12.6848523 13.6350411,10.9605601 13.5302558,9.0603197 L20.9350809,9.0603197 C21.1446514,9.0603197 21.3192935,8.88437152 21.3192935,8.6732337 C21.3192935,8.46209588 21.1446514,8.28614769 20.9350809,8.28614769 L13.5302558,8.28614769 C13.6350411,6.38590731 14.4383948,4.66161511 15.6958179,3.39478818 C17.0580262,2.02239235 18.9092325,1.2130307 20.9350809,1.2130307 C21.1446514,1.2130307 21.3192935,1.03708252 21.3192935,0.8259447 C21.3192935,0.614806879 21.1446514,0.438858696 20.9350809,0.438858696 C18.6647336,0.438858696 16.6388852,1.35378925 15.1369631,2.86694363 C13.6699695,4.34490838 12.7269022,6.42109694 12.7269022,8.70842333 C12.7269022,10.9957497 13.6350411,13.0367487 15.1369631,14.549903 C16.6388852,15.9574885 18.6647336,16.9076087 20.9350809,16.9076087 C21.1446514,16.9076087 21.3192935,16.7316605 21.3192935,16.5205227 C21.3192935,16.3093849 21.1446514,16.1334367 20.9350809,16.1334367 Z" id="Path"></path>
                </g>
                <g id="002-europe">
                    <path d="M35.7936527,3.99254167 C35.6732913,3.60678542 35.3530098,3.3256025 34.9674984,3.26734833 L32.5254714,2.89793167 L31.4334848,0.594050417 C31.260994,0.230317083 30.9052318,0 30.5156265,0 C30.1260212,0 29.770259,0.230317083 29.5977682,0.594050417 L28.5057816,2.89793167 L26.0637546,3.26734833 C25.6782432,3.3256025 25.3579617,3.60678542 25.2376003,3.99254167 C25.1172389,4.37829792 25.2176765,4.80184833 25.4966094,5.08487833 L27.263548,6.87825417 L26.8463769,9.41046333 C26.7806011,9.81014375 26.9383537,10.2142288 27.2535861,10.4526446 C27.5686819,10.6909183 27.9865353,10.7224608 28.3313804,10.5337742 L30.5156265,9.338285 L32.6997362,10.5339162 C32.8495739,10.6158983 33.013058,10.65625 33.1758598,10.65625 C33.3880616,10.65625 33.5993082,10.5876238 33.7775305,10.4527867 C34.0927628,10.2143708 34.2505154,9.81028583 34.1847397,9.41060542 L33.7675686,6.87839625 L35.5345072,5.08502042 C35.8135765,4.80184833 35.9140141,4.37829792 35.7936527,3.99254167 L35.7936527,3.99254167 Z" id="Shape"></path>
                    <path d="M38.8388797,11.204872 C38.9980188,11.5671686 39.3463155,11.8065234 39.7373783,11.822221 L42.2139724,11.921547 L43.5372533,14.0455945 C43.7268221,14.3499626 44.0562031,14.5313888 44.4062817,14.5312499 C44.4419201,14.5312499 44.4778326,14.529305 44.5140193,14.5255542 C44.9031631,14.4841568 45.2354226,14.2222975 45.3708485,13.8502766 L46.2294596,11.4939592 L48.6316242,10.8748042 C49.0108989,10.7770063 49.3024484,10.469582 49.3837313,10.0817246 C49.4651513,9.69386709 49.3220495,9.29267356 49.014874,9.04706754 L47.0688808,7.49133124 L47.230213,4.98470513 C47.2557082,4.58892938 47.0572297,4.21287989 46.7183909,4.01464472 C46.3792779,3.81627063 45.9588819,3.83016237 45.633476,4.05048542 L43.5722063,5.44549425 L41.2698292,4.51544206 C40.9064546,4.36860633 40.4922269,4.44362175 40.2013628,4.70895404 C39.9104987,4.97442525 39.7935773,5.38395383 39.8996701,5.76569893 L40.5717279,8.1835568 L38.9874643,10.1153426 C38.7373102,10.4201274 38.6797405,10.8425753 38.8388797,11.204872 L38.8388797,11.204872 Z" id="Shape"></path>
                    <path d="M57.0152159,14.769808 L54.5086148,14.931141 L52.9528941,12.9851393 C52.7072906,12.6778254 52.3062399,12.53486 51.9182474,12.6162803 C51.5303939,12.6975636 51.2229727,12.9892514 51.1251758,13.3683907 L50.506027,15.7705658 L48.1497331,16.6291806 C47.777716,16.7647442 47.5158592,17.0970051 47.4744622,17.4860135 C47.4330653,17.875159 47.6190738,18.2538871 47.9544172,18.4627838 L50.0784434,19.7860704 L50.1777684,22.2626752 C50.1934659,22.6537397 50.4326793,23.002038 50.7951113,23.1611778 C50.9309711,23.2209409 51.0753049,23.25 51.2186663,23.25 C51.4576019,23.25 51.6941759,23.1688538 51.8847687,23.0125925 L53.8165351,21.428322 L56.2343688,22.1003828 C56.616249,22.2063389 57.0257735,22.089417 57.2911031,21.7986888 C57.5564328,21.5078234 57.6314474,21.0935938 57.4846132,20.7302177 L56.5545703,18.4278306 L57.9495652,16.3665519 C58.1697471,16.0410075 58.1837776,15.6204727 57.9854055,15.2816324 C57.7871723,14.942792 57.4115433,14.7440386 57.0152159,14.769808 L57.0152159,14.769808 Z" id="Shape"></path>
                    <path d="M58.7326642,34.9676439 L59.1020794,32.5256012 L61.4059519,31.4336075 C61.7696838,31.2611157 62,30.9053512 62,30.5157434 C62,30.1261355 61.7696838,29.7703711 61.4059519,29.5978792 L59.1020794,28.5058856 L58.7326642,26.0638428 C58.6744102,25.678329 58.3932284,25.3580454 58.0074736,25.2376832 C57.6217188,25.1171845 57.19817,25.2176228 56.9151411,25.4966939 L55.1217721,27.2636439 L52.5895726,26.8464701 C52.1897517,26.7802845 51.7858103,26.9384476 51.5473954,27.2536819 C51.3089804,27.5689163 51.2775801,27.9866359 51.4662661,28.3314832 L52.6617507,30.5157434 L51.466124,32.6998671 C51.2774381,33.0447143 51.3088384,33.4625704 51.5472533,33.7776683 C51.7856682,34.0929027 52.1898937,34.2506563 52.5894306,34.1848801 L55.12163,33.7677064 L56.914999,35.5346563 C57.1188878,35.7355329 57.3953809,35.8438862 57.6782678,35.8437499 C57.7882398,35.8437499 57.8993486,35.8273739 58.0074736,35.7936671 C58.3932284,35.6733048 58.6744102,35.3531578 58.7326642,34.9676439 L58.7326642,34.9676439 Z" id="Shape"></path>
                    <path d="M57.2911862,40.2013494 C57.0257154,39.910488 56.6161874,39.7938419 56.2344429,39.8996595 L53.8165888,40.5717111 L51.884806,38.9874622 C51.5798827,38.7373104 51.1571576,38.6797412 50.7951394,38.8388788 C50.4328433,38.9980165 50.1934889,39.34631 50.1777913,39.7373693 L50.0784655,42.2139405 L47.9544213,43.5372092 C47.6190751,43.7461031 47.433065,44.1248261 47.4744623,44.5139663 C47.5158596,44.9031065 47.7777186,45.235363 48.1497389,45.3707876 L50.5060527,46.2293908 L51.1252067,48.6315333 C51.2230044,49.0108046 51.5304282,49.3023513 51.9182851,49.3836335 C51.990522,49.3987112 52.0630368,49.40625 52.1349959,49.40625 C52.4500602,49.40625 52.7530386,49.2649314 52.9529405,49.0149166 L54.5086744,47.0689413 L57.0152966,47.2302721 C57.4121831,47.2560411 57.7871206,47.0572904 57.9853555,46.7184547 C58.1837293,46.3796189 58.1698376,45.9589527 57.9495149,45.6335498 L56.5545082,43.572299 L57.4845589,41.269943 C57.6315333,40.9062977 57.5565181,40.4920738 57.2911862,40.2013494 L57.2911862,40.2013494 Z" id="Shape"></path>
                    <path d="M38.9874286,51.8846232 L40.5716767,53.8164297 L39.8996255,56.2343135 C39.7935337,56.6160627 39.9104539,57.0257346 40.2013152,57.2910697 C40.4921765,57.5562659 40.9064002,57.6314211 41.2697712,57.4845838 L43.572126,56.5545216 L45.6333756,57.9495454 C45.8058089,58.0662373 46.0048337,58.125 46.2044068,58.125 C46.3815004,58.125 46.5590053,58.07874 46.718417,57.9853865 C47.0572526,57.7871492 47.2557291,57.4109567 47.2302342,57.0153157 L47.0689035,54.5086627 L49.0148778,52.9529097 C49.3220503,52.707301 49.4651508,52.3062421 49.3837315,51.9182415 C49.3024494,51.5303799 49.0107657,51.2229523 48.6316317,51.1251534 L46.2294905,50.5059918 L45.3708877,48.1496491 C45.2353261,47.7776242 44.9030699,47.515762 44.5140669,47.4743642 C44.1234191,47.4333831 43.7462041,47.6191177 43.5373103,47.9543291 L42.2140423,50.0783994 L39.7374723,50.1777264 C39.3464133,50.1934242 38.99812,50.4326426 38.8389824,50.7950821 C38.6797078,51.1571048 38.7372769,51.5795572 38.9874286,51.8846232 L38.9874286,51.8846232 Z" id="Shape"></path>
                    <path d="M26.2063473,58.0074566 C26.3267087,58.393213 26.6469902,58.674396 27.0325016,58.7326502 L29.4745286,59.102067 L30.5665152,61.4059493 C30.739006,61.7696828 31.0947682,62 31.4843735,62 C31.8739788,62 32.229741,61.7696828 32.4022318,61.4059493 L33.4942184,59.102067 L35.9362454,58.7326502 C36.3217568,58.674396 36.6420383,58.393213 36.7623997,58.0074566 C36.8827611,57.6217001 36.7823235,57.1981495 36.5033906,56.9151194 L34.736452,55.1217428 L35.1536231,52.5895325 C35.2193989,52.1898519 35.0616463,51.7857667 34.7464139,51.5473508 C34.4313181,51.3089348 34.0134647,51.2775344 33.6686196,51.4662211 L31.4843735,52.6617108 L29.3002638,51.4660791 C28.9554188,51.2773923 28.5375654,51.3089348 28.2224695,51.5472087 C27.9072372,51.7856246 27.7494846,52.1897098 27.8152603,52.5893904 L28.2324314,55.1216007 L26.4654928,56.9149773 C26.1864235,57.1981495 26.0859859,57.6217001 26.2063473,58.0074566 L26.2063473,58.0074566 Z" id="Shape"></path>
                    <path d="M23.1611132,50.795106 C23.0019742,50.4328066 22.6536776,50.1934501 22.2626151,50.1777523 L19.7860227,50.0784256 L18.4627428,47.9543623 C18.2538471,47.6190131 17.8763546,47.4332791 17.4859774,47.474399 C17.0968338,47.5157967 16.7645746,47.777658 16.6291488,48.1496816 L15.7705383,50.5060167 L13.3683753,51.1251763 C12.9891008,51.2229749 12.6975515,51.5304014 12.6162687,51.9182618 C12.5348487,52.3061222 12.6779504,52.7073187 12.9851258,52.9529265 L14.9311177,54.5086745 L14.7697855,57.0153193 C14.7442904,57.411098 14.9427687,57.7871503 15.2816073,57.9853869 C15.4410205,58.0786012 15.6185269,58.125 15.7956222,58.125 C15.9951971,58.125 16.1942236,58.0662375 16.3666585,57.949546 L18.4279268,56.5545267 L20.7303024,57.4845859 C21.0938137,57.6314227 21.5080412,57.5562678 21.7987681,57.2910724 C22.089632,57.0255993 22.2065532,56.6160676 22.1004605,56.2343197 L21.4284032,53.8164437 L23.0126657,51.8846435 C23.2626825,51.5798564 23.3202522,51.1574054 23.1611132,50.795106 L23.1611132,50.795106 Z" id="Shape"></path>
                    <path d="M4.98478413,47.2302795 L7.49138515,47.0689492 L9.04710589,49.014918 C9.24700607,49.2650689 9.54998195,49.40625 9.86504353,49.40625 C9.93700204,49.40625 10.0096551,49.3988483 10.0817526,49.3836336 C10.4696061,49.3023517 10.7770273,49.0106688 10.8748242,48.631536 L11.493973,46.2294016 L13.8502669,45.3708013 C14.222284,45.23524 14.4841408,44.9029848 14.5255378,44.5139829 C14.5669347,44.124844 14.3809262,43.7461223 14.0455828,43.5372291 L11.9215566,42.2139649 L11.8222316,39.7374021 C11.8065341,39.3463442 11.5673207,38.9980518 11.2048887,38.8389147 C10.8427346,38.6797776 10.420152,38.7372095 10.1152313,38.9874975 L8.18346487,40.5717411 L5.76563119,39.8996918 C5.38375099,39.7938745 4.97422651,39.9105202 4.70889687,40.2013806 C4.44356723,40.4922411 4.36855257,40.9064636 4.51538683,41.2698336 L5.44542972,43.5721817 L4.05043484,45.6334255 C3.83025292,45.9589644 3.8162224,46.3794921 4.0145945,46.7183267 C4.21296661,47.0571613 4.58887341,47.2567338 4.98478413,47.2302795 L4.98478413,47.2302795 Z" id="Shape"></path>
                    <path d="M10.4527467,28.2223841 C10.2141897,27.9071479 9.80982209,27.7491205 9.41056945,27.81517 L6.87836996,28.2323461 L5.08500098,26.4653862 C4.80182998,26.1863136 4.37856535,26.0860112 3.99266849,26.206374 C3.60691371,26.3267369 3.32573187,26.6470223 3.26747793,27.0325383 L2.89806267,29.4745947 L0.594190229,30.5665945 C0.230316203,30.7389508 0,31.0947173 0,31.4843273 C0,31.8739373 0.230316203,32.2297038 0.594048146,32.4021966 L2.89792059,33.4941964 L3.26733585,35.9362528 C3.32558979,36.3217688 3.60677163,36.6420542 3.99252641,36.762417 C4.10065141,36.7961241 4.21161807,36.8125 4.32173223,36.8125 C4.60461907,36.8125 4.88111218,36.7042826 5.08500098,36.5034048 L6.87836996,34.736445 L9.41056945,35.1536211 C9.81010625,35.2192612 10.2143318,35.0616431 10.4527467,34.746407 C10.6911616,34.4311709 10.7225619,34.0134489 10.533876,33.6685997 L9.33824931,31.4843273 L10.533876,29.3001914 C10.7225619,28.9553422 10.6911616,28.5374837 10.4527467,28.2223841 L10.4527467,28.2223841 Z" id="Shape"></path>
                    <path d="M10.8747021,13.3683437 C10.7769056,12.9890656 10.4694858,12.6975135 10.081634,12.6162298 C9.69350439,12.5349461 9.29259453,12.6777751 9.0469921,12.9850905 L7.49127849,14.9311014 L4.98468895,14.7697677 C4.58822439,14.7442723 4.21287497,14.9427525 4.01464268,15.2815945 C3.81627149,15.6204364 3.83016303,16.0411103 4.05048286,16.3665192 L5.44547134,18.4278077 L4.51543271,20.7302058 C4.36859913,21.0937207 4.44361345,21.5079522 4.70894187,21.7986819 C4.97440921,22.0895486 5.3837929,22.2063339 5.76567135,22.1003773 L8.18349395,21.4283134 L10.1152516,23.0125913 C10.3058435,23.1689905 10.5422775,23.25 10.7813509,23.25 C10.9247116,23.25 11.0691836,23.2208037 11.204904,23.1611774 C11.5671954,23.0020368 11.8065466,22.6537369 11.822244,22.2626705 L11.9215685,19.7860539 L14.0455851,18.462761 C14.3809269,18.2538633 14.5669346,17.8751334 14.5255378,17.4859861 C14.484141,17.0968387 14.2222855,16.7645762 13.85027,16.6291491 L11.4939869,15.7705302 L10.8747021,13.3683437 Z" id="Shape"></path>
                    <path d="M12.6162687,10.0817623 C12.6975516,10.4696165 12.9892381,10.7770381 13.3683758,10.8748352 L15.7705404,11.4939849 L16.6291515,13.8502825 C16.7647145,14.2223002 17.0969739,14.4841574 17.4859807,14.5255544 C17.5220303,14.5293052 17.5579428,14.53125 17.5937183,14.53125 C17.943934,14.53125 18.2731779,14.3498254 18.4627467,14.0455988 L19.7860276,11.9215692 L22.2626217,11.8222441 C22.6536845,11.8065465 23.0019812,11.5673327 23.1611203,11.2049002 C23.3202595,10.8426066 23.2626898,10.4201623 23.0125357,10.1152411 L21.4282721,8.18347161 L22.1003299,5.76563415 C22.2064227,5.38389227 22.0895013,4.97422823 21.7986372,4.70889818 C21.5077731,4.44356812 21.0936824,4.36855334 20.7301708,4.51538783 L18.4277937,5.44543217 L16.366524,4.05043511 C16.040981,3.83025285 15.620448,3.8162223 15.2816091,4.01459472 C14.9427703,4.21282822 14.7442918,4.58901344 14.769787,4.98464695 L14.9311192,7.4912519 L12.985126,9.04697507 C12.6779505,9.29271793 12.5348487,9.69376916 12.6162687,10.0817623 L12.6162687,10.0817623 Z" id="Shape"></path>
                </g>
            </g>
        </g>
    </g>
</svg>
