<?xml version="1.0" encoding="utf-8"?>
<!-- Generator: Adobe Illustrator 16.0.0, SVG Export Plug-In . SVG Version: 6.00 Build 0)  -->
<!DOCTYPE svg PUBLIC "-//W3C//DTD SVG 1.1//EN" "http://www.w3.org/Graphics/SVG/1.1/DTD/svg11.dtd">
<svg version="1.1" id="Layer_1" xmlns="http://www.w3.org/2000/svg" xmlns:xlink="http://www.w3.org/1999/xlink" x="0px" y="0px"
	 width="48px" height="39px" viewBox="0 0 48 39" enable-background="new 0 0 48 39" xml:space="preserve">
<title>Group 16</title>
<g id="Beauty-SKIN-CARE">
	<g id="Product" transform="translate(-1226.000000, -719.000000)">
		<g id="Group-9" transform="translate(1202.000000, 719.000000)">
			<g id="Group-16" transform="translate(24.000000, 0.000000)">
				<polygon id="Fill-1" fill="#B6F2EC" points="38,11 42.731,11 46,19 38,19 				"/>
				<polygon id="Fill-2" fill="#FFEAF0" points="2,31 28,31 28,1 2,1 				"/>
				<polygon id="Fill-3" fill="#FFFFFF" points="29,10 29,31 31.833,31 37.044,31 46,31 46,19.218 37.044,19.218 37.044,10 				"/>
				<g id="Group-15">
					<path id="Fill-4" fill="#FFFFFF" d="M15.094,33c0,2.537-2.057,4.595-4.595,4.595c-2.537,0-4.593-2.058-4.593-4.595
						s2.056-4.595,4.593-4.595C13.037,28.405,15.094,30.463,15.094,33"/>
					<path id="Fill-6" fill="#FFFFFF" d="M42.094,33c0,2.537-2.057,4.595-4.595,4.595c-2.536,0-4.593-2.058-4.593-4.595
						s2.057-4.595,4.593-4.595C40.037,28.405,42.094,30.463,42.094,33"/>
					<path id="Fill-8" fill="#0E030E" d="M45,30h-2.324c-0.018-0.031-0.04-0.059-0.059-0.09c-0.1-0.164-0.205-0.321-0.32-0.477
						c-0.088-0.121-0.188-0.232-0.285-0.348c-0.172-0.197-0.355-0.383-0.551-0.558c-0.141-0.124-0.283-0.247-0.434-0.358
						c-0.123-0.09-0.248-0.174-0.377-0.255c-0.195-0.122-0.398-0.229-0.605-0.327c-0.113-0.056-0.225-0.111-0.344-0.156
						c-0.272-0.109-0.556-0.196-0.846-0.264c-0.099-0.022-0.199-0.043-0.3-0.062C38.211,27.043,37.858,27,37.5,27
						c-0.359,0-0.709,0.043-1.055,0.106c-0.102,0.019-0.201,0.039-0.3,0.062c-0.291,0.067-0.573,0.154-0.848,0.264
						c-0.117,0.045-0.229,0.101-0.343,0.156c-0.207,0.098-0.41,0.205-0.604,0.327c-0.131,0.081-0.257,0.165-0.38,0.255
						c-0.149,0.111-0.292,0.234-0.432,0.358c-0.196,0.175-0.378,0.36-0.551,0.558c-0.097,0.115-0.196,0.227-0.286,0.348
						c-0.114,0.155-0.221,0.313-0.32,0.477c-0.02,0.031-0.04,0.059-0.06,0.09H30V12h6v7.5c0,0.828,0.67,1.5,1.5,1.5H45V30z M37.5,36
						c-1.654,0-3-1.346-3-3c0-0.344,0.07-0.666,0.176-0.973c0.002-0.008,0.01-0.016,0.014-0.025
						c0.312-0.875,1.004-1.534,1.842-1.828c0.046-0.015,0.092-0.027,0.135-0.041C36.935,30.053,37.213,30,37.5,30
						c0.288,0,0.565,0.053,0.834,0.132c0.045,0.015,0.09,0.027,0.135,0.042c0.838,0.294,1.53,0.953,1.842,1.828
						c0.004,0.01,0.011,0.018,0.014,0.025C40.431,32.334,40.5,32.656,40.5,33C40.5,34.654,39.154,36,37.5,36L37.5,36z M39,12h2.072
						l3,6H39V12z M27,30H15.676c-0.018-0.031-0.041-0.059-0.059-0.09c-0.1-0.164-0.206-0.321-0.321-0.477
						c-0.088-0.121-0.188-0.232-0.285-0.348c-0.172-0.197-0.355-0.383-0.55-0.558c-0.141-0.124-0.284-0.247-0.434-0.358
						c-0.123-0.09-0.249-0.174-0.378-0.255c-0.195-0.122-0.397-0.229-0.604-0.327c-0.114-0.056-0.225-0.111-0.344-0.156
						c-0.273-0.109-0.556-0.196-0.846-0.264c-0.099-0.022-0.2-0.043-0.3-0.062C11.211,27.043,10.858,27,10.5,27
						c-0.359,0-0.709,0.043-1.055,0.106c-0.102,0.019-0.201,0.039-0.3,0.062c-0.291,0.067-0.573,0.154-0.848,0.264
						c-0.117,0.045-0.229,0.101-0.343,0.156c-0.207,0.098-0.41,0.205-0.603,0.327c-0.131,0.081-0.257,0.165-0.38,0.255
						c-0.15,0.111-0.292,0.234-0.432,0.358c-0.197,0.175-0.378,0.36-0.551,0.558c-0.097,0.115-0.196,0.227-0.287,0.348
						c-0.114,0.155-0.22,0.313-0.319,0.477c-0.02,0.031-0.041,0.059-0.06,0.09H3V3h24V30z M10.5,36c-1.655,0-3-1.346-3-3
						c0-0.344,0.07-0.666,0.175-0.973c0.003-0.008,0.011-0.016,0.014-0.025c0.312-0.875,1.005-1.534,1.842-1.828
						c0.046-0.015,0.092-0.027,0.135-0.041C9.935,30.053,10.213,30,10.5,30c0.288,0,0.565,0.053,0.834,0.132
						c0.045,0.015,0.09,0.027,0.135,0.042c0.838,0.294,1.53,0.953,1.842,1.828c0.003,0.01,0.01,0.018,0.013,0.025
						C13.431,32.334,13.5,32.656,13.5,33C13.5,34.654,12.154,36,10.5,36L10.5,36z M47.842,18.83l-4.5-9C43.088,9.321,42.568,9,42,9
						H30V1.5C30,0.672,29.33,0,28.5,0h-27C0.67,0,0,0.672,0,1.5v30C0,32.328,0.67,33,1.5,33h3c0,3.309,2.691,6,6,6s6-2.691,6-6h15
						c0,3.309,2.691,6,6,6s6-2.691,6-6h3c0.83,0,1.5-0.672,1.5-1.5v-12c0-0.227-0.059-0.437-0.148-0.63
						C47.846,18.858,47.848,18.843,47.842,18.83z"/>
					<path id="Fill-11" fill="#0E030E" d="M7.5,15h15c0.83,0,1.5-0.672,1.5-1.5S23.33,12,22.5,12h-15C6.67,12,6,12.672,6,13.5
						S6.67,15,7.5,15"/>
					<path id="Fill-13" fill="#0E030E" d="M7.5,9h15C23.33,9,24,8.328,24,7.5S23.33,6,22.5,6h-15C6.67,6,6,6.672,6,7.5S6.67,9,7.5,9
						"/>
				</g>
			</g>
		</g>
	</g>
</g>
</svg>
