<?xml version="1.0" encoding="utf-8"?>
<!-- Generator: Adobe Illustrator 16.0.0, SVG Export Plug-In . SVG Version: 6.00 Build 0)  -->
<!DOCTYPE svg PUBLIC "-//W3C//DTD SVG 1.1//EN" "http://www.w3.org/Graphics/SVG/1.1/DTD/svg11.dtd">
<svg version="1.1" id="Layer_1" xmlns="http://www.w3.org/2000/svg" xmlns:xlink="http://www.w3.org/1999/xlink" x="0px" y="0px"
	 width="40px" height="40px" viewBox="0 0 40 40" enable-background="new 0 0 40 40" xml:space="preserve">
<title>Group 16</title>
<g id="Beauty-SKIN-CARE">
	<g id="Product" transform="translate(-1388.000000, -714.000000)">
		<g id="Group-10" transform="translate(1366.000000, 714.000000)">
			<g id="Group-16" transform="translate(22.000000, 0.000000)">
				<path id="Fill-1" fill="#FFFFFF" d="M5,27.265V18.75v-7.5c0-0.519,0.48-1.395,0.958-1.19l13.604,6.35
					C19.828,16.523,20,16.786,20,17.076v17.2c0,0.52-0.531,0.87-1.009,0.665l-13.604-6.35C5.123,28.477,5,27.553,5,27.265"/>
				<polygon id="Fill-3" fill="#FFEAF0" points="21.25,16.172 38.398,8.554 38.398,28.555 21.25,36.016 				"/>
				<polygon id="Fill-5" fill="#FFEAF0" points="4.18,8.867 13.203,4.843 28.516,12.383 20.509,16.093 				"/>
				<polygon id="Fill-7" fill="#FFEAF0" points="13.633,4.57 22.098,0.795 37.969,8.086 29.961,11.796 				"/>
				<path id="Fill-9" fill="#0E030E" d="M37.5,27.926l-15,6.429V17.073l15-6.427V27.926z M6.922,8.75L12.5,6.36l14.328,6.14
					l-5.578,2.391L6.922,8.75z M30,11.141L15.672,5l5.578-2.39l14.328,6.14L30,11.141z M40,8.756V8.75
					c0-0.144-0.033-0.281-0.08-0.415c-0.012-0.029-0.021-0.058-0.033-0.086c-0.059-0.13-0.132-0.25-0.229-0.354
					c-0.011-0.011-0.025-0.02-0.035-0.031c-0.059-0.056-0.117-0.112-0.184-0.157c-0.049-0.031-0.104-0.051-0.156-0.075
					c-0.015-0.007-0.025-0.022-0.041-0.03l-17.5-7.499c-0.004-0.001-0.008-0.001-0.01-0.002c-0.123-0.051-0.255-0.071-0.389-0.081
					C21.314,0.015,21.283,0,21.252,0c-0.057,0-0.113,0.025-0.172,0.034C20.974,0.047,20.867,0.059,20.77,0.1
					c-0.004,0.001-0.008,0-0.012,0.002l-8.72,3.736h-0.001L3.257,7.601C3.244,7.607,3.234,7.621,3.22,7.628
					C3.166,7.653,3.111,7.673,3.061,7.706C2.994,7.751,2.935,7.807,2.877,7.863c-0.011,0.012-0.024,0.02-0.035,0.031
					C2.745,7.999,2.671,8.119,2.614,8.249C2.601,8.277,2.591,8.306,2.58,8.335C2.533,8.469,2.5,8.606,2.5,8.75v0.006v0.001V20
					c0,0.691,0.559,1.25,1.25,1.25S5,20.691,5,20v-9.354l15,6.427V36.25c0,0.15,0.036,0.296,0.087,0.434
					c0.011,0.029,0.021,0.061,0.035,0.089c0.058,0.126,0.134,0.242,0.23,0.344c0.018,0.017,0.039,0.031,0.058,0.048
					c0.049,0.046,0.095,0.094,0.15,0.129c0.042,0.027,0.091,0.041,0.135,0.063c0.039,0.021,0.078,0.042,0.122,0.059
					c0.14,0.051,0.285,0.086,0.433,0.086c0.175,0,0.34-0.037,0.492-0.102l17.5-7.5C39.703,29.702,40,29.251,40,28.75V8.757V8.756z"
					/>
				<path id="Fill-12" fill="#0E030E" d="M30.25,27.709c0.162,0,0.324-0.03,0.481-0.097l3.5-1.458h0.001
					c0.152-0.065,0.291-0.158,0.405-0.275c0.056-0.055,0.084-0.125,0.128-0.189c0.046-0.07,0.104-0.131,0.139-0.208
					c0.061-0.151,0.095-0.313,0.095-0.479L35,25v-3.75c0-0.691-0.559-1.25-1.25-1.25s-1.25,0.559-1.25,1.25v2.918l-2.73,1.137
					c-0.639,0.266-0.939,0.998-0.673,1.635C29.297,27.42,29.76,27.709,30.25,27.709"/>
				<path id="Fill-14" fill="#0E030E" d="M10,27.501H5l2-1.5c0.553-0.413,0.665-1.197,0.25-1.75c-0.415-0.554-1.199-0.666-1.75-0.25
					l-5,3.75c-0.022,0.018-0.034,0.044-0.056,0.063c-0.047,0.042-0.09,0.084-0.131,0.132c-0.019,0.022-0.045,0.033-0.063,0.056
					c-0.015,0.021-0.016,0.046-0.03,0.063c-0.029,0.045-0.054,0.087-0.077,0.133c-0.027,0.053-0.046,0.106-0.065,0.162
					c-0.018,0.053-0.035,0.104-0.046,0.156c-0.009,0.051-0.011,0.1-0.015,0.152C0.015,28.696,0,28.721,0,28.751
					c0,0.029,0.015,0.056,0.018,0.084c0.004,0.052,0.006,0.102,0.015,0.152c0.011,0.053,0.028,0.103,0.046,0.153
					c0.019,0.057,0.038,0.11,0.065,0.164c0.022,0.045,0.048,0.089,0.077,0.132c0.014,0.02,0.015,0.045,0.03,0.064
					c0.015,0.021,0.04,0.026,0.058,0.046c0.042,0.052,0.086,0.098,0.136,0.141c0.022,0.02,0.034,0.045,0.056,0.063l5,3.749
					c0.225,0.169,0.487,0.25,0.749,0.25c0.381,0,0.756-0.172,1.001-0.5c0.415-0.553,0.303-1.336-0.25-1.749l-2-1.5h5
					c2.067,0,3.75,1.683,3.75,3.749c0,2.067-1.683,3.75-3.75,3.75H1.25C0.559,37.5,0,38.059,0,38.75S0.559,40,1.25,40H10
					c3.446,0,6.25-2.804,6.25-6.25C16.25,30.305,13.446,27.501,10,27.501"/>
			</g>
		</g>
	</g>
</g>
</svg>
