<?xml version="1.0" encoding="utf-8"?>
<!-- Generator: Adobe Illustrator 16.0.0, SVG Export Plug-In . SVG Version: 6.00 Build 0)  -->
<!DOCTYPE svg PUBLIC "-//W3C//DTD SVG 1.1//EN" "http://www.w3.org/Graphics/SVG/1.1/DTD/svg11.dtd">
<svg version="1.1" id="Layer_1" xmlns="http://www.w3.org/2000/svg" xmlns:xlink="http://www.w3.org/1999/xlink" x="0px" y="0px"
	 width="20px" height="20px" viewBox="0 0 20 20" enable-background="new 0 0 20 20" xml:space="preserve">
<path id="Icon-Color" d="M9,0c4.971,0,9,4.029,9,9c0,2.125-0.736,4.078-1.968,5.617l3.675,3.676c0.391,0.391,0.391,1.023,0,1.414
	c-0.36,0.36-0.928,0.389-1.32,0.083l-0.094-0.083l-3.676-3.675C13.078,17.264,11.125,18,9,18c-4.971,0-9-4.029-9-9S4.029,0,9,0z
	 M9,2C5.134,2,2,5.134,2,9s3.134,7,7,7s7-3.134,7-7S12.866,2,9,2z"/>
</svg>
