<?xml version="1.0" encoding="utf-8"?>
<svg version="1.1" id="Layer_1" x="0px" y="0px" width="64px" height="64px" viewBox="0 0 64 64" enable-background="new 0 0 64 64" xmlns="http://www.w3.org/2000/svg">
  <path id="Stroke-3448" fill="none" stroke-width="3" stroke-linecap="round" stroke-linejoin="round" d=" M58.627,16.888c-0.471,0.472-1.123,0.764-1.845,0.764c-1.44,0-2.606-1.167-2.606-2.609c0-0.72,0.291-1.372,0.763-1.844l-4.138-4.138 c-0.472,0.474-1.123,0.766-1.844,0.766c-1.441,0-2.609-1.169-2.609-2.609c0-0.72,0.293-1.372,0.764-1.845L43.739,2 C43.739,2,2,44.228,2,43.739L20.261,62L62,20.261L58.627,16.888z" style="stroke: rgb(90, 103, 112);"/>
  <line id="Stroke-3449" fill="none" stroke-width="3" stroke-linecap="round" stroke-linejoin="round" x1="12.435" y1="43.739" x2="25.478" y2="30.697" style="stroke: rgb(90, 103, 112);"/>
  <line id="Stroke-3450" fill="none" stroke-width="3" stroke-linecap="round" stroke-linejoin="round" x1="17.652" y1="48.957" x2="41.131" y2="25.479" style="stroke: rgb(90, 103, 112);"/>
</svg>
