<?xml version="1.0" encoding="utf-8"?>
<!-- Generator: Adobe Illustrator 16.0.0, SVG Export Plug-In . SVG Version: 6.00 Build 0)  -->
<!DOCTYPE svg PUBLIC "-//W3C//DTD SVG 1.1//EN" "http://www.w3.org/Graphics/SVG/1.1/DTD/svg11.dtd">
<svg version="1.1" id="Layer_1" xmlns="http://www.w3.org/2000/svg" xmlns:xlink="http://www.w3.org/1999/xlink" x="0px" y="0px"
	 width="40px" height="40px" viewBox="0 0 40 40" enable-background="new 0 0 40 40" xml:space="preserve">
<title>Group 2</title>
<g id="Beauty-SKIN-CARE">
	<g id="Product" transform="translate(-1065.000000, -718.000000)">
		<g id="Group-7" transform="translate(1036.000000, 718.000000)">
			<g id="Group-2" transform="translate(29.000000, 0.000000)">
				<path id="Fill-1" fill="#FFFFFF" d="M4.8,27.518v-8.456v-7.448c0-0.515,0.487-1.386,0.971-1.183l13.785,6.307
					C19.825,16.851,20,17.11,20,17.398V34.48c0,0.516-0.539,0.864-1.022,0.66L5.193,28.835C4.923,28.722,4.8,27.805,4.8,27.518"/>
				<polygon id="Fill-3" fill="#0E030E" points="8.4,20.801 16,23.619 13.916,34.127 8.377,39.2 3.047,34.074 0.8,23.313 				"/>
				<polygon id="Fill-5" fill="#73D7FF" points="21.6,16.345 38.4,8.8 38.4,28.609 21.6,36 				"/>
				<polygon id="Fill-7" fill="#FFEAF0" points="4,8.806 12.899,4.8 28,12.307 20.103,16 				"/>
				<polygon id="Fill-9" fill="#FFEAF0" points="13.6,4.605 21.824,0.8 37.6,8.204 29.703,12 				"/>
				<path id="Path" fill="#0E030E" d="M16.871,21.219c-0.372-0.309-0.86-0.443-1.32-0.369c-2.825,0.426-4.519-1.061-5.431-1.864
					l-0.181-0.159c-0.661-0.571-1.623-0.568-2.278,0L7.442,19.02c-0.889,0.791-2.537,2.257-5.396,1.83
					c-0.461-0.077-0.948,0.064-1.321,0.371c-0.407,0.336-0.656,0.839-0.685,1.381c-0.18,3.362-0.116,14.55,8.217,17.311
					C8.436,39.971,8.617,40,8.8,40c0.182,0,0.363-0.029,0.539-0.088c8.336-2.761,8.399-13.949,8.221-17.312
					C17.53,22.057,17.28,21.554,16.871,21.219"/>
				<path id="Path_1_" fill="#FFEAF0" d="M8.799,37.413c-5.984-2.207-6.341-10.899-6.274-13.96c3.182,0.203,5.215-1.343,6.278-2.262
					c1.089,0.932,3.142,2.463,6.273,2.264C15.141,26.516,14.783,35.205,8.799,37.413"/>
				<path id="Fill-13" fill="#0E030E" d="M37.494,28.001l-15.041,6.446V17.119l15.041-6.444V28.001z M6.834,8.773l5.592-2.397
					l14.366,6.157L21.2,14.93L6.834,8.773z M29.974,11.17L15.608,5.013L21.2,2.616l14.366,6.158L29.974,11.17z M40,8.78V8.773
					c0-0.146-0.032-0.283-0.08-0.416c-0.012-0.03-0.022-0.059-0.033-0.088c-0.059-0.129-0.133-0.25-0.23-0.354
					c-0.011-0.013-0.023-0.02-0.035-0.031c-0.057-0.058-0.115-0.113-0.184-0.158c-0.049-0.032-0.104-0.052-0.156-0.076
					c-0.016-0.008-0.025-0.022-0.041-0.029l-17.547-7.52c-0.004-0.002-0.01-0.001-0.014-0.004c-0.113-0.047-0.237-0.063-0.361-0.075
					C21.279,0.019,21.242,0,21.203,0c-0.064,0-0.125,0.026-0.189,0.035c-0.101,0.016-0.201,0.025-0.293,0.063
					c-0.004,0.002-0.01,0.001-0.014,0.004l-8.74,3.746c-0.002,0-0.005,0.001-0.009,0.002L3.16,7.622
					c-0.015,0.006-0.024,0.02-0.039,0.027C3.068,7.673,3.013,7.694,2.963,7.727C2.896,7.772,2.836,7.827,2.779,7.885
					C2.768,7.896,2.755,7.903,2.744,7.916C2.646,8.02,2.572,8.141,2.514,8.27C2.502,8.298,2.492,8.327,2.48,8.357
					C2.433,8.49,2.4,8.628,2.4,8.773V8.78v0.001v7.513c0,0.693,0.56,1.253,1.253,1.253c0.693,0,1.253-0.561,1.253-1.253v-5.619
					l15.04,6.444v19.228c0,0.151,0.037,0.297,0.088,0.435c0.011,0.03,0.021,0.061,0.035,0.09c0.058,0.126,0.134,0.242,0.23,0.343
					c0.018,0.018,0.039,0.031,0.058,0.049c0.049,0.046,0.095,0.093,0.152,0.13c0.041,0.028,0.09,0.041,0.134,0.063
					c0.04,0.021,0.079,0.04,0.123,0.056c0.14,0.053,0.286,0.088,0.434,0.088c0.175,0,0.341-0.036,0.493-0.102l0,0l17.547-7.52
					c0.462-0.197,0.76-0.649,0.76-1.152V8.78L40,8.78z"/>
				<polygon id="Fill-16" fill="#FFEAF0" points="37.6,27.893 37.6,10.4 22.4,16.907 22.4,34.4 				"/>
				<path id="Fill-18" fill="#0E030E" d="M30.134,28c0.172,0,0.345-0.031,0.513-0.1l3.733-1.514l0.001-0.002
					c0.163-0.066,0.309-0.163,0.433-0.283c0.059-0.058,0.091-0.131,0.136-0.197c0.051-0.073,0.112-0.137,0.146-0.217
					c0.066-0.156,0.104-0.324,0.104-0.497l0.001-0.001v-3.893C35.2,20.58,34.604,20,33.867,20c-0.738,0-1.334,0.58-1.334,1.297
					v3.027l-2.912,1.182c-0.68,0.275-1.002,1.035-0.718,1.696C29.117,27.7,29.611,28,30.134,28"/>
			</g>
		</g>
	</g>
</g>
</svg>
