<?xml version="1.0" encoding="utf-8"?>
<!-- Generator: Adobe Illustrator 16.0.0, SVG Export Plug-In . SVG Version: 6.00 Build 0)  -->
<!DOCTYPE svg PUBLIC "-//W3C//DTD SVG 1.1//EN" "http://www.w3.org/Graphics/SVG/1.1/DTD/svg11.dtd">
<svg version="1.1" id="Layer_1" xmlns="http://www.w3.org/2000/svg" xmlns:xlink="http://www.w3.org/1999/xlink" x="0px" y="0px"
	 width="18px" height="20px" viewBox="0 0 18 20" enable-background="new 0 0 18 20" xml:space="preserve">
<path d="M16.747,4.688h-2.381C14.057,2.052,11.809,0,9.091,0S4.125,2.052,3.815,4.688H1.435c-0.432,0-0.781,0.35-0.781,0.781v13.75
	C0.653,19.65,1.003,20,1.435,20h15.313c0.432,0,0.781-0.35,0.781-0.781V5.469C17.528,5.037,17.179,4.688,16.747,4.688z M9.091,1.563
	c1.854,0,3.399,1.354,3.698,3.125H5.393C5.691,2.916,7.236,1.563,9.091,1.563z M15.966,18.438H2.216V6.25h1.563v2.344
	c0,0.432,0.35,0.781,0.781,0.781s0.781-0.35,0.781-0.781V6.25h7.5v2.344c0,0.432,0.35,0.781,0.781,0.781s0.781-0.35,0.781-0.781
	V6.25h1.563V18.438z"/>
</svg>
