<svg width="30" height="30" viewBox="0 0 30 30" fill="none" xmlns="http://www.w3.org/2000/svg">
<path d="M1.75393 22.0993C2.7973 23.1364 6.55221 21.0934 6.55221 21.0934C7.03328 21.3746 7.56434 21.5995 8.07666 21.7932C6.63343 17.9883 7.44563 13.5211 10.507 10.4597C13.5934 7.37334 18.0918 6.56738 21.9154 8.0481C21.3906 6.69233 20.5847 5.41779 19.4913 4.31819C15.3178 0.150936 8.55149 0.150936 4.38423 4.31819C0.854252 7.84817 0.310697 13.2275 2.75357 17.326C2.75357 17.326 0.716802 21.0684 1.75393 22.0993Z" fill="#ECB9E4"/>
<path d="M22.8593 7.16094C22.2608 5.79643 21.4361 4.56 20.374 3.49226C15.7188 -1.15544 8.14961 -1.15544 3.50066 3.49289C-0.197386 7.19093 -1.04333 12.8183 1.33519 17.4041C0.465501 19.1585 -0.442298 21.7363 0.873479 23.044C2.19488 24.3579 4.79207 23.4357 6.54956 22.5623C6.732 22.6498 6.9313 22.7366 7.1406 22.8234C7.73289 24.1886 8.55572 25.4288 9.62471 26.5034C11.9245 28.7988 14.9815 29.9934 18.0679 29.9934C19.9054 29.9934 21.7541 29.5698 23.4591 28.7032C25.2166 29.5785 27.8063 30.4969 29.1283 29.183C30.4404 27.8704 29.5326 25.2969 28.6635 23.5457C31.0439 18.9561 30.1979 13.3281 26.4974 9.63506C25.4353 8.57231 24.2076 7.75073 22.8593 7.16094ZM5.95478 20.0538C4.7777 20.6942 3.32322 21.2015 2.7022 21.209C2.71282 20.5924 3.21701 19.1498 3.85116 17.9808L4.19041 17.3554L3.82617 16.7444C1.61759 13.0395 2.2105 8.31678 5.2669 5.25975C7.10499 3.42229 9.52037 2.50324 11.9358 2.50324C14.3505 2.50324 16.7659 3.42166 18.6046 5.25725C18.9064 5.56089 19.1856 5.8814 19.4412 6.21691C19.3425 6.20566 19.2431 6.20004 19.1444 6.19067C19.0619 6.18317 18.9801 6.17505 18.8976 6.1688C18.669 6.15256 18.4397 6.14318 18.211 6.14006C18.1804 6.13944 18.1491 6.13756 18.1185 6.13694C17.8605 6.13569 17.6031 6.14443 17.3463 6.16005C17.2695 6.16443 17.1932 6.17255 17.117 6.1788C16.9333 6.19379 16.7496 6.21191 16.5666 6.23503C16.4785 6.24627 16.391 6.25814 16.3036 6.27126C16.1205 6.29875 15.9387 6.33062 15.7569 6.36685C15.6832 6.38122 15.6088 6.39434 15.5351 6.40996C15.2852 6.46432 15.0365 6.52492 14.7904 6.5949C14.7491 6.60677 14.7085 6.62114 14.6673 6.63363C14.4611 6.69486 14.2568 6.76109 14.0537 6.83356C13.9725 6.8623 13.8926 6.89354 13.812 6.92478C13.6458 6.98788 13.4802 7.05536 13.3165 7.12596C13.2353 7.16094 13.1547 7.19593 13.0741 7.23279C12.891 7.31714 12.7105 7.40711 12.5312 7.5002C12.4793 7.52769 12.4262 7.55205 12.3743 7.58017C12.1482 7.70262 11.9251 7.83383 11.7065 7.97128C11.6459 8.00939 11.5878 8.05062 11.5278 8.08936C11.3666 8.19495 11.2073 8.30366 11.0511 8.41737C10.978 8.47047 10.9061 8.52483 10.8343 8.57918C10.6868 8.69164 10.5425 8.80785 10.3994 8.92718C10.3357 8.98092 10.2707 9.0334 10.2083 9.08838C10.0083 9.26331 9.81214 9.44325 9.62221 9.63256C9.43165 9.82311 9.25047 10.0205 9.07491 10.2211C9.01805 10.2861 8.96495 10.3535 8.90934 10.4191C8.79251 10.5591 8.67817 10.7003 8.56821 10.8446C8.50948 10.9221 8.45201 11.0002 8.39515 11.0789C8.29331 11.2201 8.1946 11.3632 8.09963 11.5081C8.04778 11.5862 7.99592 11.6643 7.94656 11.7437C7.84347 11.9092 7.74538 12.0773 7.65104 12.2472C7.61793 12.3066 7.58232 12.3647 7.54983 12.4247C7.42675 12.654 7.31179 12.887 7.20433 13.1232C7.17809 13.1807 7.1556 13.24 7.13061 13.2981C7.05188 13.4793 6.97629 13.6617 6.90631 13.8467C6.87382 13.9335 6.84383 14.021 6.81322 14.1091C6.75699 14.2696 6.70326 14.4315 6.6539 14.5945C6.62579 14.687 6.5983 14.7795 6.57268 14.8732C6.52645 15.0406 6.48459 15.2093 6.44523 15.3792C6.42523 15.4648 6.40399 15.5498 6.3865 15.6354C6.33964 15.8616 6.29903 16.0896 6.26529 16.3183C6.26092 16.3464 6.25529 16.3739 6.25092 16.402C6.21468 16.6569 6.18907 16.9131 6.1697 17.1705C6.16345 17.2548 6.16095 17.3385 6.15658 17.4229C6.14721 17.5997 6.13971 17.7765 6.13784 17.9539C6.13721 18.052 6.13784 18.1495 6.13971 18.2476C6.14221 18.4156 6.14846 18.5837 6.15783 18.7524C6.16345 18.8492 6.16845 18.9461 6.17657 19.0429C6.19157 19.2272 6.21281 19.4115 6.23655 19.5952C6.24655 19.6727 6.25405 19.7502 6.26529 19.827C6.26779 19.8439 6.26904 19.8614 6.27154 19.8783L5.95478 20.0538ZM26.1469 24.123C26.7817 25.2913 27.2859 26.7327 27.2959 27.3493C26.6761 27.3393 25.2222 26.8308 24.0439 26.1897L23.4235 25.8524L22.815 26.2079C19.1219 28.3671 14.4224 27.7623 11.3928 24.7371C10.4394 23.7781 9.71655 22.6585 9.24485 21.4077C7.93157 17.9452 8.77377 14.0179 11.3903 11.4007C11.5934 11.1976 11.8064 11.0089 12.0238 10.8278C12.0845 10.7771 12.1463 10.729 12.2082 10.6803C12.3806 10.5441 12.5568 10.4142 12.7367 10.2911C12.7942 10.2517 12.8504 10.2111 12.9085 10.173C13.1434 10.0199 13.3827 9.87622 13.6283 9.74502C13.6601 9.72815 13.6932 9.71378 13.7257 9.69691C13.9425 9.58507 14.1625 9.48199 14.3861 9.38764C14.4561 9.35828 14.5261 9.33016 14.5967 9.30205C14.8091 9.21833 15.024 9.14211 15.2414 9.07401C15.2908 9.05839 15.3395 9.04027 15.3889 9.0259C15.655 8.94718 15.9249 8.88033 16.1967 8.82535C16.2498 8.81472 16.3036 8.80723 16.3573 8.79723C16.5797 8.756 16.804 8.72351 17.0295 8.69852C17.1026 8.69039 17.1764 8.68227 17.2501 8.67602C17.5013 8.65416 17.7537 8.64104 18.0061 8.63916C18.0317 8.63916 18.0573 8.63666 18.0829 8.63666C18.3478 8.63729 18.6127 8.64978 18.8776 8.6729C18.9395 8.67852 19.0007 8.68727 19.0626 8.69414C19.2644 8.71539 19.4655 8.74288 19.6661 8.77724C19.7473 8.79098 19.8285 8.80723 19.9098 8.82347C20.1003 8.86158 20.2896 8.90657 20.4783 8.95655C20.5527 8.97592 20.627 8.99403 20.7007 9.01528C20.9581 9.09025 21.2137 9.17335 21.4667 9.27144L21.4698 9.27269C22.6913 9.74189 23.789 10.4579 24.7324 11.4013C27.7907 14.4539 28.383 19.176 26.1725 22.8847L25.8076 23.4976L26.1469 24.123Z" fill="#111111"/>
<path d="M17.5244 10.6884C13.9863 11.2214 11.2385 13.9541 10.6874 17.4879C10.5812 18.1695 11.0473 18.8086 11.7289 18.9155C11.7939 18.9255 11.8589 18.9305 11.9233 18.9305C12.528 18.9305 13.0603 18.49 13.1566 17.8733C13.5327 15.4617 15.482 13.523 17.8967 13.1594C18.579 13.0569 19.0488 12.4203 18.9464 11.738C18.8433 11.0552 18.2054 10.5841 17.5244 10.6884Z" fill="#111111"/>
</svg>
