<?xml version="1.0" encoding="utf-8"?>
<svg version="1.1" id="Layer_1" x="0px" y="0px" width="599.329px" height="592.8px" viewBox="6.335 99.6 599.329 592.8" enable-background="new 6.335 99.6 599.329 592.8" xmlns="http://www.w3.org/2000/svg">
  <path id="XMLID_16_" d="M 457.984 692.378 C 450.514 692.736 442.026 688.85 436.827 683.652 C 436.511 683.333 436.203 683.005 435.901 682.668 C 431.39 678.155 426.877 673.642 422.363 669.129 C 401.267 648.033 380.229 626.996 359.132 605.897 C 345.744 592.51 332.416 579.182 319.089 565.854 C 313.352 560.116 310.662 552.646 310.245 544.699 C 309.887 536.69 313.773 529.22 318.971 523.542 C 324.051 518.043 332.777 514.816 340.128 514.816 C 347.838 514.816 355.847 518.104 361.285 523.542 C 366.124 528.381 370.965 533.222 375.807 538.064 C 393.256 555.513 410.665 572.921 428.1 590.357 C 428.1 579.758 428.1 569.16 428.1 558.562 C 428.1 538.84 428.1 519.177 428.1 499.454 C 428.1 478.297 428.1 457.2 428.1 436.043 C 428.1 415.066 428.1 394.148 428.1 373.23 C 428.1 353.986 428.1 334.801 428.1 315.616 C 428.1 299.957 428.1 284.298 428.1 268.64 C 428.1 258.001 428.1 247.363 428.1 236.725 C 428.1 232.841 428.1 228.956 428.1 225.071 C 428.1 216.943 431.448 209.771 436.827 203.914 C 442.264 198.057 450.274 195.546 457.984 195.188 C 465.453 194.83 473.941 198.715 479.139 203.914 C 484.518 209.353 487.867 217.421 487.867 225.071 C 487.867 225.31 487.867 225.549 487.867 225.788 C 487.927 231.466 487.867 237.203 487.867 242.881 C 487.867 254.834 487.867 266.847 487.867 278.8 C 487.867 295.534 487.867 312.27 487.867 329.003 C 487.867 348.726 487.867 368.388 487.867 388.111 C 487.867 409.267 487.867 430.366 487.867 451.523 C 487.867 472.5 487.867 493.418 487.867 514.336 C 487.867 533.58 487.867 552.764 487.867 571.95 C 487.867 578.066 487.867 584.182 487.867 590.298 C 496.767 581.398 505.668 572.497 514.58 563.585 C 527.968 550.197 541.295 536.869 554.623 523.542 C 560.36 517.864 567.831 515.173 575.78 514.816 C 583.789 514.457 591.258 518.342 596.936 523.542 C 602.434 528.622 605.663 537.346 605.663 544.699 C 605.663 552.408 602.374 560.416 596.936 565.854 C 592.096 570.695 587.255 575.536 582.414 580.377 C 561.318 601.473 540.281 622.51 519.182 643.609 C 505.795 656.996 492.467 670.324 479.139 683.652 C 473.702 689.509 465.693 692.021 457.984 692.378 Z M 132.859 108.349 C 138.298 102.492 146.306 99.982 154.016 99.623 C 158.693 99.399 163.769 100.838 168.187 103.221 C 170.719 104.546 173.081 106.255 175.173 108.348 C 180.014 113.189 184.855 118.03 189.696 122.871 C 210.793 143.968 231.831 165.006 252.928 186.103 C 266.315 199.491 279.643 212.818 292.971 226.146 C 298.649 231.884 301.339 239.354 301.697 247.303 C 302.055 255.312 298.171 262.782 292.971 268.46 C 287.891 273.958 279.165 277.186 271.814 277.186 C 264.104 277.186 256.095 273.899 250.657 268.46 C 245.816 263.619 240.975 258.778 236.134 253.937 C 218.704 236.507 201.315 219.118 183.899 201.702 C 183.899 212.281 183.899 222.86 183.899 233.438 C 183.899 253.16 183.899 272.823 183.899 292.546 C 183.899 313.703 183.899 334.8 183.899 355.957 C 183.899 376.934 183.899 397.852 183.899 418.77 C 183.899 438.015 183.899 457.199 183.899 476.384 C 183.899 492.044 183.899 507.703 183.899 523.361 C 183.899 534 183.899 544.636 183.899 555.276 C 183.899 559.159 183.899 563.044 183.899 566.929 C 183.899 575.057 180.552 582.229 175.173 588.086 C 169.734 593.944 161.725 596.455 154.016 596.812 C 146.546 597.17 138.059 593.285 132.859 588.086 C 127.48 582.649 124.133 574.579 124.133 566.929 C 124.133 566.691 124.133 566.45 124.133 566.212 C 124.073 560.534 124.133 554.796 124.133 549.118 C 124.133 537.165 124.133 525.152 124.133 513.199 C 124.133 496.465 124.133 479.73 124.133 462.996 C 124.133 443.275 124.133 423.612 124.133 403.888 C 124.133 382.731 124.133 361.634 124.133 340.477 C 124.133 319.5 124.133 298.582 124.133 277.664 C 124.133 258.42 124.133 239.235 124.133 220.05 C 124.133 213.914 124.133 207.778 124.133 201.642 C 115.213 210.562 106.291 219.484 97.358 228.417 C 83.97 241.805 70.643 255.132 57.315 268.46 C 51.578 274.138 44.107 276.827 36.218 277.186 C 28.209 277.544 20.739 273.66 15.061 268.46 C 9.563 263.38 6.335 254.654 6.335 247.303 C 6.335 239.593 9.622 231.585 15.061 226.146 C 19.902 221.305 24.743 216.464 29.584 211.623 C 50.681 190.526 71.778 169.488 92.876 148.391 C 106.065 135.201 119.197 122.07 132.329 108.938 C 132.503 108.74 132.68 108.544 132.859 108.349 Z"/>
</svg>
