<?xml version="1.0" encoding="utf-8"?>
<svg width="19px" height="20px" viewBox="0 0 19 20" version="1.1" xmlns="http://www.w3.org/2000/svg">
  <title>font contact</title>
  <path d="M 4.5 9.44 C 5.94 12.27 7.67 13.99 10.5 15.44 L 12.91 13.62 C 13.18 13.35 13.58 13.26 13.93 13.38 C 15.05 13.75 16.26 13.95 17.5 13.95 C 18.05 13.95 18.5 14.4 18.5 14.95 L 18.5 18.44 C 18.5 18.99 18.05 19.44 17.5 19.44 C 8.11 19.44 0.5 11.83 0.5 2.44 C 0.5 1.89 0.95 1.44 1.5 1.44 L 5 1.44 C 5.55 1.44 6 1.89 6 2.44 C 6 3.69 6.2 4.89 6.57 6.01 C 6.68 6.36 6.6 6.75 6.32 7.03 L 4.5 9.44 L 4.5 9.44 Z" id="Stroke-70" stroke-width="1" fill="none" fill-rule="evenodd" stroke-linecap="round" stroke-linejoin="round" style=""/>
  <path d="M 11.5 1.44 C 15.366 1.44 18.5 4.574 18.5 8.44" id="Stroke-72" stroke-width="1" fill="none" fill-rule="evenodd" stroke-linecap="round" stroke-linejoin="round" style=""/>
  <path d="M 11.5 5.44 C 13.157 5.44 14.5 6.783 14.5 8.44" id="Stroke-74" stroke-width="1" fill="none" fill-rule="evenodd" stroke-linecap="round" stroke-linejoin="round" style=""/>
</svg>
