<?xml version="1.0" encoding="utf-8"?>
<!-- Generator: Adobe Illustrator 16.0.0, SVG Export Plug-In . SVG Version: 6.00 Build 0)  -->
<!DOCTYPE svg PUBLIC "-//W3C//DTD SVG 1.1//EN" "http://www.w3.org/Graphics/SVG/1.1/DTD/svg11.dtd">
<svg version="1.1" id="Layer_1" xmlns="http://www.w3.org/2000/svg" xmlns:xlink="http://www.w3.org/1999/xlink" x="0px" y="0px"
	 width="20px" height="16px" viewBox="0 0 20 16" enable-background="new 0 0 20 16" xml:space="preserve">
<title>Icon</title>
<path id="Icon-Color" d="M17,0.5c0.689,0,1.314,0.28,1.768,0.732C19.221,1.685,19.5,2.31,19.5,3l0,0v10
	c0,0.689-0.279,1.314-0.732,1.768C18.314,15.22,17.689,15.5,17,15.5l0,0H3c-0.69,0-1.315-0.28-1.768-0.732
	C0.78,14.314,0.5,13.689,0.5,13l0,0V3c0-0.69,0.28-1.315,0.732-1.768C1.685,0.78,2.31,0.5,3,0.5l0,0H17z M18.5,7.5h-17V13
	c0,0.414,0.168,0.789,0.439,1.061C2.211,14.332,2.586,14.5,3,14.5h14c0.414,0,0.789-0.168,1.061-0.439S18.5,13.414,18.5,13V7.5z
	 M17,1.5H3c-0.414,0-0.789,0.168-1.061,0.439C1.668,2.211,1.5,2.586,1.5,3v1.5h17V3c0-0.414-0.168-0.789-0.439-1.061
	C17.789,1.668,17.414,1.5,17,1.5z"/>
</svg>
