<svg width="30" height="30" viewBox="0 0 30 30" fill="none" xmlns="http://www.w3.org/2000/svg">
<path d="M18.7562 14.0419C18.4374 14.2481 18.0999 14.4294 17.7437 14.5794C16.8999 14.9356 15.9749 15.1356 14.9999 15.1356C11.4937 15.1356 8.5874 12.5606 8.08115 9.2044C8.03115 8.8669 8.00615 8.5169 8.00615 8.1669C8.00615 4.3169 11.1374 1.19189 14.9999 1.19189C18.8624 1.19189 21.9937 4.3169 21.9937 8.1669C21.9937 10.6419 20.7062 12.8106 18.7562 14.0419Z" fill="#ECB9E4"/>
<path d="M1.25 8.0125H6.76687C6.88125 3.57625 10.5263 0 15 0C19.5456 0 23.2437 3.69 23.2437 8.225C23.2437 9.91375 22.7256 11.5119 21.8094 12.85H21.8625H25.9938C26.4669 12.85 26.8987 13.1169 27.1112 13.5394L29.8675 19.0331C29.8725 19.0431 29.8738 19.0544 29.8781 19.0644C29.9163 19.1456 29.9469 19.23 29.9675 19.3194C29.9688 19.3256 29.9719 19.3313 29.9731 19.3375C29.9906 19.4206 30 19.5063 30 19.5938V25.0562C30 25.7463 29.4406 26.3062 28.75 26.3062H26.815C26.8162 26.3481 26.825 26.3888 26.825 26.4313C26.825 28.3988 25.2188 30 23.2437 30C21.2725 30 19.6681 28.3988 19.6681 26.4313C19.6681 26.3888 19.6769 26.3481 19.6781 26.3062H17.7431H16.5994H11.6838C11.685 26.3481 11.6937 26.3894 11.6937 26.4313C11.6937 28.3988 10.0906 30 8.11875 30C6.14375 30 4.5375 28.3988 4.5375 26.4313C4.5375 26.3888 4.54625 26.3481 4.5475 26.3062H1.25C0.559999 26.3062 0 25.7463 0 25.0562V9.2625C0 8.57187 0.559999 8.0125 1.25 8.0125ZM15 2.5C11.8331 2.5 9.25625 5.06812 9.25625 8.225C9.25625 8.51625 9.27688 8.80375 9.3175 9.07562C9.73625 11.8506 12.1794 13.9437 15.0006 13.9437C15.2087 13.9437 15.4144 13.9306 15.6194 13.9087C16.1819 13.8488 16.7312 13.7081 17.26 13.485C17.5375 13.3681 17.8131 13.2225 18.09 13.0431C19.7525 11.9931 20.745 10.1919 20.745 8.225C20.7438 5.06812 18.1669 2.5 15 2.5ZM25.2225 15.35H23.1131V18.3438H26.7244L25.2225 15.35ZM27.5 20.8438H21.8631C21.1725 20.8438 20.6131 20.2838 20.6131 19.5938V15.35H19.1087C19.0712 15.3725 19.0325 15.3938 18.9937 15.4156V23.8062H20.8225C20.835 23.7944 20.8506 23.7863 20.8631 23.775C21.0069 23.6456 21.16 23.5275 21.3219 23.4237C21.3512 23.405 21.3819 23.3894 21.4119 23.3713C21.5625 23.2812 21.7181 23.2019 21.8806 23.1344C21.9094 23.1225 21.9375 23.1081 21.9669 23.0969C22.1463 23.0275 22.3319 22.9756 22.5213 22.9356C22.5638 22.9269 22.6056 22.92 22.6487 22.9125C22.845 22.8787 23.0431 22.8556 23.245 22.8556C23.4481 22.8556 23.6475 22.8787 23.845 22.9125C23.8863 22.9194 23.9269 22.9263 23.9681 22.9344C24.1613 22.9744 24.3494 23.0275 24.5319 23.0981C24.5544 23.1069 24.5756 23.1175 24.5975 23.1269C24.775 23.1994 24.945 23.285 25.1081 23.3844C25.125 23.395 25.1425 23.4038 25.1594 23.4144C25.3313 23.5231 25.4925 23.6475 25.6438 23.7838C25.6525 23.7919 25.6638 23.7975 25.6725 23.8056H27.5V20.8438ZM23.2437 27.5C23.84 27.5 24.325 27.0206 24.325 26.4313C24.325 26.2013 24.2544 25.9856 24.1088 25.7931C23.7294 25.2712 22.88 25.2475 22.4519 25.7231C22.4262 25.7519 22.3975 25.7762 22.3738 25.8088C22.2394 25.9869 22.1688 26.2019 22.1688 26.4319C22.1688 27.0206 22.6506 27.5 23.2437 27.5ZM8.11875 27.5C8.71125 27.5 9.19375 27.0206 9.19375 26.4313C9.19375 26.1806 9.11187 25.9888 9.02875 25.8581C9.01125 25.8369 8.99375 25.815 8.9775 25.7925C8.67437 25.3769 8.08 25.2769 7.63437 25.4831C7.48375 25.555 7.3475 25.6631 7.2425 25.8081C7.10813 25.9862 7.0375 26.2013 7.0375 26.4313C7.0375 27.0206 7.5225 27.5 8.11875 27.5ZM2.5 23.8062H5.69125C5.70437 23.7944 5.72 23.7856 5.73375 23.7737C5.8775 23.645 6.03 23.5275 6.19188 23.4237C6.22188 23.405 6.2525 23.3888 6.2825 23.3706C6.43312 23.2806 6.58937 23.2013 6.75125 23.1344C6.78062 23.1225 6.80812 23.1081 6.8375 23.0969C7.0175 23.0275 7.20312 22.9756 7.39312 22.9356C7.43562 22.9269 7.47813 22.92 7.52063 22.9125C7.7175 22.8787 7.91625 22.8556 8.11875 22.8556C8.32188 22.8556 8.5225 22.8787 8.72 22.9131C8.75687 22.9194 8.79375 22.925 8.83063 22.9325C9.02 22.9713 9.20437 23.025 9.38375 23.0931C9.41688 23.1056 9.44938 23.1206 9.4825 23.1344C9.66125 23.2087 9.83562 23.2937 10.0006 23.3962C10.0063 23.3994 10.0119 23.4019 10.0175 23.4056C10.1844 23.5106 10.3387 23.6331 10.4869 23.7644C10.5037 23.7794 10.5244 23.7906 10.5413 23.8056H16.4937V16.3088C16.3481 16.3356 16.2006 16.35 16.0538 16.3687C15.9669 16.38 15.8806 16.3956 15.7938 16.4044C15.5312 16.4294 15.2669 16.4438 15.0006 16.4438C14.7581 16.4438 14.5188 16.4312 14.2806 16.4106C14.2019 16.4037 14.1256 16.3906 14.0475 16.3812C13.8894 16.3625 13.7313 16.3431 13.5756 16.3156C13.4844 16.2994 13.3944 16.2775 13.3037 16.2581C13.1637 16.2281 13.0244 16.1981 12.8869 16.1612C12.7925 16.1362 12.7 16.1063 12.6069 16.0781C12.4762 16.0381 12.3469 15.9969 12.2188 15.9506C12.125 15.9169 12.0331 15.88 11.9412 15.8425C11.8175 15.7925 11.695 15.74 11.5744 15.6844C11.4837 15.6425 11.3944 15.5994 11.3056 15.5544C11.1863 15.4944 11.0694 15.4306 10.9531 15.365C10.8681 15.3169 10.7838 15.2681 10.7 15.2169C10.5837 15.1456 10.4706 15.07 10.3581 14.9925C10.2806 14.9394 10.2025 14.8875 10.1269 14.8319C10.0119 14.7475 9.90063 14.6575 9.79 14.5675C9.7225 14.5125 9.65313 14.4594 9.5875 14.4019C9.46688 14.2969 9.35125 14.1856 9.23687 14.0737C9.18687 14.025 9.135 13.9794 9.08625 13.9294C8.76437 13.5988 8.46938 13.2413 8.20563 12.8606C8.16688 12.8044 8.1325 12.7456 8.095 12.6888C8.00562 12.5525 7.9175 12.4163 7.83625 12.2744C7.79375 12.2 7.75563 12.1231 7.715 12.0469C7.64625 11.9175 7.57812 11.7881 7.51625 11.655C7.47688 11.5706 7.44125 11.4837 7.405 11.3981C7.35 11.2687 7.29688 11.1394 7.24875 11.0069C7.215 10.915 7.18437 10.8213 7.15437 10.7281C7.13125 10.6563 7.10313 10.5863 7.08187 10.5138H2.5V23.8062Z" fill="#111111"/>
<path d="M15 9.38812H12.1944C11.5044 9.38812 10.9444 8.82812 10.9444 8.13812C10.9444 7.44812 11.5044 6.88812 12.1944 6.88812H13.75V5.38937C13.75 4.69937 14.31 4.13937 15 4.13937C15.6906 4.13937 16.25 4.69937 16.25 5.38937V8.13812C16.25 8.82812 15.6906 9.38812 15 9.38812Z" fill="#111111"/>
<path d="M8.6001 20.4913C8.6001 21.1813 8.0401 21.7413 7.3501 21.7413H5.30885C4.61885 21.7413 4.05885 21.1813 4.05885 20.4913V18.4544C4.05885 17.7644 4.61885 17.2044 5.30885 17.2044C5.99885 17.2044 6.55885 17.7644 6.55885 18.4544V19.2413H7.3501C8.0401 19.2413 8.6001 19.8013 8.6001 20.4913Z" fill="#111111"/>
</svg>
