<?xml version="1.0" encoding="utf-8"?>
<!-- Generator: Adobe Illustrator 16.0.0, SVG Export Plug-In . SVG Version: 6.00 Build 0)  -->
<!DOCTYPE svg PUBLIC "-//W3C//DTD SVG 1.1//EN" "http://www.w3.org/Graphics/SVG/1.1/DTD/svg11.dtd">
<svg version="1.1" id="Layer_1" xmlns="http://www.w3.org/2000/svg" xmlns:xlink="http://www.w3.org/1999/xlink" x="0px" y="0px"
	 width="20px" height="20px" viewBox="0 0 20 20" enable-background="new 0 0 20 20" xml:space="preserve">
<path d="M18.18,4.781h-3.75c0.93-1.422,0.734-3.199-0.441-3.98c-1.184-0.785-2.91-0.27-3.859,1.156
	c-0.047,0.07-0.09,0.141-0.129,0.211c-0.039-0.07-0.082-0.141-0.129-0.211C8.922,0.531,7.195,0.012,6.012,0.801
	C4.836,1.582,4.641,3.359,5.57,4.781H1.82c-0.766,0-1.391,0.621-1.391,1.391v12.012c0,0.762,0.625,1.387,1.391,1.387H18.18
	c0.766,0,1.391-0.625,1.391-1.391V6.172C19.57,5.402,18.945,4.781,18.18,4.781z M17.977,6.375v5.004h-7.18V6.375H17.977z
	 M11.43,2.82c0.406-0.613,0.961-0.828,1.313-0.828c0.148,0,0.273,0.035,0.383,0.105c0.242,0.16,0.305,0.461,0.324,0.629
	c0.043,0.391-0.082,0.832-0.332,1.215c-0.406,0.609-0.961,0.828-1.313,0.828c-0.148,0-0.273-0.035-0.383-0.105
	C11.023,4.395,10.93,3.574,11.43,2.82z M6.551,2.727c0.02-0.164,0.082-0.469,0.324-0.629c0.109-0.07,0.23-0.105,0.383-0.105
	c0.352,0,0.906,0.215,1.313,0.828c0.504,0.754,0.406,1.578,0.012,1.84c-0.109,0.07-0.23,0.105-0.383,0.105
	c-0.352,0-0.906-0.215-1.313-0.828C6.633,3.559,6.512,3.117,6.551,2.727z M9.203,6.375v5.004h-7.18V6.375H9.203z M2.023,12.973h7.18
	v5.004h-7.18V12.973z M10.797,17.977v-5.004h7.176v5.004H10.797z"/>
</svg>
