<svg width="22" height="20" viewBox="0 0 22 20" xmlns="http://www.w3.org/2000/svg">
<path d="M21.9847 6.70825C21.9787 6.63518 21.9719 6.57918 21.9658 6.54073C21.6581 3.22139 19.1011 0.594055 15.7826 0.594055C13.8601 0.594055 12.1032 1.46049 10.9528 2.86512C9.82929 1.45104 8.13933 0.594055 6.22699 0.594055C2.91981 0.594055 0.368709 3.20359 0.0402425 6.55959C0.0339283 6.59869 0.0275712 6.64631 0.0217724 6.70231C-0.034368 7.24451 0.0123226 7.96294 0.229281 8.8383C0.69026 10.6981 1.76822 12.392 3.28861 13.7047L10.3686 19.6331C10.7134 19.9219 11.2295 19.9229 11.5756 19.6356L18.7075 13.7169C20.3885 12.0508 21.3875 10.552 21.7837 8.82492C21.9824 7.95758 22.0287 7.24386 21.9847 6.70825ZM19.9932 8.45266C19.6816 9.81097 18.8527 11.0545 17.4438 12.4552L10.9766 17.8181L4.5091 12.4027C3.26855 11.3315 2.38693 9.94609 2.01293 8.43732C1.84314 7.75222 1.80903 7.22705 1.84958 6.83576L1.86251 6.74797C2.09824 4.22074 3.92931 2.33949 6.22699 2.33949C7.93753 2.33949 9.39284 3.33303 10.1001 4.92874C10.4153 5.6398 11.4733 5.6398 11.7885 4.92874C12.4816 3.36502 14.0401 2.33949 15.7826 2.33949C18.0804 2.33949 19.9114 4.22086 20.1471 6.74883C20.1534 6.79964 20.1551 6.81371 20.1576 6.84427C20.1879 7.21346 20.1527 7.75632 19.9932 8.45266Z" />
</svg>
