<?xml version="1.0" encoding="UTF-8"?>
<svg width="24px" height="26px" viewBox="0 0 24 26" version="1.1" xmlns="http://www.w3.org/2000/svg" xmlns:xlink="http://www.w3.org/1999/xlink">
    <!-- Generator: Sketch 63.1 (92452) - https://sketch.com -->
    <title>user</title>
    <desc>Created with Sketch.</desc>
    <defs>
        <path d="M20,17.5 C23.4517797,17.5 26.25,20.2982203 26.25,23.75 L26.25,23.75 L26.25,26.25 C26.25,26.9403559 25.6903559,27.5 25,27.5 C24.3096441,27.5 23.75,26.9403559 23.75,26.25 L23.75,26.25 L23.75,23.75 C23.75,21.6789322 22.0710678,20 20,20 L20,20 L10,20 C7.92893219,20 6.25,21.6789322 6.25,23.75 L6.25,23.75 L6.25,26.25 C6.25,26.9403559 5.69035594,27.5 5,27.5 C4.30964406,27.5 3.75,26.9403559 3.75,26.25 L3.75,26.25 L3.75,23.75 C3.75,20.2982203 6.54822031,17.5 10,17.5 L10,17.5 Z M15,2.5 C18.4517797,2.5 21.25,5.29822031 21.25,8.75 C21.25,12.2017797 18.4517797,15 15,15 C11.5482203,15 8.75,12.2017797 8.75,8.75 C8.75,5.29822031 11.5482203,2.5 15,2.5 Z M15,5 C12.9289322,5 11.25,6.67893219 11.25,8.75 C11.25,10.8210678 12.9289322,12.5 15,12.5 C17.0710678,12.5 18.75,10.8210678 18.75,8.75 C18.75,6.67893219 17.0710678,5 15,5 Z" id="path-1"></path>
    </defs>
    <g id="product-page" stroke="none" stroke-width="1" fill="none" fill-rule="evenodd">
        <g id="product_page_desktop" transform="translate(-1470.000000, -92.000000)">
            <g id="user" transform="translate(1467.000000, 90.000000)">
                <mask id="mask-2" fill="white">
                    <use xlink:href="#path-1"></use>
                </mask>
                <use id="Combined-Shape" fill="#000000" fill-rule="nonzero" xlink:href="#path-1"></use>
            </g>
        </g>
    </g>
</svg>
