<?xml version="1.0" encoding="UTF-8"?>
<svg width="29px" height="30px" viewBox="0 0 29 30" version="1.1" xmlns="http://www.w3.org/2000/svg" xmlns:xlink="http://www.w3.org/1999/xlink">
    <!-- Generator: Sketch 63.1 (92452) - https://sketch.com -->
    <title>Group 995</title>
    <desc>Created with Sketch.</desc>
    <g id="product-page" stroke="none" stroke-width="1" fill="none" fill-rule="evenodd" stroke-linecap="round" stroke-linejoin="round">
        <g id="product_page_desktop" transform="translate(-1386.000000, -608.000000)" stroke="#000000">
            <g id="Group-995" transform="translate(1386.000000, 608.000000)">
                <path d="M6.875,11.875 L6.875,4.375 C6.875,2.30375 8.55375,0.625 10.625,0.625 L18.125,0.625 C20.19625,0.625 21.875,2.30375 21.875,4.375 L21.875,11.875" id="Stroke-987"></path>
                <line x1="9.375" y1="8.125" x2="19.375" y2="8.125" id="Stroke-989"></line>
                <polyline id="Stroke-991" points="24.375 8.125 28.125 8.125 28.125 29.375 0.625 29.375 0.625 8.125 4.375 8.125"></polyline>
                <path d="M14.5178264,17.4464671 C14.5178264,15.5805836 12.8546562,14.1047695 10.9304158,14.416518 C9.4208162,14.662231 8.375,16.0812239 8.375,17.6107877 L8.375,17.7106087 C8.375,18.5245332 8.69903409,19.3062078 9.27492407,19.8820978 L14.5178264,25.1250001 L19.7607288,19.8820978 C20.3366187,19.3062078 20.6606528,18.5245332 20.6606528,17.7106087 L20.6606528,17.6107877 C20.6606528,16.0812239 19.6148366,14.662231 18.105237,14.416518 C16.1809967,14.1047695 14.5178264,15.5805836 14.5178264,17.4464671" id="Stroke-993" fill="#EE434F"></path>
            </g>
        </g>
    </g>
</svg>
