<?xml version="1.0" encoding="UTF-8"?>
<svg width="21px" height="16px" viewBox="0 0 21 16" version="1.1" xmlns="http://www.w3.org/2000/svg" xmlns:xlink="http://www.w3.org/1999/xlink">
    <!-- Generator: Sketch 63.1 (92452) - https://sketch.com -->
    <title>02 Icons / 24x24 / ic24-arrow-left</title>
    <desc>Created with Sketch.</desc>
    <g id="product-page" stroke="none" stroke-width="1" fill="none" fill-rule="evenodd">
        <g id="product_page_desktop" transform="translate(-379.000000, -943.000000)" fill="#1A1A1A">
            <g id="02-Icons-/-24x24-/-ic24-arrow-left" transform="translate(371.000000, 932.000000)">
                <path d="M17.2902954,11.3871006 L17.2071068,11.2928932 C16.8466228,10.9324093 16.2793918,10.9046797 15.8871006,11.2097046 L15.7928932,11.2928932 L8.79289322,18.2928932 L8.7514958,18.336853 L8.7514958,18.336853 L8.69633458,18.4046934 L8.69633458,18.4046934 L8.62467117,18.5159379 L8.62467117,18.5159379 L8.57122549,18.628664 L8.57122549,18.628664 L8.53584514,18.734007 L8.53584514,18.734007 L8.50690716,18.8819045 L8.50690716,18.8819045 L8.5,19 L8.50278786,19.0752385 L8.50278786,19.0752385 L8.52024007,19.2007258 L8.52024007,19.2007258 L8.54973809,19.3121425 L8.54973809,19.3121425 L8.59367336,19.4232215 L8.59367336,19.4232215 L8.64599545,19.5207088 L8.64599545,19.5207088 L8.71968877,19.625449 L8.71968877,19.625449 L8.79289322,19.7071068 L15.7928932,26.7071068 C16.1834175,27.0976311 16.8165825,27.0976311 17.2071068,26.7071068 C17.5675907,26.3466228 17.5953203,25.7793918 17.2902954,25.3871006 L17.2071068,25.2928932 L11.916,20 L27.5,20 C28.0522847,20 28.5,19.5522847 28.5,19 C28.5,18.4477153 28.0522847,18 27.5,18 L11.914,18 L17.2071068,12.7071068 C17.5675907,12.3466228 17.5953203,11.7793918 17.2902954,11.3871006 L17.2071068,11.2928932 L17.2902954,11.3871006 Z" id="Icon-Color"></path>
            </g>
        </g>
    </g>
</svg>
