<?xml version="1.0" encoding="UTF-8"?>
<svg width="20px" height="16px" viewBox="0 0 20 16" version="1.1" xmlns="http://www.w3.org/2000/svg" xmlns:xlink="http://www.w3.org/1999/xlink">
    <!-- Generator: Sketch 63.1 (92452) - https://sketch.com -->
    <title>02 Icons / 24x24 / ic24-arrow-left Copy</title>
    <desc>Created with Sketch.</desc>
    <g id="product-page" stroke="none" stroke-width="1" fill="none" fill-rule="evenodd">
        <g id="product_page_desktop" transform="translate(-923.000000, -943.000000)" fill="#1A1A1A">
            <g id="02-Icons-/-24x24-/-ic24-arrow-left" transform="translate(933.000000, 951.000000) scale(-1, 1) translate(-933.000000, -951.000000) translate(914.000000, 932.000000)">
                <path d="M17.7902954,11.3871006 L17.7071068,11.2928932 C17.3466228,10.9324093 16.7793918,10.9046797 16.3871006,11.2097046 L16.2928932,11.2928932 L9.29289322,18.2928932 L9.2514958,18.336853 L9.2514958,18.336853 L9.19633458,18.4046934 L9.19633458,18.4046934 L9.12467117,18.5159379 L9.12467117,18.5159379 L9.07122549,18.628664 L9.07122549,18.628664 L9.03584514,18.734007 L9.03584514,18.734007 L9.00690716,18.8819045 L9.00690716,18.8819045 L9,19 L9.00278786,19.0752385 L9.00278786,19.0752385 L9.02024007,19.2007258 L9.02024007,19.2007258 L9.04973809,19.3121425 L9.04973809,19.3121425 L9.09367336,19.4232215 L9.09367336,19.4232215 L9.14599545,19.5207088 L9.14599545,19.5207088 L9.21968877,19.625449 L9.21968877,19.625449 L9.29289322,19.7071068 L16.2928932,26.7071068 C16.6834175,27.0976311 17.3165825,27.0976311 17.7071068,26.7071068 C18.0675907,26.3466228 18.0953203,25.7793918 17.7902954,25.3871006 L17.7071068,25.2928932 L12.416,20 L28,20 C28.5522847,20 29,19.5522847 29,19 C29,18.4477153 28.5522847,18 28,18 L12.414,18 L17.7071068,12.7071068 C18.0675907,12.3466228 18.0953203,11.7793918 17.7902954,11.3871006 L17.7071068,11.2928932 L17.7902954,11.3871006 Z" id="Icon-Color"></path>
            </g>
        </g>
    </g>
</svg>
