<?xml version="1.0" encoding="UTF-8"?>
<svg width="18px" height="22px" viewBox="0 0 18 22" version="1.1" xmlns="http://www.w3.org/2000/svg" xmlns:xlink="http://www.w3.org/1999/xlink">
    <!-- Generator: Sketch 63.1 (92452) - https://sketch.com -->
    <title>bag copy</title>
    <desc>Created with Sketch.</desc>
    <g id="product-page" stroke="none" stroke-width="1" fill="none" fill-rule="evenodd">
        <g id="product_page_desktop" transform="translate(-1135.000000, -611.000000)" fill="#FFFFFF" fill-rule="nonzero" stroke="#FFFFFF" stroke-width="0.5">
            <g id="bag-copy" transform="translate(1132.000000, 610.000000)">
                <path d="M19.6890106,6.32832992 L16.4368701,6.32832992 L16.4368701,6.24569203 C16.4368701,3.90446514 14.532405,2 12.1911781,2 C9.85022217,2 7.94548611,3.90446514 7.94548611,6.24569203 L7.94548611,6.32832992 L4.69361656,6.32832992 C4.31050182,6.32832992 4,6.63883167 4,7.02194648 L4,19.2520862 C4,20.7672049 5.23252417,22 6.74764284,22 L17.6349844,22 C19.150103,22 20.3826271,20.7672049 20.3826271,19.2520862 L20.3826271,7.02194648 C20.3826271,6.63883167 20.0721253,6.32832992 19.6890106,6.32832992 L19.6890106,6.32832992 Z M9.33271923,6.24569203 C9.33271923,4.66933998 10.615097,3.38696219 12.1911781,3.38696219 C13.7675301,3.38696219 15.0499079,4.66933998 15.0499079,6.24569203 L15.0499079,6.32832992 L9.33271923,6.32832992 L9.33271923,6.24569203 Z M18.995394,19.2520862 C18.995394,20.0023301 18.3852282,20.6127669 17.6347134,20.6127669 L6.74764284,20.6127669 C5.99739901,20.6127669 5.38696219,20.0023301 5.38696219,19.2520862 L5.38696219,7.71556304 L7.94548611,7.71556304 L7.94548611,10.4268994 C7.94548611,10.8100141 8.25598793,11.1205159 8.63910267,11.1205159 C9.02221741,11.1205159 9.33271923,10.8100141 9.33271923,10.4268994 L9.33271923,7.71556304 L15.0499079,7.71556304 L15.0499079,10.4268994 C15.0499079,10.8100141 15.3604097,11.1205159 15.7435245,11.1205159 C16.1263683,11.1205159 16.4368701,10.8100141 16.4368701,10.4268994 L16.4368701,7.71556304 L18.995394,7.71556304 L18.995394,19.2520862 Z" id="Combined-Shape"></path>
            </g>
        </g>
    </g>
</svg>
