<?xml version="1.0" encoding="UTF-8"?>
<svg width="64px" height="45px" viewBox="0 0 64 45" version="1.1" xmlns="http://www.w3.org/2000/svg" xmlns:xlink="http://www.w3.org/1999/xlink">
    <!-- Generator: Sketch 63.1 (92452) - https://sketch.com -->
    <title>002-delivery</title>
    <desc>Created with Sketch.</desc>
    <g id="product-page" stroke="none" stroke-width="1" fill="none" fill-rule="evenodd">
        <g id="product_page_desktop" transform="translate(-1233.000000, -708.000000)" fill="#000000" fill-rule="nonzero">
            <g id="002-delivery" transform="translate(1233.000000, 708.000000)">
                <path d="M48,29 C43.5887074,29 40,32.5887074 40,37 C40,41.4112926 43.5887074,45 48,45 C52.4120363,45 56,41.4112926 56,37 C56,32.5887074 52.4112926,29 48,29 Z M48,41 C45.7940438,41 44,39.2059562 44,37 C44,34.7940438 45.7940438,33 48,33 C50.2059562,33 52,34.7940438 52,37 C52,39.2060801 50.2059562,41 48,41 Z" id="Shape"></path>
                <path d="M21,29 C16.5887074,29 13,32.5887074 13,37 C13,41.4112926 16.5887074,45 21,45 C25.4112926,45 29,41.4112926 29,37 C29,32.5887074 25.4112926,29 21,29 Z M21,41 C18.7940438,41 17,39.2059562 17,37 C17,34.7940438 18.7940438,33 21,33 C23.2053364,33 25,34.7940438 25,37 C25,39.2060801 23.2059562,41 21,41 Z" id="Shape"></path>
                <path d="M53.105063,5.11384587 C52.7709967,4.43087094 52.0917813,4 51.3489922,4 L41,4 L41,8.04532272 L50.1371949,8.04532272 L55.4878583,19 L59,17.1822437 L53.105063,5.11384587 Z" id="Path"></path>
                <rect id="Rectangle" x="27" y="35" width="15" height="4"></rect>
                <path d="M14.9877212,35 L8.01215406,35 C6.90069274,35 6,35.8953762 6,37 C6,38.1047477 6.90081745,39 8.01215406,39 L14.9878459,39 C16.0993073,39 17,38.1046238 17,37 C17,35.8952523 16.0991825,35 14.9877212,35 Z" id="Path"></path>
                <path d="M63.5785753,22.3756293 L59.6310154,17.1846885 C59.251758,16.684695 58.6663907,16.3923443 58.0461949,16.3923443 L43.4625133,16.3923443 L43.4625133,2.04899541 C43.4625133,0.917183887 42.5640628,0 41.4556462,0 L8.00686704,0 C6.89832613,0 6,0.917310886 6,2.04899541 C6,3.18067993 6.89845052,4.09799082 8.00686704,4.09799082 L39.4486548,4.09799082 L39.4486548,18.4413397 C39.4486548,19.5731512 40.3471053,20.4903351 41.4555218,20.4903351 L57.0634097,20.4903351 L59.9861415,24.3343287 L59.9861415,34.9020092 L54.4336103,34.9020092 C53.3250694,34.9020092 52.4267433,35.8193201 52.4267433,36.9510046 C52.4267433,38.0828161 53.3251938,39 54.4336103,39 L61.9930086,39 C63.1015495,39 64,38.0826891 64,36.9510046 L64,23.6324074 C64,23.1774985 63.8514814,22.7349083 63.5785753,22.3756293 Z" id="Path"></path>
                <path d="M15.0304547,25 L5.96966737,25 C4.88167459,25 4,25.8953762 4,27 C4,28.1047477 4.88179667,29 5.96966737,29 L15.0303326,29 C16.1183254,29 17,28.1046238 17,27 C17,25.8953762 16.1183254,25 15.0304547,25 Z" id="Path"></path>
                <path d="M19.0063784,16 L1.99362162,16 C0.892520697,16 0,16.8953485 0,18.000062 C0,19.1047755 0.892520697,20 1.99362162,20 L19.0063784,20 C20.1076029,20 21,19.1046515 21,18.000062 C21,16.8954724 20.1076029,16 19.0063784,16 Z" id="Path"></path>
                <path d="M23.0063784,8 L5.99362162,8 C4.89239713,8 4,8.89537622 4,10 C4,11.1047477 4.8925207,12 5.99362162,12 L23.0063784,12 C24.1076029,12 25,11.1046238 25,10 C25,8.89537622 24.1076029,8 23.0063784,8 Z" id="Path"></path>
            </g>
        </g>
    </g>
</svg>
