<?xml version="1.0" encoding="UTF-8"?>
<svg width="20px" height="20px" viewBox="0 0 20 20" version="1.1" xmlns="http://www.w3.org/2000/svg" xmlns:xlink="http://www.w3.org/1999/xlink">
    <!-- Generator: Sketch 63.1 (92452) - https://sketch.com -->
    <title>02 Icons / 24x24 / ic24-phone</title>
    <desc>Created with Sketch.</desc>
    <g id="product-page" stroke="none" stroke-width="1" fill="none" fill-rule="evenodd">
        <g id="product_page_desktop" transform="translate(-1418.000000, -98.000000)" fill="#1A1A1A">
            <g id="02-Icons-/-24x24-/-ic24-phone-in-talk" transform="translate(1416.000000, 96.000000)">
                <path d="M9.5547002,9.83205029 C9.83289886,9.64658452 10,9.33435319 10,9 L10,5 C10,3.34314575 8.65685425,2 7,2 L3,2 C2.44771525,2 2,2.44771525 2,3 C2,12.9411255 11.0588745,22 21,22 C21.5522847,22 22,21.5522847 22,21 L22,17 C22,15.3431458 20.6568542,14 19,14 L15,14 C14.6656468,14 14.3534155,14.1671011 14.1679497,14.4452998 L12.2626046,17.3033175 C10.187391,15.961484 8.36924805,14.1891773 6.97074067,12.1489624 L6.6966825,11.7373954 L9.5547002,9.83205029 Z M15.5351838,16 L19,16 C19.5522847,16 20,16.4477153 20,17 L20,19.9653271 C18.0627576,19.8312776 16.1721397,19.3131585 14.4087453,18.4915688 L14.0041032,18.2966209 L15.5351838,16 Z M14,6 C16.209139,6 18,7.790861 18,10 C18,10.5522847 17.5522847,11 17,11 C16.4871642,11 16.0644928,10.6139598 16.0067277,10.1166211 L15.9945143,9.85073766 C15.9181651,8.81587779 15.0543618,8 14,8 C13.4477153,8 13,7.55228475 13,7 C13,6.44771525 13.4477153,6 14,6 Z M14,2 C18.418278,2 22,5.581722 22,10 C22,10.5522847 21.5522847,11 21,11 C20.4477153,11 20,10.5522847 20,10 C20,6.6862915 17.3137085,4 14,4 C13.4477153,4 13,3.55228475 13,3 C13,2.44771525 13.4477153,2 14,2 Z M7,4 C7.55228475,4 8,4.44771525 8,5 L8,8.46481624 L5.70337914,9.99589681 C4.76882476,8.11844872 4.17903392,6.08626103 4.03467288,4 L7,4 Z" id="Icon-Color"></path>
            </g>
        </g>
    </g>
</svg>
