<?xml version="1.0" encoding="UTF-8"?>
<svg width="50px" height="50px" viewBox="0 0 50 50" version="1.1" xmlns="http://www.w3.org/2000/svg" xmlns:xlink="http://www.w3.org/1999/xlink">
    <!-- Generator: Sketch 63.1 (92452) - https://sketch.com -->
    <title>return</title>
    <desc>Created with Sketch.</desc>
    <g id="product-page" stroke="none" stroke-width="1" fill="none" fill-rule="evenodd">
        <g id="product_page_desktop" transform="translate(-1456.000000, -708.000000)" fill="#000000" fill-rule="nonzero">
            <g id="return" transform="translate(1456.000000, 708.000000)">
                <path d="M40.0390625,0 C40.8481598,0 41.5039062,0.655746484 41.5039062,1.46484375 L41.5039062,20.9011078 C46.6175079,23.4592437 50,28.7113189 50,34.6435547 C50,43.1243896 43.1243896,50 34.6435547,50 C28.7113189,50 23.4592437,46.6175079 20.9011078,41.5039062 L1.46484375,41.5039062 C0.655746484,41.5039062 0,40.8481598 0,40.0390625 L0,1.46484375 C0,0.655746484 0.655746484,0 1.46484375,0 L40.0390625,0 Z M27.734375,2.9296875 L27.734375,11.138916 C27.734375,12.1921539 26.6105652,13.0027771 25.5130768,12.3931885 L20.7519531,9.97390742 L15.8924103,12.4435425 C14.9169922,12.9375458 13.7722016,12.216568 13.7729645,11.138916 L13.7695313,2.9296875 L2.9296875,2.9296875 L2.9296875,38.5742188 L19.7952271,38.5742188 C18.3773041,33.2054139 19.9718476,27.5981903 23.7850189,23.7850189 C27.5981903,19.9718476 33.2054139,18.3773041 38.5742188,19.7952271 L38.5742188,2.9296875 L27.734375,2.9296875 Z M29.9804688,41.1132812 L36.8160248,41.1132812 C38.3769989,41.1132812 39.793396,40.4773712 40.8187866,39.4515991 C41.8968201,38.3739472 42.4804688,36.977768 42.4804688,35.3519439 C42.4804688,32.2299957 39.937973,29.6875 36.8160248,29.6875 L32.7453613,29.6875 L33.6051941,28.8261414 C34.9597931,27.4635314 32.8884125,25.4039765 31.5338135,26.7662049 L28.1742096,30.1319122 C27.6054383,30.7037354 27.6077271,31.6287994 28.1799316,32.1975708 L31.5460205,35.5571747 C32.9082489,36.9117736 34.9681854,34.8403931 33.605957,33.485794 L32.7354432,32.6171875 L36.8160248,32.6171875 C38.4021759,32.6171875 39.5507813,33.8851929 39.5507813,35.4488373 C39.5507813,36.9533539 38.3205414,38.1835938 36.8160248,38.1835938 L29.9804688,38.1835938 C29.1713715,38.1835938 28.515625,38.8393402 28.515625,39.6484375 C28.515625,40.4575348 29.1713715,41.1132812 29.9804688,41.1132812 L29.9804688,41.1132812 Z M25.8563995,25.8563995 C21.0037231,30.7094574 21.0037231,38.5780334 25.8563995,43.4307099 C30.7094574,48.2837677 38.5780334,48.2837677 43.4307099,43.4307099 C48.2837677,38.5780334 48.2837677,30.7094574 43.4307099,25.8563995 C38.5780334,21.0037231 30.709076,21.0037231 25.8563995,25.8563995 Z M24.8046875,2.9296875 L16.6992188,2.9296875 L16.6992188,8.75549316 L20.0904846,7.03201289 C20.4906464,6.82907109 20.9785461,6.81266787 21.4099884,7.03010557 L24.8046875,8.75549316 L24.8046875,2.9296875 Z" id="Shape"></path>
            </g>
        </g>
    </g>
</svg>
