<?xml version="1.0" encoding="UTF-8"?>
<svg width="43px" height="50px" viewBox="0 0 43 50" version="1.1" xmlns="http://www.w3.org/2000/svg" xmlns:xlink="http://www.w3.org/1999/xlink">
    <!-- Generator: Sketch 63.1 (92452) - https://sketch.com -->
    <title>001-verified</title>
    <desc>Created with Sketch.</desc>
    <g id="product-page" stroke="none" stroke-width="1" fill="none" fill-rule="evenodd">
        <g id="product_page_desktop" transform="translate(-1022.000000, -708.000000)" fill="#000000" fill-rule="nonzero">
            <g id="001-verified" transform="translate(1022.000000, 708.000000)">
                <path d="M40.953538,8.09628279 L21.8268133,0.149304311 C21.3476693,-0.0497192724 20.8090959,-0.0498169288 20.3300495,0.149304311 L1.20332471,8.09628279 C0.474850218,8.39901738 0,9.11073666 0,9.9000927 L0,19.5607443 C0,32.8628048 8.03410267,44.8283409 20.3408814,49.8552001 C20.8135848,50.0482666 21.3431804,50.0482666 21.8159813,49.8552001 C34.1225649,44.8284386 42.1568627,32.8629025 42.1568627,19.5607443 L42.1568627,9.9000927 C42.1568627,9.11073666 41.6821101,8.39901738 40.953538,8.09628279 Z M38.2534495,19.5607443 C38.2534495,30.8688581 31.6176471,41.278729 21.0784314,45.9254121 C10.8208469,41.4028501 3.90341322,31.1753036 3.90341322,19.5607443 L3.90341322,11.2039999 L21.0784314,4.06786187 L38.2534495,11.2039999 L38.2534495,19.5607443 Z M18.9212101,26.1441476 L27.3100354,17.7493172 C28.0721768,16.9866213 29.3078999,16.9865237 30.0701389,17.7493172 C30.8323779,18.5121107 30.8322803,19.7487327 30.0700413,20.5114286 L20.3012618,30.2873147 C19.5389252,31.0502058 18.3032022,31.0499129 17.5411583,30.2873147 L12.0867239,24.8289122 C11.3244848,24.0661187 11.3244848,22.8294967 12.0867239,22.0668008 C12.8489629,21.304105 14.0846859,21.3040073 14.8468273,22.0668008 L18.9212101,26.1441476 Z" id="Shape"></path>
            </g>
        </g>
    </g>
</svg>
