<?xml version="1.0" ?><!DOCTYPE svg  PUBLIC '-//W3C//DTD SVG 1.1//EN'  'http://www.w3.org/Graphics/SVG/1.1/DTD/svg11.dtd'><svg enable-background="new 0 0 100 100" height="100px" id="Your_Icon" version="1.1" viewBox="0 0 100 100" width="100px" xml:space="preserve" xmlns="http://www.w3.org/2000/svg" xmlns:xlink="http://www.w3.org/1999/xlink"><g><path d="M93.578,86.696L71.869,64.987c4.842-6.29,7.719-14.155,7.719-22.691c0-20.562-16.732-37.294-37.294-37.294   C21.732,5.001,5,21.733,5,42.295c0,20.562,16.732,37.294,37.294,37.294c8.526,0,16.411-2.878,22.701-7.719l21.709,21.709   c0.943,0.943,2.187,1.419,3.432,1.419c1.244,0,2.489-0.476,3.442-1.419C95.474,91.674,95.474,88.602,93.578,86.696z M14.722,42.295   c0-15.205,12.367-27.572,27.572-27.572c15.205,0,27.572,12.366,27.572,27.572S57.499,69.867,42.294,69.867   C27.089,69.867,14.722,57.501,14.722,42.295z"/></g></svg>
