<?xml version="1.0" encoding="utf-8"?>
<svg width="78px" height="83px" viewBox="0 0 78 83" version="1.1" xmlns="http://www.w3.org/2000/svg">
  <title>Group 32</title>
  <defs>
    <polygon id="path-1" points="0.205165138 0.135810606 54.5403211 0.135810606 54.5403211 64.9999015 0.205165138 64.9999015"/>
    <polygon id="path-3" points="0 0.444 9.96515789 0.444 9.96515789 10.8949 0 10.8949"/>
    <polygon id="path-5" points="0 83 78 83 78 1 0 1"/>
  </defs>
  <path d="M 59.437 33.13 C 59.437 38.617 54.879 43.065 49.256 43.065 C 43.634 43.065 39.076 38.617 39.076 33.13 C 39.076 27.643 43.634 23.196 49.256 23.196 C 54.879 23.196 59.437 27.643 59.437 33.13 M 33.933 43.656 C 35.876 45.538 38.29 46.928 40.987 47.585 L 57.526 47.586 L 57.526 73.145 L 40.987 73.145 L 40.987 47.586 C 29.105 47.586 23.205 53.3 23.205 61.936 C 23.205 74.1 35.665 82 49.338 82 C 63.04 82 77.541 71.527 77.541 51.695 L 77.541 17.136 L 45.494 17.136 C 31.345 17.136 23.891 33.928 33.933 43.656" id="Fill-1" fill="#010202" style="" stroke="none" stroke-width="1" fill-rule="evenodd"/>
  <polygon points="23.205 17.136 77.54 17.136 77.54 82 23.205 82" stroke="none" stroke-width="1" fill="none" fill-rule="evenodd"/>
  <mask id="mask-4" fill="white" stroke="none" stroke-width="1" fill-rule="evenodd">
    <polygon points="0 0.444 9.96515789 0.444 9.96515789 10.8949 0 10.8949" transform="matrix(1, 0, 0, 1, 0, 0)"/>
  </mask>
  <path d="M 2.388 10.22 C 3.161 10.67 4.081 10.895 5.145 10.895 C 5.796 10.895 6.36 10.808 6.838 10.635 C 7.316 10.461 7.713 10.183 8.029 9.799 L 8.117 10.656 L 9.936 10.656 L 9.936 4.981 L 4.938 4.981 L 4.938 6.891 L 7.777 6.891 L 7.777 6.934 C 7.777 7.552 7.565 8.036 7.141 8.387 C 6.718 8.739 6.116 8.914 5.337 8.914 C 4.45 8.914 3.746 8.636 3.223 8.078 C 2.701 7.521 2.44 6.709 2.44 5.641 C 2.44 4.602 2.708 3.811 3.246 3.267 C 3.783 2.724 4.495 2.452 5.382 2.452 C 5.914 2.452 6.41 2.551 6.868 2.748 C 7.326 2.944 7.856 3.291 8.457 3.787 L 9.965 2.298 C 9.236 1.624 8.519 1.146 7.815 0.865 C 7.109 0.585 6.299 0.444 5.382 0.444 C 4.278 0.444 3.32 0.669 2.506 1.118 C 1.693 1.568 1.072 2.188 0.644 2.979 C 0.214 3.771 0 4.663 0 5.655 C 0 6.667 0.205 7.568 0.614 8.359 C 1.023 9.151 1.614 9.771 2.388 10.22" id="Fill-4" fill="#010202" stroke="none" stroke-width="1" fill-rule="evenodd" mask="url(#mask-4)"/>
  <path d="M 13.72 11 C 14.76 11 15.508 10.643 15.964 9.927 L 15.964 10.747 L 18 10.747 L 18 3 L 15.771 3 L 15.771 7.574 C 15.771 8.07 15.649 8.44 15.407 8.683 C 15.164 8.927 14.82 9.048 14.374 9.048 C 13.611 9.048 13.229 8.656 13.229 7.871 L 13.229 3 L 11 3 L 11 8.467 C 11 9.272 11.223 9.895 11.669 10.337 C 12.115 10.779 12.799 11 13.72 11" id="Fill-7" fill="#010202" stroke="none" stroke-width="1" fill-rule="evenodd"/>
  <path d="M 20.767 5.454 C 21.098 5.067 21.529 4.873 22.06 4.873 C 22.562 4.873 22.98 5.067 23.316 5.454 C 23.652 5.841 23.82 6.359 23.82 7.007 C 23.82 7.647 23.654 8.164 23.324 8.561 C 22.992 8.958 22.566 9.156 22.045 9.156 C 21.504 9.156 21.073 8.96 20.752 8.568 C 20.431 8.176 20.271 7.656 20.271 7.007 C 20.271 6.359 20.436 5.841 20.767 5.454 M 19.677 10.514 C 20.203 10.838 20.797 11 21.459 11 C 22.541 11 23.358 10.618 23.91 9.853 L 23.91 10.767 L 26 10.767 L 26 3.218 L 23.744 3.218 L 23.744 3.9 C 23.203 3.3 22.446 3 21.474 3 C 20.802 3 20.203 3.162 19.677 3.486 C 19.15 3.811 18.739 4.275 18.443 4.881 C 18.148 5.486 18 6.194 18 7.007 C 18 7.811 18.148 8.515 18.443 9.12 C 18.739 9.725 19.15 10.19 19.677 10.514" id="Fill-9" fill="#010202" stroke="none" stroke-width="1" fill-rule="evenodd"/>
  <path d="M 28.963 4.255 L 28.963 3.136 L 27 3.136 L 27 11 L 29.119 11 L 29.119 7.28 C 29.119 6.605 29.255 6.073 29.528 5.684 C 29.801 5.296 30.173 5.102 30.644 5.102 C 30.86 5.102 31.18 5.158 31.604 5.268 L 32 3.272 C 31.491 3.091 31.091 3 30.799 3 C 29.971 3 29.358 3.418 28.963 4.255" id="Fill-11" fill="#010202" stroke="none" stroke-width="1" fill-rule="evenodd"/>
  <path d="M 37.324 8.561 C 36.993 8.958 36.567 9.156 36.045 9.156 C 35.504 9.156 35.073 8.96 34.752 8.568 C 34.431 8.176 34.271 7.656 34.271 7.007 C 34.271 6.359 34.436 5.841 34.767 5.454 C 35.098 5.067 35.528 4.873 36.06 4.873 C 36.561 4.873 36.98 5.067 37.316 5.454 C 37.652 5.841 37.82 6.359 37.82 7.007 C 37.82 7.646 37.654 8.164 37.324 8.561 L 37.324 8.561 Z M 37.744 3.9 C 37.203 3.3 36.446 3 35.474 3 C 34.802 3 34.203 3.162 33.677 3.486 C 33.15 3.811 32.739 4.275 32.444 4.88 C 32.148 5.485 32 6.194 32 7.007 C 32 7.811 32.148 8.515 32.444 9.12 C 32.739 9.725 33.15 10.189 33.677 10.513 C 34.203 10.838 34.797 11 35.459 11 C 36.541 11 37.358 10.618 37.91 9.853 L 37.91 10.767 L 40 10.767 L 40 3.218 L 37.744 3.218 L 37.744 3.9 Z" id="Fill-13" fill="#010202" stroke="none" stroke-width="1" fill-rule="evenodd"/>
  <path d="M 45.282 3 C 44.785 3 44.344 3.099 43.959 3.297 C 43.574 3.496 43.265 3.763 43.031 4.1 L 43.031 3.267 L 41 3.267 L 41 11 L 43.191 11 L 43.191 6.375 C 43.191 5.929 43.314 5.578 43.558 5.319 C 43.801 5.062 44.127 4.933 44.536 4.933 C 44.946 4.933 45.26 5.054 45.479 5.297 C 45.698 5.54 45.808 5.885 45.808 6.33 L 45.808 11 L 48 11 L 48 5.706 C 48 4.883 47.761 4.226 47.284 3.736 C 46.806 3.245 46.138 3 45.282 3" id="Fill-15" fill="#010202" stroke="none" stroke-width="1" fill-rule="evenodd"/>
  <path d="M 52.961 9.088 C 52.743 9.088 52.577 9.039 52.463 8.942 C 52.349 8.845 52.292 8.664 52.292 8.402 L 52.292 4.854 L 53.891 4.854 L 53.891 3.219 L 52.292 3.219 L 52.292 1 L 50.243 1 L 50.243 3.219 L 49 3.219 L 49 4.854 L 50.243 4.854 L 50.243 8.796 C 50.243 9.565 50.407 10.124 50.735 10.475 C 51.063 10.825 51.609 11 52.374 11 C 52.875 11 53.417 10.908 54 10.723 L 53.768 8.971 C 53.431 9.049 53.162 9.088 52.961 9.088" id="Fill-17" fill="#010202" stroke="none" stroke-width="1" fill-rule="evenodd"/>
  <path d="M 57.016 6.113 C 57.115 5.681 57.297 5.335 57.56 5.076 C 57.823 4.816 58.169 4.687 58.596 4.687 C 59.031 4.687 59.371 4.811 59.617 5.061 C 59.862 5.311 60.007 5.662 60.053 6.113 L 57.016 6.113 Z M 62 6.791 C 62 5.6 61.71 4.67 61.128 4.002 C 60.548 3.334 59.712 3 58.622 3 C 57.878 3 57.231 3.175 56.682 3.526 C 56.133 3.877 55.715 4.358 55.429 4.968 C 55.143 5.578 55 6.267 55 7.036 C 55 7.834 55.154 8.53 55.463 9.126 C 55.772 9.722 56.212 10.183 56.784 10.509 C 57.356 10.836 58.028 11 58.8 11 C 59.399 11 59.955 10.892 60.468 10.676 C 60.981 10.459 61.491 10.092 62 9.573 L 60.884 8.218 C 60.493 8.564 60.153 8.809 59.862 8.953 C 59.571 9.097 59.236 9.169 58.854 9.169 C 58.337 9.169 57.919 9.032 57.601 8.758 C 57.283 8.484 57.074 8.108 56.975 7.627 L 61.973 7.627 C 61.991 7.416 62 7.137 62 6.791 L 62 6.791 Z" id="Fill-19" fill="#010202" stroke="none" stroke-width="1" fill-rule="evenodd"/>
  <path d="M 64.015 6.113 C 64.115 5.681 64.297 5.335 64.56 5.076 C 64.823 4.816 65.169 4.687 65.595 4.687 C 66.031 4.687 66.371 4.811 66.617 5.061 C 66.862 5.311 67.007 5.662 67.053 6.113 L 64.015 6.113 Z M 69 6.791 C 69 5.6 68.71 4.67 68.128 4.002 C 67.547 3.334 66.712 3 65.622 3 C 64.878 3 64.231 3.175 63.682 3.526 C 63.132 3.877 62.715 4.358 62.429 4.968 C 62.143 5.578 62 6.267 62 7.036 C 62 7.834 62.154 8.53 62.463 9.126 C 62.772 9.722 63.212 10.183 63.784 10.509 C 64.356 10.836 65.028 11 65.8 11 C 66.399 11 66.955 10.892 67.468 10.676 C 67.981 10.459 68.491 10.092 69 9.573 L 67.884 8.218 C 67.493 8.564 67.152 8.809 66.862 8.953 C 66.571 9.097 66.235 9.169 65.854 9.169 C 65.337 9.169 64.919 9.032 64.601 8.758 C 64.283 8.484 64.074 8.108 63.975 7.627 L 68.973 7.627 C 68.991 7.416 69 7.137 69 6.791 L 69 6.791 Z" id="Fill-21" fill="#010202" stroke="none" stroke-width="1" fill-rule="evenodd"/>
  <path d="M 75.324 8.686 C 74.993 9.062 74.566 9.251 74.045 9.251 C 73.504 9.251 73.073 9.065 72.751 8.693 C 72.431 8.321 72.271 7.827 72.271 7.212 C 72.271 6.597 72.436 6.105 72.767 5.738 C 73.098 5.371 73.528 5.187 74.06 5.187 C 74.561 5.187 74.98 5.371 75.315 5.738 C 75.652 6.105 75.82 6.597 75.82 7.212 C 75.82 7.818 75.654 8.309 75.324 8.686 L 75.324 8.686 Z M 75.744 1 L 75.744 4.264 C 75.203 3.695 74.446 3.41 73.474 3.41 C 72.802 3.41 72.203 3.564 71.677 3.872 C 71.15 4.18 70.739 4.62 70.444 5.194 C 70.148 5.768 70 6.44 70 7.212 C 70 7.974 70.148 8.642 70.444 9.216 C 70.739 9.79 71.15 10.231 71.677 10.538 C 72.203 10.846 72.797 11 73.459 11 C 74.541 11 75.358 10.637 75.91 9.912 L 75.91 10.779 L 78 10.779 L 78 1 L 75.744 1 Z" id="Fill-23" fill="#010202" stroke="none" stroke-width="1" fill-rule="evenodd"/>
  <mask id="mask-6" fill="white" stroke="none" stroke-width="1" fill-rule="evenodd">
    <polygon points="0 83 78 83 78 1 0 1" transform="matrix(1, 0, 0, 1, 0, 0)"/>
  </mask>
  <polygon id="Fill-25" fill="#010202" mask="url(#mask-6)" points="1 25 3 25 3 15 1 15" stroke="none" stroke-width="1" fill-rule="evenodd"/>
  <path d="M 6.963 18.255 L 6.963 17.136 L 5 17.136 L 5 25 L 7.119 25 L 7.119 21.28 C 7.119 20.605 7.255 20.073 7.528 19.684 C 7.801 19.296 8.173 19.102 8.644 19.102 C 8.86 19.102 9.18 19.158 9.604 19.268 L 10 17.272 C 9.491 17.091 9.09 17 8.799 17 C 7.971 17 7.358 17.418 6.963 18.255" id="Fill-27" fill="#010202" mask="url(#mask-6)" stroke="none" stroke-width="1" fill-rule="evenodd"/>
  <polygon id="Fill-28" fill="#010202" mask="url(#mask-6)" points="11 24 13 24 13 17 11 17" stroke="none" stroke-width="1" fill-rule="evenodd"/>
  <path d="M 19.785 20.603 C 19.369 20.411 18.801 20.233 18.082 20.07 C 17.718 19.993 17.404 19.921 17.141 19.854 C 16.877 19.787 16.697 19.717 16.602 19.645 C 16.506 19.573 16.458 19.469 16.458 19.335 C 16.458 19.152 16.556 19.009 16.753 18.903 C 16.949 18.797 17.215 18.744 17.551 18.744 C 17.943 18.744 18.309 18.804 18.65 18.924 C 18.99 19.045 19.366 19.268 19.778 19.595 L 20.914 18.21 C 20.387 17.769 19.867 17.457 19.354 17.273 C 18.841 17.091 18.259 17 17.607 17 C 16.946 17 16.374 17.113 15.89 17.339 C 15.406 17.564 15.038 17.87 14.784 18.254 C 14.53 18.638 14.403 19.056 14.403 19.508 C 14.403 19.921 14.487 20.267 14.654 20.546 C 14.822 20.825 15.105 21.063 15.502 21.259 C 15.9 21.456 16.453 21.637 17.162 21.8 L 17.607 21.9 C 18.087 21.997 18.422 22.088 18.614 22.175 C 18.806 22.261 18.901 22.405 18.901 22.607 C 18.901 22.809 18.795 22.967 18.585 23.083 C 18.374 23.198 18.106 23.256 17.78 23.256 C 17.33 23.256 16.922 23.184 16.559 23.04 C 16.194 22.895 15.749 22.612 15.222 22.189 L 14 23.558 C 14.595 24.087 15.183 24.459 15.768 24.676 C 16.352 24.892 17 25 17.708 25 C 18.398 25 18.99 24.892 19.484 24.676 C 19.977 24.459 20.353 24.162 20.612 23.781 C 20.871 23.402 21 22.972 21 22.492 C 21 22.021 20.902 21.637 20.705 21.339 C 20.509 21.041 20.202 20.796 19.785 20.603" id="Fill-29" fill="#010202" mask="url(#mask-6)" stroke="none" stroke-width="1" fill-rule="evenodd"/>
  <path d="M 25.281 17.423 C 24.414 17.423 23.718 17.709 23.192 18.282 L 23.192 15 L 21 15 L 21 25 L 23.192 25 L 23.192 20.648 C 23.192 20.226 23.316 19.888 23.564 19.634 C 23.813 19.38 24.137 19.253 24.536 19.253 C 24.945 19.253 25.26 19.371 25.479 19.605 C 25.698 19.841 25.808 20.174 25.808 20.606 L 25.808 25 L 28 25 L 28 19.986 C 28 19.207 27.761 18.585 27.284 18.12 C 26.807 17.655 26.139 17.423 25.281 17.423" id="Fill-30" fill="#010202" mask="url(#mask-6)" stroke="none" stroke-width="1" fill-rule="evenodd"/>
  <path d="M 13 15 C 13 15.553 12.552 16 12 16 C 11.448 16 11 15.553 11 15 C 11 14.448 11.448 14 12 14 C 12.552 14 13 14.448 13 15" id="Fill-31" fill="#010202" mask="url(#mask-6)" stroke="none" stroke-width="1" fill-rule="evenodd"/>
</svg>
