<?xml version="1.0" encoding="utf-8"?>
<svg width="20px" height="16px" viewBox="0 0 20 16" version="1.1" xmlns="http://www.w3.org/2000/svg">
  <title>02 Icons / 24x24 / ic24-arrow-left Copy</title>
  <desc>Created with Sketch.</desc>
  <path d="M 8.79 15.613 L 8.707 15.707 C 8.347 16.068 7.779 16.095 7.387 15.79 L 7.293 15.707 L 0.293 8.707 L 0.251 8.663 L 0.251 8.663 L 0.196 8.595 L 0.196 8.595 L 0.125 8.484 L 0.125 8.484 L 0.071 8.371 L 0.071 8.371 L 0.036 8.266 L 0.036 8.266 L 0.007 8.118 L 0.007 8.118 L 0 8 L 0.003 7.925 L 0.003 7.925 L 0.02 7.799 L 0.02 7.799 L 0.05 7.688 L 0.05 7.688 L 0.094 7.577 L 0.094 7.577 L 0.146 7.479 L 0.146 7.479 L 0.22 7.375 L 0.22 7.375 L 0.293 7.293 L 7.293 0.293 C 7.683 -0.098 8.317 -0.098 8.707 0.293 C 9.068 0.653 9.095 1.221 8.79 1.613 L 8.707 1.707 L 3.416 7 L 19 7 C 19.552 7 20 7.448 20 8 C 20 8.552 19.552 9 19 9 L 3.414 9 L 8.707 14.293 C 9.068 14.653 9.095 15.221 8.79 15.613 L 8.707 15.707 L 8.79 15.613 Z" id="Icon-Color" transform="matrix(-1, 0, 0, -1, 20, 15.999704)" stroke="none" fill-rule="evenodd"/>
</svg>
