<?xml version="1.0" encoding="utf-8"?>
<svg width="40px" height="38px" viewBox="0 0 40 38" version="1.1" xmlns="http://www.w3.org/2000/svg">
  <title>002-star</title>
  <g id="desktop" stroke="none" stroke-width="1" fill="none" fill-rule="evenodd">
    <g id="MENU_desktop-Copy" transform="translate(-1269.000000, -725.000000)" fill-rule="nonzero" stroke="#000000" stroke-width="3">
      <g id="Group-7" transform="translate(1271.000000, 727.000000)">
        <g id="002-star">
          <path d="M35.9058122,12.8466701 C35.6687786,12.1282592 35.0222234,11.6196329 34.2603098,11.5516898 L23.8681836,10.6218702 L19.7611569,1.14555949 C19.4579296,0.44934517 18.7679777,0 18.0000216,0 C17.2320656,0 16.5418389,0.44934517 16.2405343,1.14555949 L12.1335076,10.6218702 L1.73973339,11.5516898 C0.977819881,11.6209864 0.332637941,12.1296126 0.094230985,12.8466701 C-0.142802676,13.565081 0.076103232,14.3530592 0.652344965,14.8511285 L8.50796401,21.6397596 L6.19173608,31.6937224 C6.0222694,32.4329764 6.31341146,33.1974046 6.93579648,33.6407945 C7.27033531,33.880355 7.66337714,34 8.05779233,34 C8.39672576,34 8.73593383,33.9112137 9.03888639,33.7325584 L18.0000216,28.4519406 L26.9595088,33.7325584 C27.6167759,34.119645 28.443235,34.0841846 29.0642467,33.6407945 C29.6866317,33.1974046 29.9777738,32.4329764 29.8083072,31.6937224 L27.4920792,21.6397596 L35.3476983,14.8511285 C35.9236653,14.3530592 36.1428459,13.5667052 35.9058122,12.8466701 Z" id="Path" style="fill: rgb(252, 159, 199);"/>
        </g>
      </g>
    </g>
  </g>
</svg>
