<?xml version="1.0" encoding="utf-8"?>
<svg version="1.1" id="Layer_1" x="0px" y="0px" width="40px" height="40px" viewBox="0 0 40 40" enable-background="new 0 0 40 40" xmlns="http://www.w3.org/2000/svg">
  <title>Group 16</title>
  <path id="Fill-1" fill="#FFFFFF" d="M 5 27.265 L 5 18.75 L 5 11.25 C 5 10.731 5.48 9.855 5.958 10.06 L 19.562 16.41 C 19.828 16.523 20 16.786 20 17.076 L 20 34.276 C 20 34.796 19.469 35.146 18.991 34.941 L 5.387 28.591 C 5.123 28.477 5 27.553 5 27.265"/>
  <polygon id="Fill-3" points="21.25 16.172 38.398 8.554 38.398 28.555 21.25 36.016" style="fill: rgb(252, 159, 199);"/>
  <polygon id="Fill-5" points="4.18 8.867 13.203 4.843 28.516 12.383 20.509 16.093" style="fill: rgb(252, 159, 199);"/>
  <polygon id="Fill-7" points="13.633 4.57 22.098 0.795 37.969 8.086 29.961 11.796" style="fill: rgb(252, 159, 199);"/>
  <path id="Fill-9" fill="#0E030E" d="M 37.5 27.926 L 22.5 34.355 L 22.5 17.073 L 37.5 10.646 L 37.5 27.926 Z M 6.922 8.75 L 12.5 6.36 L 26.828 12.5 L 21.25 14.891 L 6.922 8.75 Z M 30 11.141 L 15.672 5 L 21.25 2.61 L 35.578 8.75 L 30 11.141 Z M 40 8.756 L 40 8.75 C 40 8.606 39.967 8.469 39.92 8.335 C 39.908 8.306 39.899 8.277 39.887 8.249 C 39.828 8.119 39.755 7.999 39.658 7.895 C 39.647 7.884 39.633 7.875 39.623 7.864 C 39.564 7.808 39.506 7.752 39.439 7.707 C 39.39 7.676 39.335 7.656 39.283 7.632 C 39.268 7.625 39.258 7.61 39.242 7.602 L 21.742 0.103 C 21.738 0.102 21.734 0.102 21.732 0.101 C 21.609 0.05 21.477 0.03 21.343 0.02 C 21.314 0.015 21.283 0 21.252 0 C 21.195 0 21.139 0.025 21.08 0.034 C 20.974 0.047 20.867 0.059 20.77 0.1 C 20.766 0.101 20.762 0.1 20.758 0.102 L 12.038 3.838 L 12.037 3.838 L 3.257 7.601 C 3.244 7.607 3.234 7.621 3.22 7.628 C 3.166 7.653 3.111 7.673 3.061 7.706 C 2.994 7.751 2.935 7.807 2.877 7.863 C 2.866 7.875 2.853 7.883 2.842 7.894 C 2.745 7.999 2.671 8.119 2.614 8.249 C 2.601 8.277 2.591 8.306 2.58 8.335 C 2.533 8.469 2.5 8.606 2.5 8.75 L 2.5 8.756 L 2.5 8.757 L 2.5 20 C 2.5 20.691 3.059 21.25 3.75 21.25 C 4.441 21.25 5 20.691 5 20 L 5 10.646 L 20 17.073 L 20 36.25 C 20 36.4 20.036 36.546 20.087 36.684 C 20.098 36.713 20.108 36.745 20.122 36.773 C 20.18 36.899 20.256 37.015 20.352 37.117 C 20.37 37.134 20.391 37.148 20.41 37.165 C 20.459 37.211 20.505 37.259 20.56 37.294 C 20.602 37.321 20.651 37.335 20.695 37.357 C 20.734 37.378 20.773 37.399 20.817 37.416 C 20.957 37.467 21.102 37.502 21.25 37.502 C 21.425 37.502 21.59 37.465 21.742 37.4 L 39.242 29.9 C 39.703 29.702 40 29.251 40 28.75 L 40 8.757 L 40 8.756 Z"/>
  <path id="Fill-12" fill="#0E030E" d="M 30.25 27.709 C 30.412 27.709 30.574 27.679 30.731 27.612 L 34.231 26.154 L 34.232 26.154 C 34.384 26.089 34.523 25.996 34.637 25.879 C 34.693 25.824 34.721 25.754 34.765 25.69 C 34.811 25.62 34.869 25.559 34.904 25.482 C 34.965 25.331 34.999 25.169 34.999 25.003 L 35 25 L 35 21.25 C 35 20.559 34.441 20 33.75 20 C 33.059 20 32.5 20.559 32.5 21.25 L 32.5 24.168 L 29.77 25.305 C 29.131 25.571 28.831 26.303 29.097 26.94 C 29.297 27.42 29.76 27.709 30.25 27.709"/>
  <path id="Fill-14" fill="#0E030E" d="M 10 27.501 L 5 27.501 L 7 26.001 C 7.553 25.588 7.665 24.804 7.25 24.251 C 6.835 23.697 6.051 23.585 5.5 24.001 L 0.5 27.751 C 0.478 27.769 0.466 27.795 0.444 27.814 C 0.397 27.856 0.354 27.898 0.313 27.946 C 0.294 27.968 0.268 27.979 0.25 28.002 C 0.235 28.023 0.234 28.048 0.22 28.065 C 0.191 28.11 0.166 28.152 0.143 28.198 C 0.116 28.251 0.097 28.304 0.078 28.36 C 0.06 28.413 0.043 28.464 0.032 28.516 C 0.023 28.567 0.021 28.616 0.017 28.668 C 0.015 28.696 0 28.721 0 28.751 C 0 28.78 0.015 28.807 0.018 28.835 C 0.022 28.887 0.024 28.937 0.033 28.987 C 0.044 29.04 0.061 29.09 0.079 29.14 C 0.098 29.197 0.117 29.25 0.144 29.304 C 0.166 29.349 0.192 29.393 0.221 29.436 C 0.235 29.456 0.236 29.481 0.251 29.5 C 0.266 29.521 0.291 29.526 0.309 29.546 C 0.351 29.598 0.395 29.644 0.445 29.687 C 0.467 29.707 0.479 29.732 0.501 29.75 L 5.501 33.499 C 5.726 33.668 5.988 33.749 6.25 33.749 C 6.631 33.749 7.006 33.577 7.251 33.249 C 7.666 32.696 7.554 31.913 7.001 31.5 L 5.001 30 L 10.001 30 C 12.068 30 13.751 31.683 13.751 33.749 C 13.751 35.816 12.068 37.499 10.001 37.499 L 1.25 37.499 C 0.559 37.5 0 38.059 0 38.75 C 0 39.441 0.559 40 1.25 40 L 10 40 C 13.446 40 16.25 37.196 16.25 33.75 C 16.25 30.305 13.446 27.501 10 27.501"/>
</svg>
