<svg width="26" height="26" viewBox="0 0 26 26" xmlns="http://www.w3.org/2000/svg">
<path d="M2.2852 2.28516C3.39731 1.17305 4.88013 0.558594 6.45434 0.558594C8.02856 0.558594 9.51138 1.17305 10.6235 2.28516C12.6598 4.32148 12.8883 7.5207 11.2938 9.81602C11.9387 10.5219 12.9797 11.6543 13.6348 12.3348C14.3407 13.0102 15.4782 14.0613 16.184 14.7063C17.1641 14.0207 18.3321 13.65 19.5508 13.65C21.125 13.65 22.6028 14.2645 23.7149 15.3766C26.0153 17.677 26.0153 21.4195 23.7149 23.7148C22.6028 24.827 21.125 25.4414 19.5508 25.4414C18.3829 25.4414 17.2606 25.1063 16.2958 24.4613C16.2754 24.4512 16.2551 24.441 16.2348 24.4258C13.518 22.6586 10.8266 20.409 8.25708 17.7633C5.58599 15.1684 3.33637 12.477 1.57427 9.76523C1.56411 9.74492 1.54887 9.72461 1.53872 9.70937C-0.00503159 7.37852 0.299656 4.2707 2.2852 2.28516ZM3.30083 8.6125C3.32114 8.64297 7.16528 13.8176 9.72466 16.3008C12.1875 18.8348 17.3622 22.6789 17.3926 22.6992C18.0274 23.1359 18.779 23.3645 19.5559 23.3645C20.5766 23.3645 21.5313 22.9684 22.2524 22.2473C23.7403 20.7543 23.7403 18.332 22.2524 16.8391C21.5313 16.118 20.5715 15.7219 19.5508 15.7219C18.5454 15.7219 17.5958 16.1078 16.8797 16.8137C16.504 17.1844 15.9098 17.2098 15.4985 16.8746C15.3411 16.7477 13.2083 14.7926 12.1723 13.7973C11.2125 12.7918 9.25747 10.659 9.13052 10.5016C8.79536 10.0953 8.82583 9.50117 9.19145 9.12031C10.6489 7.63242 10.6336 5.22031 9.16098 3.74766C8.43989 3.02656 7.48013 2.62539 6.45942 2.62539C5.43872 2.62539 4.47895 3.02148 3.75786 3.74766C2.45278 5.05273 2.25981 7.09414 3.30083 8.6125Z"/>
<path d="M24.2734 10.4254C23.6996 10.4254 23.2375 9.96326 23.2375 9.38943C23.2375 5.76873 20.2921 2.81833 16.6664 2.81833C16.0925 2.81833 15.6304 2.35623 15.6304 1.7824C15.6304 1.20857 16.0925 0.74646 16.6664 0.74646C21.4347 0.74646 25.3093 4.62107 25.3093 9.38943C25.3093 9.95818 24.8472 10.4254 24.2734 10.4254Z"/>
<path d="M16.6664 5.10352C19.0277 5.10352 20.9473 7.02305 20.9473 9.38437C20.9473 9.9582 20.4852 10.4203 19.9113 10.4203C19.3375 10.4203 18.8754 9.9582 18.8754 9.38437C18.8754 8.16562 17.8852 7.17539 16.6664 7.17539C16.0926 7.17539 15.6305 6.71328 15.6305 6.13945C15.6305 5.5707 16.0926 5.10352 16.6664 5.10352Z"/>
</svg>
