<svg width="30" height="30" viewBox="0 0 30 30" fill="none" xmlns="http://www.w3.org/2000/svg">
<g clip-path="url(#clip0)">
<path d="M9.50625 19.0856H25.1875L28.75 7.29187H6.78125L9.50625 19.0856Z" fill="#ECB9E4"/>
<path d="M17.7355 2.14375C17.0455 2.14375 16.4855 2.70375 16.4855 3.39375V6.1H7.77611L6.59361 0.969375C6.46299 0.401875 5.95799 0 5.37549 0H1.25049C0.560488 0 0.000488281 0.56 0.000488281 1.25C0.000488281 1.94 0.560488 2.5 1.25049 2.5H4.38111L5.56361 7.63C5.56361 7.63063 5.56361 7.63063 5.56361 7.63125L7.93486 17.895H6.61549C4.78861 17.895 3.30174 19.3794 3.30174 21.2031C3.30174 23.0275 4.78799 24.5112 6.61549 24.5112H8.40986C8.22236 24.9731 8.11674 25.4769 8.11674 26.0056C8.11674 28.2081 9.91174 30 12.118 30C14.3236 30 16.1186 28.2081 16.1186 26.0056C16.1186 25.4769 16.013 24.9737 15.8255 24.5112H19.4149C19.2274 24.9731 19.1217 25.4769 19.1217 26.0056C19.1217 28.2081 20.9167 30 23.123 30C25.3286 30 27.123 28.2081 27.123 26.0056C27.123 23.8031 25.3286 22.0112 23.123 22.0112H6.61549C6.16674 22.0112 5.80174 21.6488 5.80174 21.2031C5.80174 20.7575 6.16674 20.395 6.61549 20.395H25.1849C25.313 20.395 25.4342 20.37 25.5505 20.3344C25.5699 20.3281 25.5892 20.3231 25.608 20.3162C25.718 20.2769 25.8205 20.2237 25.913 20.1569C25.9305 20.1444 25.9449 20.13 25.9617 20.1169C26.043 20.0519 26.1161 19.9781 26.1792 19.8944C26.1905 19.88 26.203 19.8681 26.2136 19.8531C26.2774 19.7606 26.3249 19.6575 26.3624 19.5494C26.368 19.5337 26.3792 19.5212 26.3842 19.505L29.9467 7.71125C30.0611 7.33313 29.9892 6.9225 29.7536 6.60438C29.5186 6.28688 29.1461 6.1 28.7505 6.1H18.9855V3.39375C18.9855 2.70375 18.4255 2.14375 17.7355 2.14375ZM13.6186 26.0056C13.6186 26.8294 12.9455 27.5 12.118 27.5C11.2905 27.5 10.6167 26.83 10.6167 26.0056C10.6167 25.1819 11.2905 24.5112 12.118 24.5112C12.9455 24.5119 13.6186 25.1819 13.6186 26.0056ZM23.123 27.5C22.2949 27.5 21.6217 26.83 21.6217 26.0056C21.6217 25.1819 22.2955 24.5112 23.123 24.5112C23.9505 24.5112 24.623 25.1813 24.623 26.0056C24.623 26.83 23.9505 27.5 23.123 27.5ZM27.0674 8.6L24.2599 17.8937H10.5011L8.35361 8.6H16.4855V11.2738L16.0524 10.9144C15.5211 10.4744 14.7336 10.5481 14.2924 11.0787C13.8517 11.61 13.9255 12.3981 14.4567 12.8387L16.938 14.8969C16.9561 14.9119 16.9755 14.9219 16.9942 14.9356C17.0211 14.9556 17.048 14.975 17.0767 14.9925C17.1155 15.0163 17.1549 15.0375 17.1955 15.0569C17.2242 15.0706 17.2524 15.085 17.2824 15.0962C17.3286 15.1144 17.3755 15.1275 17.423 15.14C17.4499 15.1469 17.4761 15.1556 17.5042 15.1612C17.5811 15.1756 17.6592 15.1844 17.7367 15.1844C17.8149 15.1844 17.8924 15.1756 17.9692 15.1612C17.9967 15.1562 18.023 15.1475 18.0499 15.14C18.0974 15.1275 18.1442 15.1144 18.1905 15.0962C18.2205 15.0844 18.2486 15.0706 18.2774 15.0569C18.318 15.0375 18.3574 15.0169 18.3961 14.9925C18.4249 14.9744 18.4517 14.9556 18.4786 14.9356C18.4967 14.9219 18.5167 14.9119 18.5349 14.8969L21.0161 12.8387C21.5474 12.3975 21.6211 11.61 21.1805 11.0787C20.7399 10.5469 19.9505 10.4744 19.4205 10.9144L18.9874 11.2738V8.6H27.0674Z" fill="#111111"/>
</g>
<defs>
<clipPath id="clip0">
<rect width="30" height="30" fill="white"/>
</clipPath>
</defs>
</svg>
