<svg width="30" height="30" viewBox="0 0 30 30" fill="none" xmlns="http://www.w3.org/2000/svg">
<path d="M7.34404 17.4797H16.0565L17.3503 10.8859H5.83154L7.34404 17.4797Z" fill="#ECB9E4"/>
<path d="M27.2251 1.8172H13.5251C12.6876 1.8172 12.0063 2.49845 12.0063 3.34845V5.9672H28.7501V3.34845C28.7501 2.49845 28.0689 1.8172 27.2251 1.8172Z" fill="#ECB9E4"/>
<path d="M22.327 23.7141C22.327 22.6416 21.4557 21.7697 20.3851 21.7697C19.3145 21.7697 18.4438 22.6422 18.4438 23.7141C18.4438 24.786 19.3151 25.6578 20.3851 25.6578C21.4557 25.6578 22.327 24.786 22.327 23.7141Z" fill="#111111"/>
<path d="M27.225 0.625305H13.525C11.9981 0.625305 10.7562 1.87343 10.7562 3.40656V6.02531V9.69406H6.8275L6.26875 7.25281C6.13875 6.68468 5.63312 6.28156 5.05 6.28156H1.25C0.559375 6.28156 0 6.84093 0 7.53156C0 8.22156 0.559375 8.78156 1.25 8.78156H4.05375L4.6125 11.2228C4.6125 11.2234 4.61312 11.2241 4.61312 11.2247L6.055 17.5122C5.55437 17.9441 5.23 18.5759 5.23 19.2884C5.23 20.5853 6.28437 21.6409 7.57937 21.6409C8.87562 21.6409 9.93 20.5859 9.93 19.2884C9.93 19.1166 9.90875 18.9497 9.87375 18.7878H13.8281C13.7931 18.9497 13.7719 19.1166 13.7719 19.2884C13.7719 20.5853 14.8269 21.6409 16.1225 21.6409C17.4175 21.6409 18.4719 20.5859 18.4719 19.2884C18.4719 18.4528 18.0325 17.7228 17.3756 17.3047L18.5763 11.1841C18.6481 10.8178 18.5519 10.4378 18.3144 10.1491C18.0769 9.86031 17.7231 9.69343 17.3494 9.69343H13.2556V7.27468H27.5V26.5934C27.5 26.7509 27.3794 26.8747 27.225 26.8747H13.525C13.3744 26.8747 13.2562 26.7509 13.2562 26.5934V23.7122C13.2562 23.0222 12.6962 22.4622 12.0062 22.4622C11.3156 22.4622 10.7562 23.0222 10.7562 23.7122V26.5934C10.7562 28.1272 11.9981 29.3747 13.525 29.3747H27.225C28.755 29.3747 30 28.1266 30 26.5934V6.02531V3.40656C30 1.87343 28.755 0.625305 27.225 0.625305ZM15.0275 16.2878H8.33938L7.40062 12.1941H15.8306L15.0275 16.2878ZM13.2562 3.40656C13.2562 3.24906 13.3744 3.12531 13.525 3.12531H27.225C27.3794 3.12531 27.5 3.24906 27.5 3.40656V4.77531H13.2562V3.40656Z" fill="#111111"/>
</svg>
